M48
; DRILL file {KiCad 9.0.1} date 2026-01-20T02:18:32+0000
; FORMAT={-:-/ absolute / metric / decimal}
; #@! TF.CreationDate,2026-01-20T02:18:32+00:00
; #@! TF.GenerationSoftware,Kicad,Pcbnew,9.0.1
; #@! TF.FileFunction,Plated,1,2,PTH
FMAT,2
METRIC
; #@! TA.AperFunction,Plated,PTH,ViaDrill
T1C0.300
; #@! TA.AperFunction,Plated,PTH,ComponentDrill
T2C0.600
; #@! TA.AperFunction,Plated,PTH,ComponentDrill
T3C1.000
%
G90
G05
T1
X85.77Y-104.1
X86.922Y-105.993
X86.93Y-104.73
X87.03Y-92.5
X87.114Y-99.494
X87.913Y-99.52
X88.891Y-113.699
X89.03Y-91.94
X89.162Y-98.332
X89.39Y-111.42
X89.74Y-103.78
X89.81Y-123.99
X90.27Y-106.14
X90.78Y-110.19
X90.925Y-106.904
X90.99Y-102.67
X91.49Y-93.81
X91.57Y-84.83
X91.74Y-88.39
X91.76Y-95.127
X91.877Y-114.131
X92.48Y-97.8
X92.552Y-115.131
X92.58Y-106.93
X92.75Y-102.64
X92.752Y-100.74
X93.123Y-115.81
X93.476Y-97.616
X93.533Y-106.937
X93.71Y-88.35
X93.94Y-94.33
X94.144Y-102.158
X94.41Y-103.7
X94.43Y-104.92
X94.5Y-106.03
X94.51Y-107.0
X95.06Y-112.57
X95.28Y-83.31
X95.33Y-98.1
X95.48Y-89.58
X95.48Y-89.58
X95.93Y-94.59
X96.05Y-108.31
X96.11Y-86.98
X96.715Y-102.19
X97.71Y-89.66
X97.83Y-97.75
X97.89Y-103.992
X97.908Y-88.35
X98.43Y-115.49
X99.07Y-106.84
X99.07Y-106.84
X99.084Y-88.36
X99.298Y-104.793
T3
X83.46Y-75.97
X83.46Y-78.51
X83.46Y-81.05
X83.46Y-83.59
X83.46Y-86.13
X83.46Y-88.67
X83.46Y-91.21
X83.46Y-93.75
X83.46Y-96.29
X83.46Y-98.83
X83.46Y-101.37
X83.46Y-103.91
X83.46Y-106.45
X83.46Y-108.99
X83.46Y-111.53
X83.46Y-114.07
X83.46Y-116.61
X83.46Y-119.15
X83.46Y-121.69
X83.46Y-124.23
X89.81Y-123.99
X92.35Y-123.99
X94.89Y-123.99
X101.24Y-75.97
X101.24Y-78.51
X101.24Y-81.05
X101.24Y-83.59
X101.24Y-86.13
X101.24Y-88.67
X101.24Y-91.21
X101.24Y-93.75
X101.24Y-96.29
X101.24Y-98.83
X101.24Y-101.37
X101.24Y-103.91
X101.24Y-106.45
X101.24Y-108.99
X101.24Y-111.53
X101.24Y-114.07
X101.24Y-116.61
X101.24Y-119.15
X101.24Y-121.69
X101.24Y-124.23
T2
G00X88.03Y-76.212
M15
G01X88.03Y-75.612
M16
G05
G00X88.03Y-80.642
M15
G01X88.03Y-79.542
M16
G05
G00X96.67Y-76.212
M15
G01X96.67Y-75.612
M16
G05
G00X96.67Y-80.642
M15
G01X96.67Y-79.542
M16
G05
M30
