%TF.GenerationSoftware,KiCad,Pcbnew,9.0.1*%
%TF.CreationDate,2026-01-20T01:34:41+00:00*%
%TF.ProjectId,heidi-pico,68656964-692d-4706-9963-6f2e6b696361,rev?*%
%TF.SameCoordinates,Original*%
%TF.FileFunction,Legend,Top*%
%TF.FilePolarity,Positive*%
%FSLAX46Y46*%
G04 Gerber Fmt 4.6, Leading zero omitted, Abs format (unit mm)*
G04 Created by KiCad (PCBNEW 9.0.1) date 2026-01-20 01:34:41*
%MOMM*%
%LPD*%
G01*
G04 APERTURE LIST*
%ADD10C,0.150000*%
%ADD11C,0.100000*%
%ADD12C,0.120000*%
G04 APERTURE END LIST*
D10*
X94571905Y-84974819D02*
X94571905Y-83974819D01*
X94571905Y-83974819D02*
X94810000Y-83974819D01*
X94810000Y-83974819D02*
X94952857Y-84022438D01*
X94952857Y-84022438D02*
X95048095Y-84117676D01*
X95048095Y-84117676D02*
X95095714Y-84212914D01*
X95095714Y-84212914D02*
X95143333Y-84403390D01*
X95143333Y-84403390D02*
X95143333Y-84546247D01*
X95143333Y-84546247D02*
X95095714Y-84736723D01*
X95095714Y-84736723D02*
X95048095Y-84831961D01*
X95048095Y-84831961D02*
X94952857Y-84927200D01*
X94952857Y-84927200D02*
X94810000Y-84974819D01*
X94810000Y-84974819D02*
X94571905Y-84974819D01*
X96095714Y-84974819D02*
X95524286Y-84974819D01*
X95810000Y-84974819D02*
X95810000Y-83974819D01*
X95810000Y-83974819D02*
X95714762Y-84117676D01*
X95714762Y-84117676D02*
X95619524Y-84212914D01*
X95619524Y-84212914D02*
X95524286Y-84260533D01*
X93884819Y-94901904D02*
X94694342Y-94901904D01*
X94694342Y-94901904D02*
X94789580Y-94854285D01*
X94789580Y-94854285D02*
X94837200Y-94806666D01*
X94837200Y-94806666D02*
X94884819Y-94711428D01*
X94884819Y-94711428D02*
X94884819Y-94520952D01*
X94884819Y-94520952D02*
X94837200Y-94425714D01*
X94837200Y-94425714D02*
X94789580Y-94378095D01*
X94789580Y-94378095D02*
X94694342Y-94330476D01*
X94694342Y-94330476D02*
X93884819Y-94330476D01*
X94218152Y-93425714D02*
X94884819Y-93425714D01*
X93837200Y-93663809D02*
X94551485Y-93901904D01*
X94551485Y-93901904D02*
X94551485Y-93282857D01*
X86964819Y-86791904D02*
X87774342Y-86791904D01*
X87774342Y-86791904D02*
X87869580Y-86744285D01*
X87869580Y-86744285D02*
X87917200Y-86696666D01*
X87917200Y-86696666D02*
X87964819Y-86601428D01*
X87964819Y-86601428D02*
X87964819Y-86410952D01*
X87964819Y-86410952D02*
X87917200Y-86315714D01*
X87917200Y-86315714D02*
X87869580Y-86268095D01*
X87869580Y-86268095D02*
X87774342Y-86220476D01*
X87774342Y-86220476D02*
X86964819Y-86220476D01*
X87060057Y-85791904D02*
X87012438Y-85744285D01*
X87012438Y-85744285D02*
X86964819Y-85649047D01*
X86964819Y-85649047D02*
X86964819Y-85410952D01*
X86964819Y-85410952D02*
X87012438Y-85315714D01*
X87012438Y-85315714D02*
X87060057Y-85268095D01*
X87060057Y-85268095D02*
X87155295Y-85220476D01*
X87155295Y-85220476D02*
X87250533Y-85220476D01*
X87250533Y-85220476D02*
X87393390Y-85268095D01*
X87393390Y-85268095D02*
X87964819Y-85839523D01*
X87964819Y-85839523D02*
X87964819Y-85220476D01*
D11*
G36*
X89075280Y-91160155D02*
G01*
X89264446Y-91160827D01*
X89303777Y-91165210D01*
X89338086Y-91177924D01*
X89361990Y-91195675D01*
X89375242Y-91216045D01*
X89379668Y-91240084D01*
X89375893Y-91262737D01*
X89365606Y-91277911D01*
X89348249Y-91287585D01*
X89320744Y-91291314D01*
X89292962Y-91287894D01*
X89265179Y-91284475D01*
X89116863Y-91282399D01*
X88943450Y-91281055D01*
X88979601Y-91340685D01*
X89003900Y-91394079D01*
X89019259Y-91447365D01*
X89024050Y-91494890D01*
X89016792Y-91565838D01*
X88995774Y-91628083D01*
X88961053Y-91683498D01*
X88911271Y-91733271D01*
X88856222Y-91770414D01*
X88795239Y-91797161D01*
X88727240Y-91813650D01*
X88650847Y-91819367D01*
X88574546Y-91812854D01*
X88505932Y-91793923D01*
X88443553Y-91762823D01*
X88386332Y-91718922D01*
X88338432Y-91665170D01*
X88304895Y-91606414D01*
X88284613Y-91541546D01*
X88277644Y-91468939D01*
X88406605Y-91468939D01*
X88411149Y-91517151D01*
X88424287Y-91559603D01*
X88445854Y-91597450D01*
X88476458Y-91631483D01*
X88513161Y-91659054D01*
X88553842Y-91678759D01*
X88599274Y-91690856D01*
X88650481Y-91695047D01*
X88716854Y-91688964D01*
X88773062Y-91671681D01*
X88821085Y-91643817D01*
X88853774Y-91613398D01*
X88876525Y-91579054D01*
X88890312Y-91539989D01*
X88895090Y-91494890D01*
X88887552Y-91439411D01*
X88863583Y-91380096D01*
X88795744Y-91281727D01*
X88677226Y-91280384D01*
X88570369Y-91281055D01*
X88458018Y-91281727D01*
X88419610Y-91373929D01*
X88409999Y-91417839D01*
X88406605Y-91468939D01*
X88277644Y-91468939D01*
X88282323Y-91400182D01*
X88295957Y-91337181D01*
X88318250Y-91279040D01*
X88299312Y-91262562D01*
X88288878Y-91245042D01*
X88285460Y-91225734D01*
X88289994Y-91201699D01*
X88303534Y-91181648D01*
X88323713Y-91168167D01*
X88348841Y-91163575D01*
X88401353Y-91165284D01*
X88453866Y-91166994D01*
X88670265Y-91163208D01*
X88886786Y-91159483D01*
X89075280Y-91160155D01*
G37*
G36*
X88679165Y-91945585D02*
G01*
X88749030Y-91959851D01*
X88813710Y-91984565D01*
X88874085Y-92019951D01*
X88924556Y-92061932D01*
X88962716Y-92108741D01*
X88989883Y-92160963D01*
X89006546Y-92219674D01*
X89012327Y-92286359D01*
X89007207Y-92339029D01*
X88992455Y-92384921D01*
X88968267Y-92425421D01*
X88933893Y-92461446D01*
X88887702Y-92493355D01*
X88818398Y-92523447D01*
X88738302Y-92541792D01*
X88645230Y-92547332D01*
X88570194Y-92541266D01*
X88502890Y-92525792D01*
X88442178Y-92501388D01*
X88387126Y-92468076D01*
X88342485Y-92429802D01*
X88308947Y-92388134D01*
X88285266Y-92342631D01*
X88270873Y-92292474D01*
X88265921Y-92236533D01*
X88402697Y-92236533D01*
X88408490Y-92281725D01*
X88425573Y-92322015D01*
X88454720Y-92358777D01*
X88496298Y-92390727D01*
X88547243Y-92411377D01*
X88610059Y-92420265D01*
X88706244Y-92417513D01*
X88774008Y-92403875D01*
X88820403Y-92382489D01*
X88850942Y-92354871D01*
X88869063Y-92320623D01*
X88875551Y-92277505D01*
X88869877Y-92230209D01*
X88852657Y-92189311D01*
X88823359Y-92153178D01*
X88779747Y-92121068D01*
X88726633Y-92096707D01*
X88668170Y-92081810D01*
X88603220Y-92076676D01*
X88539189Y-92083275D01*
X88488635Y-92101575D01*
X88448553Y-92130654D01*
X88422764Y-92162965D01*
X88407755Y-92197875D01*
X88402697Y-92236533D01*
X88265921Y-92236533D01*
X88271245Y-92180911D01*
X88286876Y-92130151D01*
X88312933Y-92083145D01*
X88350368Y-92039124D01*
X88399905Y-91999422D01*
X88457477Y-91969922D01*
X88524544Y-91950557D01*
X88603037Y-91942099D01*
X88679165Y-91945585D01*
G37*
G36*
X88679165Y-92681245D02*
G01*
X88749030Y-92695510D01*
X88813710Y-92720225D01*
X88874085Y-92755610D01*
X88924556Y-92797591D01*
X88962716Y-92844401D01*
X88989883Y-92896622D01*
X89006546Y-92955333D01*
X89012327Y-93022018D01*
X89007207Y-93074688D01*
X88992455Y-93120580D01*
X88968267Y-93161080D01*
X88933893Y-93197105D01*
X88887702Y-93229014D01*
X88818398Y-93259107D01*
X88738302Y-93277451D01*
X88645230Y-93282992D01*
X88570194Y-93276926D01*
X88502890Y-93261451D01*
X88442178Y-93237048D01*
X88387126Y-93203735D01*
X88342485Y-93165462D01*
X88308947Y-93123794D01*
X88285266Y-93078291D01*
X88270873Y-93028134D01*
X88265921Y-92972193D01*
X88402697Y-92972193D01*
X88408490Y-93017384D01*
X88425573Y-93057675D01*
X88454720Y-93094436D01*
X88496298Y-93126386D01*
X88547243Y-93147037D01*
X88610059Y-93155924D01*
X88706244Y-93153173D01*
X88774008Y-93139535D01*
X88820403Y-93118148D01*
X88850942Y-93090530D01*
X88869063Y-93056283D01*
X88875551Y-93013165D01*
X88869877Y-92965868D01*
X88852657Y-92924971D01*
X88823359Y-92888838D01*
X88779747Y-92856727D01*
X88726633Y-92832367D01*
X88668170Y-92817469D01*
X88603220Y-92812336D01*
X88539189Y-92818934D01*
X88488635Y-92837234D01*
X88448553Y-92866314D01*
X88422764Y-92898624D01*
X88407755Y-92933535D01*
X88402697Y-92972193D01*
X88265921Y-92972193D01*
X88271245Y-92916571D01*
X88286876Y-92865810D01*
X88312933Y-92818805D01*
X88350368Y-92774784D01*
X88399905Y-92735082D01*
X88457477Y-92705581D01*
X88524544Y-92686217D01*
X88603037Y-92677758D01*
X88679165Y-92681245D01*
G37*
G36*
X88978960Y-93442690D02*
G01*
X89014952Y-93455733D01*
X89038088Y-93472168D01*
X89050973Y-93491611D01*
X89055314Y-93515145D01*
X89050491Y-93539708D01*
X89036079Y-93559902D01*
X89014883Y-93573453D01*
X88989246Y-93578037D01*
X88966714Y-93575961D01*
X88927758Y-93571198D01*
X88963804Y-93630391D01*
X88988208Y-93684588D01*
X89003560Y-93739059D01*
X89008419Y-93789124D01*
X89003209Y-93843377D01*
X88988331Y-93889681D01*
X88964163Y-93929630D01*
X88930070Y-93964282D01*
X88884466Y-93994044D01*
X88817034Y-94021036D01*
X88731838Y-94038779D01*
X88624897Y-94045274D01*
X88551858Y-94039913D01*
X88488035Y-94024582D01*
X88431931Y-93999943D01*
X88382363Y-93966017D01*
X88338276Y-93920531D01*
X88307187Y-93868954D01*
X88288171Y-93810058D01*
X88281552Y-93741985D01*
X88418328Y-93741985D01*
X88422554Y-93783400D01*
X88434560Y-93818093D01*
X88454043Y-93847473D01*
X88481648Y-93872411D01*
X88520223Y-93893331D01*
X88567202Y-93906608D01*
X88624591Y-93911368D01*
X88707475Y-93907231D01*
X88767591Y-93896435D01*
X88810033Y-93880959D01*
X88845153Y-93856337D01*
X88864912Y-93826316D01*
X88871643Y-93789063D01*
X88864521Y-93728710D01*
X88843738Y-93675673D01*
X88818646Y-93638288D01*
X88771564Y-93584143D01*
X88615197Y-93590773D01*
X88446905Y-93593058D01*
X88425355Y-93668122D01*
X88418328Y-93741985D01*
X88281552Y-93741985D01*
X88286714Y-93672349D01*
X88303412Y-93591654D01*
X87975088Y-93590310D01*
X87947240Y-93585466D01*
X87925629Y-93571504D01*
X87911316Y-93550380D01*
X87906395Y-93523388D01*
X87911303Y-93496327D01*
X87925568Y-93475150D01*
X87947056Y-93461234D01*
X87974783Y-93456404D01*
X88248335Y-93458480D01*
X88521215Y-93458480D01*
X88794096Y-93448222D01*
X88932887Y-93437964D01*
X88978960Y-93442690D01*
G37*
D12*
%TO.C,U3*%
X87750000Y-95865000D02*
X90750000Y-95865000D01*
X87750000Y-98135000D02*
X90750000Y-98135000D01*
X87200000Y-95950000D02*
X86920000Y-95950000D01*
X87200000Y-95670000D01*
X87200000Y-95950000D01*
G36*
X87200000Y-95950000D02*
G01*
X86920000Y-95950000D01*
X87200000Y-95670000D01*
X87200000Y-95950000D01*
G37*
%TO.C,C5*%
X93442164Y-95300000D02*
X93657836Y-95300000D01*
X93442164Y-96020000D02*
X93657836Y-96020000D01*
%TO.C,C10*%
X94822164Y-110390000D02*
X95037836Y-110390000D01*
X94822164Y-111110000D02*
X95037836Y-111110000D01*
%TO.C,J3*%
X82080000Y-74590000D02*
X83460000Y-74590000D01*
X82080000Y-75970000D02*
X82080000Y-74590000D01*
X82080000Y-77240000D02*
X82080000Y-125610000D01*
X82080000Y-77240000D02*
X84840000Y-77240000D01*
X82080000Y-125610000D02*
X84840000Y-125610000D01*
X84840000Y-77240000D02*
X84840000Y-125610000D01*
%TO.C,R6*%
X90580000Y-90716359D02*
X90580000Y-91023641D01*
X91340000Y-90716359D02*
X91340000Y-91023641D01*
%TO.C,D1*%
X93825000Y-85215000D02*
X93825000Y-86685000D01*
X93825000Y-86685000D02*
X96110000Y-86685000D01*
X96110000Y-85215000D02*
X93825000Y-85215000D01*
%TO.C,U4*%
X95270000Y-94140000D02*
X95270000Y-92640000D01*
X95270000Y-94140000D02*
X95270000Y-95640000D01*
X98490000Y-94140000D02*
X98490000Y-92640000D01*
X98490000Y-94140000D02*
X98490000Y-95640000D01*
X95445000Y-96352500D02*
X95115000Y-96592500D01*
X95115000Y-96112500D01*
X95445000Y-96352500D01*
G36*
X95445000Y-96352500D02*
G01*
X95115000Y-96592500D01*
X95115000Y-96112500D01*
X95445000Y-96352500D01*
G37*
%TO.C,J2*%
X88430000Y-125370000D02*
X88430000Y-123990000D01*
X89810000Y-125370000D02*
X88430000Y-125370000D01*
X91080000Y-122610000D02*
X96270000Y-122610000D01*
X91080000Y-125370000D02*
X91080000Y-122610000D01*
X91080000Y-125370000D02*
X96270000Y-125370000D01*
X96270000Y-125370000D02*
X96270000Y-122610000D01*
%TO.C,U2*%
X88350000Y-86030000D02*
X88350000Y-85380000D01*
X88350000Y-86030000D02*
X88350000Y-86680000D01*
X91470000Y-86030000D02*
X91470000Y-85380000D01*
X91470000Y-86030000D02*
X91470000Y-86680000D01*
X88400000Y-87192500D02*
X88070000Y-87432500D01*
X88070000Y-86952500D01*
X88400000Y-87192500D01*
G36*
X88400000Y-87192500D02*
G01*
X88070000Y-87432500D01*
X88070000Y-86952500D01*
X88400000Y-87192500D01*
G37*
%TO.C,C7*%
X96820000Y-101107836D02*
X96820000Y-100892164D01*
X97540000Y-101107836D02*
X97540000Y-100892164D01*
%TO.C,C8*%
X98292164Y-105720000D02*
X98507836Y-105720000D01*
X98292164Y-106440000D02*
X98507836Y-106440000D01*
%TO.C,C15*%
X93830000Y-112162164D02*
X93830000Y-112377836D01*
X94550000Y-112162164D02*
X94550000Y-112377836D01*
%TO.C,J1*%
X87650000Y-74962000D02*
X87650000Y-73062000D01*
X87650000Y-78862000D02*
X87650000Y-76862000D01*
X97050000Y-73062000D02*
X87650000Y-73062000D01*
X97050000Y-74962000D02*
X97050000Y-73062000D01*
X97050000Y-78862000D02*
X97050000Y-76862000D01*
%TO.C,SW1*%
D11*
X90170000Y-90880000D02*
X87270000Y-90880000D01*
X87270000Y-94280000D01*
X90170000Y-94280000D01*
X90170000Y-90880000D01*
D12*
%TO.C,U1*%
X88730000Y-101820000D02*
X88730000Y-101410000D01*
X88730000Y-108390000D02*
X88730000Y-107740000D01*
X89380000Y-101170000D02*
X89030000Y-101170000D01*
X89380000Y-108390000D02*
X88730000Y-108390000D01*
X95300000Y-101170000D02*
X95950000Y-101170000D01*
X95300000Y-108390000D02*
X95950000Y-108390000D01*
X95950000Y-101170000D02*
X95950000Y-101820000D01*
X95950000Y-108390000D02*
X95950000Y-107740000D01*
X88730000Y-101170000D02*
X88490000Y-100840000D01*
X88970000Y-100840000D01*
X88730000Y-101170000D01*
G36*
X88730000Y-101170000D02*
G01*
X88490000Y-100840000D01*
X88970000Y-100840000D01*
X88730000Y-101170000D01*
G37*
%TO.C,R5*%
X91523641Y-92610000D02*
X91216359Y-92610000D01*
X91523641Y-93370000D02*
X91216359Y-93370000D01*
%TO.C,R3*%
X94046359Y-82370000D02*
X94353641Y-82370000D01*
X94046359Y-83130000D02*
X94353641Y-83130000D01*
%TO.C,C9*%
X93442164Y-96350000D02*
X93657836Y-96350000D01*
X93442164Y-97070000D02*
X93657836Y-97070000D01*
%TO.C,Y1*%
X89550000Y-110620000D02*
X89550000Y-113920000D01*
X89550000Y-113920000D02*
X93550000Y-113920000D01*
%TO.C,R8*%
X95547258Y-83797500D02*
X95072742Y-83797500D01*
X95547258Y-84842500D02*
X95072742Y-84842500D01*
%TO.C,C1*%
X94790000Y-99547836D02*
X94790000Y-99332164D01*
X95510000Y-99547836D02*
X95510000Y-99332164D01*
%TO.C,R7*%
X93073641Y-109600000D02*
X92766359Y-109600000D01*
X93073641Y-110360000D02*
X92766359Y-110360000D01*
%TO.C,R4*%
X91353641Y-82460000D02*
X91046359Y-82460000D01*
X91353641Y-83220000D02*
X91046359Y-83220000D01*
%TO.C,C14*%
X88550000Y-112192164D02*
X88550000Y-112407836D01*
X89270000Y-112192164D02*
X89270000Y-112407836D01*
%TO.C,J4*%
X99860000Y-74590000D02*
X101240000Y-74590000D01*
X99860000Y-75970000D02*
X99860000Y-74590000D01*
X99860000Y-77240000D02*
X99860000Y-125610000D01*
X99860000Y-77240000D02*
X102620000Y-77240000D01*
X99860000Y-125610000D02*
X102620000Y-125610000D01*
X102620000Y-77240000D02*
X102620000Y-125610000D01*
%TO.C,C11*%
X95820000Y-99687836D02*
X95820000Y-99472164D01*
X96540000Y-99687836D02*
X96540000Y-99472164D01*
%TO.C,C2*%
X91690000Y-96247836D02*
X91690000Y-96032164D01*
X92410000Y-96247836D02*
X92410000Y-96032164D01*
%TO.C,C16*%
X90310000Y-94857836D02*
X90310000Y-94642164D01*
X91030000Y-94857836D02*
X91030000Y-94642164D01*
%TO.C,C13*%
X87929420Y-82590000D02*
X88210580Y-82590000D01*
X87929420Y-83610000D02*
X88210580Y-83610000D01*
%TO.C,C6*%
X96810000Y-99197836D02*
X96810000Y-98982164D01*
X97530000Y-99197836D02*
X97530000Y-98982164D01*
%TO.C,C3*%
X95967836Y-111390000D02*
X95752164Y-111390000D01*
X95967836Y-112110000D02*
X95752164Y-112110000D01*
%TO.C,R1*%
X92580000Y-99306359D02*
X92580000Y-99613641D01*
X93340000Y-99306359D02*
X93340000Y-99613641D01*
%TO.C,C12*%
X90025580Y-88270000D02*
X89744420Y-88270000D01*
X90025580Y-89290000D02*
X89744420Y-89290000D01*
%TO.C,R2*%
X93760000Y-99306359D02*
X93760000Y-99613641D01*
X94520000Y-99306359D02*
X94520000Y-99613641D01*
%TO.C,C4*%
X85640000Y-105367836D02*
X85640000Y-105152164D01*
X86360000Y-105367836D02*
X86360000Y-105152164D01*
%TD*%
M02*
