%TF.GenerationSoftware,KiCad,Pcbnew,9.0.1*%
%TF.CreationDate,2026-01-20T01:34:41+00:00*%
%TF.ProjectId,heidi-pico,68656964-692d-4706-9963-6f2e6b696361,rev?*%
%TF.SameCoordinates,Original*%
%TF.FileFunction,Soldermask,Bot*%
%TF.FilePolarity,Negative*%
%FSLAX46Y46*%
G04 Gerber Fmt 4.6, Leading zero omitted, Abs format (unit mm)*
G04 Created by KiCad (PCBNEW 9.0.1) date 2026-01-20 01:34:41*
%MOMM*%
%LPD*%
G01*
G04 APERTURE LIST*
%ADD10C,0.010000*%
%ADD11C,0.000000*%
%ADD12C,1.000000*%
%ADD13C,0.400000*%
%ADD14R,1.700000X1.700000*%
%ADD15C,1.700000*%
%ADD16C,0.650000*%
%ADD17O,1.000000X2.100000*%
%ADD18O,1.000000X1.600000*%
G04 APERTURE END LIST*
D10*
%TO.C,G\u002A\u002A\u002A*%
X89038630Y-83044876D02*
X89244055Y-83116068D01*
X89325020Y-83159150D01*
X89370993Y-83186954D01*
X89397343Y-83207219D01*
X89406795Y-83222293D01*
X89405917Y-83267021D01*
X89392195Y-83247021D01*
X89398700Y-83297021D01*
X89398700Y-83319939D01*
X89445692Y-83361939D01*
X89480628Y-83362220D01*
X89511685Y-83362529D01*
X89562189Y-83385471D01*
X89600973Y-83417021D01*
X89641839Y-83479954D01*
X89709413Y-83583594D01*
X89720973Y-83607021D01*
X89768067Y-83700353D01*
X89816789Y-83834322D01*
X89830793Y-83901555D01*
X89840545Y-83985215D01*
X89845953Y-84078422D01*
X89846928Y-84174301D01*
X89843379Y-84265973D01*
X89835216Y-84346560D01*
X89824255Y-84402432D01*
X89800973Y-84477021D01*
X89770973Y-84577021D01*
X89710973Y-84717021D01*
X89653630Y-84839883D01*
X89583353Y-84954234D01*
X89508346Y-85049508D01*
X89480973Y-85077021D01*
X89429793Y-85123699D01*
X89377802Y-85159427D01*
X89324479Y-85192826D01*
X89260973Y-85237021D01*
X89225425Y-85262757D01*
X89186405Y-85290282D01*
X89150921Y-85310262D01*
X89126182Y-85318684D01*
X89080973Y-85297021D01*
X88986594Y-85217944D01*
X88950973Y-85177021D01*
X88880973Y-85117021D01*
X88826987Y-85049467D01*
X88790973Y-85007021D01*
X88762516Y-84960481D01*
X88720973Y-84897021D01*
X88649702Y-84750177D01*
X88560973Y-84537021D01*
X88515671Y-84392298D01*
X88469032Y-84219668D01*
X88440095Y-84059891D01*
X88428681Y-83911168D01*
X88434608Y-83771695D01*
X88457698Y-83639671D01*
X88478970Y-83565539D01*
X88524294Y-83443180D01*
X88574038Y-83340285D01*
X88630981Y-83251938D01*
X88697897Y-83173223D01*
X88749000Y-83122570D01*
X88783546Y-83092750D01*
X88813894Y-83073036D01*
X88845987Y-83059282D01*
X88868511Y-83052180D01*
X88949953Y-83038903D01*
X89038630Y-83044876D01*
G36*
X89038630Y-83044876D02*
G01*
X89244055Y-83116068D01*
X89325020Y-83159150D01*
X89370993Y-83186954D01*
X89397343Y-83207219D01*
X89406795Y-83222293D01*
X89405917Y-83267021D01*
X89392195Y-83247021D01*
X89398700Y-83297021D01*
X89398700Y-83319939D01*
X89445692Y-83361939D01*
X89480628Y-83362220D01*
X89511685Y-83362529D01*
X89562189Y-83385471D01*
X89600973Y-83417021D01*
X89641839Y-83479954D01*
X89709413Y-83583594D01*
X89720973Y-83607021D01*
X89768067Y-83700353D01*
X89816789Y-83834322D01*
X89830793Y-83901555D01*
X89840545Y-83985215D01*
X89845953Y-84078422D01*
X89846928Y-84174301D01*
X89843379Y-84265973D01*
X89835216Y-84346560D01*
X89824255Y-84402432D01*
X89800973Y-84477021D01*
X89770973Y-84577021D01*
X89710973Y-84717021D01*
X89653630Y-84839883D01*
X89583353Y-84954234D01*
X89508346Y-85049508D01*
X89480973Y-85077021D01*
X89429793Y-85123699D01*
X89377802Y-85159427D01*
X89324479Y-85192826D01*
X89260973Y-85237021D01*
X89225425Y-85262757D01*
X89186405Y-85290282D01*
X89150921Y-85310262D01*
X89126182Y-85318684D01*
X89080973Y-85297021D01*
X88986594Y-85217944D01*
X88950973Y-85177021D01*
X88880973Y-85117021D01*
X88826987Y-85049467D01*
X88790973Y-85007021D01*
X88762516Y-84960481D01*
X88720973Y-84897021D01*
X88649702Y-84750177D01*
X88560973Y-84537021D01*
X88515671Y-84392298D01*
X88469032Y-84219668D01*
X88440095Y-84059891D01*
X88428681Y-83911168D01*
X88434608Y-83771695D01*
X88457698Y-83639671D01*
X88478970Y-83565539D01*
X88524294Y-83443180D01*
X88574038Y-83340285D01*
X88630981Y-83251938D01*
X88697897Y-83173223D01*
X88749000Y-83122570D01*
X88783546Y-83092750D01*
X88813894Y-83073036D01*
X88845987Y-83059282D01*
X88868511Y-83052180D01*
X88949953Y-83038903D01*
X89038630Y-83044876D01*
G37*
D11*
G36*
X93676526Y-83291941D02*
G01*
X93698199Y-83300243D01*
X93713142Y-83332258D01*
X93796302Y-83366790D01*
X93917056Y-83397608D01*
X94020973Y-83477021D01*
X94200973Y-83657021D01*
X94322183Y-83785703D01*
X94400698Y-83858411D01*
X94427491Y-83872659D01*
X94449759Y-83874086D01*
X94480973Y-83857021D01*
X94528718Y-83805036D01*
X94580309Y-83897021D01*
X94611011Y-84054616D01*
X94620897Y-84197021D01*
X94618117Y-84347021D01*
X94610973Y-84527021D01*
X94570973Y-84707021D01*
X94460973Y-84967021D01*
X94350973Y-85157021D01*
X94230973Y-85287021D01*
X94170973Y-85337021D01*
X94110973Y-85377021D01*
X94074153Y-85393389D01*
X93984401Y-85422182D01*
X93890119Y-85428642D01*
X93796971Y-85412643D01*
X93762314Y-85400346D01*
X93694366Y-85367604D01*
X93626771Y-85324487D01*
X93554808Y-85267629D01*
X93477943Y-85197677D01*
X93369873Y-85085717D01*
X93278068Y-84970504D01*
X93200973Y-84857021D01*
X93190973Y-84827021D01*
X93120973Y-84697021D01*
X93067474Y-84555150D01*
X93030973Y-84417021D01*
X93008629Y-84231024D01*
X93006682Y-84114939D01*
X93014274Y-84006932D01*
X93030385Y-83919654D01*
X93072643Y-83792957D01*
X93170973Y-83607021D01*
X93240973Y-83517021D01*
X93360973Y-83397021D01*
X93400973Y-83377021D01*
X93490973Y-83315213D01*
X93540973Y-83299584D01*
X93620973Y-83291774D01*
X93676526Y-83291941D01*
G37*
D12*
X90443307Y-119704485D02*
X90486838Y-119744681D01*
X90560554Y-119823766D01*
X90657981Y-119933902D01*
X90772648Y-120067248D01*
X90898083Y-120215965D01*
X91027813Y-120372212D01*
X91155367Y-120528151D01*
X91274271Y-120675940D01*
X91378055Y-120807741D01*
X91460245Y-120915714D01*
X91514370Y-120992018D01*
X91533957Y-121028815D01*
X91532236Y-121034012D01*
X91490564Y-121061876D01*
X91402016Y-121097404D01*
X91278338Y-121137061D01*
X91131278Y-121177313D01*
X90972581Y-121214626D01*
X90813995Y-121245464D01*
X90812895Y-121245651D01*
X90677230Y-121266229D01*
X90546979Y-121281731D01*
X90450197Y-121288816D01*
X90321296Y-121292027D01*
X90346389Y-121158919D01*
X90348338Y-121147042D01*
X90357251Y-121062438D01*
X90366966Y-120929692D01*
X90376787Y-120760471D01*
X90386022Y-120566442D01*
X90393976Y-120359270D01*
X90396628Y-120284770D01*
X90404654Y-120096442D01*
X90413429Y-119935033D01*
X90422352Y-119809467D01*
X90430823Y-119728669D01*
X90438241Y-119701564D01*
X90443307Y-119704485D01*
G36*
X90443307Y-119704485D02*
G01*
X90486838Y-119744681D01*
X90560554Y-119823766D01*
X90657981Y-119933902D01*
X90772648Y-120067248D01*
X90898083Y-120215965D01*
X91027813Y-120372212D01*
X91155367Y-120528151D01*
X91274271Y-120675940D01*
X91378055Y-120807741D01*
X91460245Y-120915714D01*
X91514370Y-120992018D01*
X91533957Y-121028815D01*
X91532236Y-121034012D01*
X91490564Y-121061876D01*
X91402016Y-121097404D01*
X91278338Y-121137061D01*
X91131278Y-121177313D01*
X90972581Y-121214626D01*
X90813995Y-121245464D01*
X90812895Y-121245651D01*
X90677230Y-121266229D01*
X90546979Y-121281731D01*
X90450197Y-121288816D01*
X90321296Y-121292027D01*
X90346389Y-121158919D01*
X90348338Y-121147042D01*
X90357251Y-121062438D01*
X90366966Y-120929692D01*
X90376787Y-120760471D01*
X90386022Y-120566442D01*
X90393976Y-120359270D01*
X90396628Y-120284770D01*
X90404654Y-120096442D01*
X90413429Y-119935033D01*
X90422352Y-119809467D01*
X90430823Y-119728669D01*
X90438241Y-119701564D01*
X90443307Y-119704485D01*
G37*
X90083251Y-119534465D02*
X90126825Y-119554762D01*
X90171841Y-119581124D01*
X90203118Y-119617962D01*
X90215761Y-119678300D01*
X90217584Y-119781672D01*
X90216593Y-119849241D01*
X90212410Y-119998500D01*
X90205660Y-120174669D01*
X90196959Y-120366561D01*
X90186922Y-120562988D01*
X90176166Y-120752762D01*
X90165308Y-120924694D01*
X90154963Y-121067596D01*
X90145748Y-121170280D01*
X90138278Y-121221558D01*
X90132437Y-121238890D01*
X90106735Y-121272972D01*
X90054143Y-121288259D01*
X89956889Y-121291615D01*
X89951170Y-121291588D01*
X89686534Y-121267939D01*
X89400151Y-121204819D01*
X89112039Y-121108870D01*
X88842214Y-120986732D01*
X88610696Y-120845044D01*
X88458815Y-120734842D01*
X88646400Y-120607455D01*
X88662525Y-120596343D01*
X88765496Y-120521367D01*
X88897921Y-120420372D01*
X89044460Y-120305206D01*
X89189773Y-120187719D01*
X89205064Y-120175160D01*
X89360000Y-120048469D01*
X89521301Y-119917415D01*
X89670752Y-119796756D01*
X89790142Y-119701252D01*
X89842374Y-119659870D01*
X89937319Y-119586766D01*
X90000867Y-119545085D01*
X90045388Y-119529445D01*
X90083251Y-119534465D01*
G36*
X90083251Y-119534465D02*
G01*
X90126825Y-119554762D01*
X90171841Y-119581124D01*
X90203118Y-119617962D01*
X90215761Y-119678300D01*
X90217584Y-119781672D01*
X90216593Y-119849241D01*
X90212410Y-119998500D01*
X90205660Y-120174669D01*
X90196959Y-120366561D01*
X90186922Y-120562988D01*
X90176166Y-120752762D01*
X90165308Y-120924694D01*
X90154963Y-121067596D01*
X90145748Y-121170280D01*
X90138278Y-121221558D01*
X90132437Y-121238890D01*
X90106735Y-121272972D01*
X90054143Y-121288259D01*
X89956889Y-121291615D01*
X89951170Y-121291588D01*
X89686534Y-121267939D01*
X89400151Y-121204819D01*
X89112039Y-121108870D01*
X88842214Y-120986732D01*
X88610696Y-120845044D01*
X88458815Y-120734842D01*
X88646400Y-120607455D01*
X88662525Y-120596343D01*
X88765496Y-120521367D01*
X88897921Y-120420372D01*
X89044460Y-120305206D01*
X89189773Y-120187719D01*
X89205064Y-120175160D01*
X89360000Y-120048469D01*
X89521301Y-119917415D01*
X89670752Y-119796756D01*
X89790142Y-119701252D01*
X89842374Y-119659870D01*
X89937319Y-119586766D01*
X90000867Y-119545085D01*
X90045388Y-119529445D01*
X90083251Y-119534465D01*
G37*
X91348639Y-119483721D02*
X91520697Y-119487712D01*
X91763499Y-119495593D01*
X91995444Y-119505536D01*
X92203589Y-119516891D01*
X92374987Y-119529011D01*
X92496694Y-119541247D01*
X92817001Y-119583048D01*
X92797608Y-119709362D01*
X92734782Y-119953621D01*
X92611756Y-120213809D01*
X92438458Y-120456849D01*
X92221361Y-120673808D01*
X91966939Y-120855752D01*
X91903930Y-120893017D01*
X91810110Y-120945847D01*
X91754930Y-120970660D01*
X91728832Y-120971182D01*
X91722256Y-120951139D01*
X91722202Y-120950411D01*
X91700824Y-120912411D01*
X91644242Y-120833385D01*
X91557539Y-120719722D01*
X91445800Y-120577809D01*
X91314108Y-120414034D01*
X91167549Y-120234784D01*
X91011204Y-120046448D01*
X90850160Y-119855412D01*
X90520892Y-119467996D01*
X91348639Y-119483721D01*
G36*
X91348639Y-119483721D02*
G01*
X91520697Y-119487712D01*
X91763499Y-119495593D01*
X91995444Y-119505536D01*
X92203589Y-119516891D01*
X92374987Y-119529011D01*
X92496694Y-119541247D01*
X92817001Y-119583048D01*
X92797608Y-119709362D01*
X92734782Y-119953621D01*
X92611756Y-120213809D01*
X92438458Y-120456849D01*
X92221361Y-120673808D01*
X91966939Y-120855752D01*
X91903930Y-120893017D01*
X91810110Y-120945847D01*
X91754930Y-120970660D01*
X91728832Y-120971182D01*
X91722256Y-120951139D01*
X91722202Y-120950411D01*
X91700824Y-120912411D01*
X91644242Y-120833385D01*
X91557539Y-120719722D01*
X91445800Y-120577809D01*
X91314108Y-120414034D01*
X91167549Y-120234784D01*
X91011204Y-120046448D01*
X90850160Y-119855412D01*
X90520892Y-119467996D01*
X91348639Y-119483721D01*
G37*
X88735144Y-119356278D02*
X88962125Y-119368063D01*
X89240197Y-119387277D01*
X89309539Y-119392667D01*
X89493225Y-119409594D01*
X89631160Y-119426683D01*
X89717729Y-119443149D01*
X89747314Y-119458205D01*
X89734216Y-119478283D01*
X89680633Y-119531963D01*
X89595380Y-119607145D01*
X89488929Y-119694261D01*
X89446547Y-119727925D01*
X89291007Y-119852773D01*
X89126348Y-119986478D01*
X88981812Y-120105333D01*
X88925601Y-120151451D01*
X88788726Y-120260389D01*
X88654736Y-120363166D01*
X88545979Y-120442494D01*
X88537032Y-120448713D01*
X88444280Y-120510903D01*
X88372720Y-120554955D01*
X88337205Y-120571681D01*
X88301661Y-120548242D01*
X88244401Y-120483135D01*
X88176133Y-120389862D01*
X88106738Y-120281959D01*
X88046100Y-120172960D01*
X88032382Y-120144576D01*
X87971948Y-119992025D01*
X87920362Y-119820733D01*
X87884300Y-119655475D01*
X87870438Y-119521028D01*
X87870803Y-119491293D01*
X87879542Y-119452283D01*
X87910055Y-119427450D01*
X87975689Y-119408696D01*
X88089792Y-119387921D01*
X88115969Y-119383554D01*
X88249665Y-119365560D01*
X88390021Y-119355020D01*
X88548145Y-119351928D01*
X88735144Y-119356278D01*
G36*
X88735144Y-119356278D02*
G01*
X88962125Y-119368063D01*
X89240197Y-119387277D01*
X89309539Y-119392667D01*
X89493225Y-119409594D01*
X89631160Y-119426683D01*
X89717729Y-119443149D01*
X89747314Y-119458205D01*
X89734216Y-119478283D01*
X89680633Y-119531963D01*
X89595380Y-119607145D01*
X89488929Y-119694261D01*
X89446547Y-119727925D01*
X89291007Y-119852773D01*
X89126348Y-119986478D01*
X88981812Y-120105333D01*
X88925601Y-120151451D01*
X88788726Y-120260389D01*
X88654736Y-120363166D01*
X88545979Y-120442494D01*
X88537032Y-120448713D01*
X88444280Y-120510903D01*
X88372720Y-120554955D01*
X88337205Y-120571681D01*
X88301661Y-120548242D01*
X88244401Y-120483135D01*
X88176133Y-120389862D01*
X88106738Y-120281959D01*
X88046100Y-120172960D01*
X88032382Y-120144576D01*
X87971948Y-119992025D01*
X87920362Y-119820733D01*
X87884300Y-119655475D01*
X87870438Y-119521028D01*
X87870803Y-119491293D01*
X87879542Y-119452283D01*
X87910055Y-119427450D01*
X87975689Y-119408696D01*
X88089792Y-119387921D01*
X88115969Y-119383554D01*
X88249665Y-119365560D01*
X88390021Y-119355020D01*
X88548145Y-119351928D01*
X88735144Y-119356278D01*
G37*
X92172668Y-118163568D02*
X92240100Y-118229611D01*
X92334939Y-118340177D01*
X92414198Y-118440853D01*
X92592064Y-118716669D01*
X92722472Y-119000579D01*
X92799087Y-119279758D01*
X92802268Y-119299556D01*
X92803111Y-119347680D01*
X92782138Y-119374363D01*
X92729475Y-119381761D01*
X92635247Y-119372029D01*
X92489580Y-119347323D01*
X92486669Y-119346814D01*
X92402700Y-119337147D01*
X92266880Y-119327050D01*
X92089426Y-119317039D01*
X91880556Y-119307632D01*
X91650489Y-119299345D01*
X91409440Y-119292695D01*
X91210116Y-119287957D01*
X90992475Y-119282216D01*
X90825529Y-119276622D01*
X90702445Y-119270563D01*
X90616386Y-119263428D01*
X90560518Y-119254607D01*
X90528006Y-119243488D01*
X90512015Y-119229460D01*
X90505710Y-119211913D01*
X90514868Y-119158351D01*
X90567970Y-119093080D01*
X90623791Y-119050069D01*
X90795127Y-118929047D01*
X91010056Y-118789044D01*
X91259490Y-118635871D01*
X91534340Y-118475338D01*
X91641399Y-118413850D01*
X91786344Y-118329151D01*
X91907617Y-118256570D01*
X91994909Y-118202304D01*
X92037916Y-118172551D01*
X92079802Y-118142350D01*
X92122588Y-118136373D01*
X92172668Y-118163568D01*
G36*
X92172668Y-118163568D02*
G01*
X92240100Y-118229611D01*
X92334939Y-118340177D01*
X92414198Y-118440853D01*
X92592064Y-118716669D01*
X92722472Y-119000579D01*
X92799087Y-119279758D01*
X92802268Y-119299556D01*
X92803111Y-119347680D01*
X92782138Y-119374363D01*
X92729475Y-119381761D01*
X92635247Y-119372029D01*
X92489580Y-119347323D01*
X92486669Y-119346814D01*
X92402700Y-119337147D01*
X92266880Y-119327050D01*
X92089426Y-119317039D01*
X91880556Y-119307632D01*
X91650489Y-119299345D01*
X91409440Y-119292695D01*
X91210116Y-119287957D01*
X90992475Y-119282216D01*
X90825529Y-119276622D01*
X90702445Y-119270563D01*
X90616386Y-119263428D01*
X90560518Y-119254607D01*
X90528006Y-119243488D01*
X90512015Y-119229460D01*
X90505710Y-119211913D01*
X90514868Y-119158351D01*
X90567970Y-119093080D01*
X90623791Y-119050069D01*
X90795127Y-118929047D01*
X91010056Y-118789044D01*
X91259490Y-118635871D01*
X91534340Y-118475338D01*
X91641399Y-118413850D01*
X91786344Y-118329151D01*
X91907617Y-118256570D01*
X91994909Y-118202304D01*
X92037916Y-118172551D01*
X92079802Y-118142350D01*
X92122588Y-118136373D01*
X92172668Y-118163568D01*
G37*
X88722744Y-117909003D02*
X88767025Y-117938332D01*
X88829427Y-117990653D01*
X88914992Y-118070414D01*
X89028763Y-118182063D01*
X89175780Y-118330049D01*
X89361085Y-118518821D01*
X89465935Y-118626490D01*
X89651879Y-118820801D01*
X89797400Y-118978025D01*
X89901199Y-119096702D01*
X89961978Y-119175373D01*
X89978436Y-119212577D01*
X89944632Y-119242229D01*
X89862950Y-119242143D01*
X89783613Y-119231096D01*
X89611044Y-119213638D01*
X89407786Y-119199237D01*
X89184189Y-119188047D01*
X88950606Y-119180226D01*
X88717390Y-119175929D01*
X88494892Y-119175313D01*
X88293464Y-119178535D01*
X88123460Y-119185751D01*
X87995231Y-119197116D01*
X87919129Y-119212788D01*
X87909188Y-119213889D01*
X87895169Y-119182650D01*
X87901753Y-119108517D01*
X87926080Y-119002528D01*
X87965290Y-118875723D01*
X88016522Y-118739139D01*
X88076917Y-118603815D01*
X88078360Y-118600880D01*
X88150339Y-118476767D01*
X88247987Y-118337424D01*
X88359736Y-118196647D01*
X88474020Y-118068231D01*
X88579271Y-117965972D01*
X88663924Y-117903668D01*
X88668382Y-117901522D01*
X88691544Y-117898216D01*
X88722744Y-117909003D01*
G36*
X88722744Y-117909003D02*
G01*
X88767025Y-117938332D01*
X88829427Y-117990653D01*
X88914992Y-118070414D01*
X89028763Y-118182063D01*
X89175780Y-118330049D01*
X89361085Y-118518821D01*
X89465935Y-118626490D01*
X89651879Y-118820801D01*
X89797400Y-118978025D01*
X89901199Y-119096702D01*
X89961978Y-119175373D01*
X89978436Y-119212577D01*
X89944632Y-119242229D01*
X89862950Y-119242143D01*
X89783613Y-119231096D01*
X89611044Y-119213638D01*
X89407786Y-119199237D01*
X89184189Y-119188047D01*
X88950606Y-119180226D01*
X88717390Y-119175929D01*
X88494892Y-119175313D01*
X88293464Y-119178535D01*
X88123460Y-119185751D01*
X87995231Y-119197116D01*
X87919129Y-119212788D01*
X87909188Y-119213889D01*
X87895169Y-119182650D01*
X87901753Y-119108517D01*
X87926080Y-119002528D01*
X87965290Y-118875723D01*
X88016522Y-118739139D01*
X88076917Y-118603815D01*
X88078360Y-118600880D01*
X88150339Y-118476767D01*
X88247987Y-118337424D01*
X88359736Y-118196647D01*
X88474020Y-118068231D01*
X88579271Y-117965972D01*
X88663924Y-117903668D01*
X88668382Y-117901522D01*
X88691544Y-117898216D01*
X88722744Y-117909003D01*
G37*
X90139539Y-117524773D02*
X90223048Y-117527902D01*
X90257895Y-117533704D01*
X90260704Y-117560137D01*
X90259364Y-117638007D01*
X90253449Y-117753701D01*
X90243492Y-117893876D01*
X90237289Y-117990552D01*
X90230406Y-118196377D01*
X90229516Y-118412780D01*
X90235016Y-118606335D01*
X90240709Y-118746328D01*
X90242738Y-118872579D01*
X90240704Y-118963562D01*
X90234621Y-119005657D01*
X90199488Y-119034031D01*
X90145582Y-119022026D01*
X90068632Y-118964045D01*
X89962894Y-118856947D01*
X89961326Y-118855243D01*
X89885564Y-118774501D01*
X89776236Y-118660013D01*
X89643491Y-118522307D01*
X89497479Y-118371915D01*
X89348349Y-118219367D01*
X88899425Y-117761874D01*
X89065896Y-117696054D01*
X89320928Y-117610100D01*
X89610626Y-117550936D01*
X89929133Y-117526366D01*
X90021297Y-117524628D01*
X90139539Y-117524773D01*
G36*
X90139539Y-117524773D02*
G01*
X90223048Y-117527902D01*
X90257895Y-117533704D01*
X90260704Y-117560137D01*
X90259364Y-117638007D01*
X90253449Y-117753701D01*
X90243492Y-117893876D01*
X90237289Y-117990552D01*
X90230406Y-118196377D01*
X90229516Y-118412780D01*
X90235016Y-118606335D01*
X90240709Y-118746328D01*
X90242738Y-118872579D01*
X90240704Y-118963562D01*
X90234621Y-119005657D01*
X90199488Y-119034031D01*
X90145582Y-119022026D01*
X90068632Y-118964045D01*
X89962894Y-118856947D01*
X89961326Y-118855243D01*
X89885564Y-118774501D01*
X89776236Y-118660013D01*
X89643491Y-118522307D01*
X89497479Y-118371915D01*
X89348349Y-118219367D01*
X88899425Y-117761874D01*
X89065896Y-117696054D01*
X89320928Y-117610100D01*
X89610626Y-117550936D01*
X89929133Y-117526366D01*
X90021297Y-117524628D01*
X90139539Y-117524773D01*
G37*
X90557195Y-117547790D02*
X90660291Y-117567288D01*
X90789023Y-117596340D01*
X90929795Y-117631619D01*
X91069008Y-117669803D01*
X91193062Y-117707566D01*
X91288359Y-117741585D01*
X91329411Y-117758506D01*
X91477287Y-117823071D01*
X91616809Y-117888952D01*
X91735580Y-117949872D01*
X91821202Y-117999553D01*
X91861279Y-118031716D01*
X91859610Y-118041040D01*
X91820598Y-118078299D01*
X91742420Y-118131993D01*
X91636495Y-118193884D01*
X91570580Y-118230135D01*
X91378252Y-118338902D01*
X91181554Y-118453920D01*
X90992366Y-118567956D01*
X90822569Y-118673778D01*
X90684044Y-118764151D01*
X90588672Y-118831841D01*
X90532937Y-118872210D01*
X90466017Y-118912235D01*
X90430332Y-118922027D01*
X90418317Y-118884153D01*
X90410817Y-118795063D01*
X90407439Y-118666007D01*
X90407776Y-118508228D01*
X90411422Y-118332971D01*
X90417972Y-118151477D01*
X90427020Y-117974991D01*
X90438159Y-117814757D01*
X90450985Y-117682016D01*
X90465091Y-117588014D01*
X90480072Y-117543993D01*
X90493336Y-117541168D01*
X90557195Y-117547790D01*
G36*
X90557195Y-117547790D02*
G01*
X90660291Y-117567288D01*
X90789023Y-117596340D01*
X90929795Y-117631619D01*
X91069008Y-117669803D01*
X91193062Y-117707566D01*
X91288359Y-117741585D01*
X91329411Y-117758506D01*
X91477287Y-117823071D01*
X91616809Y-117888952D01*
X91735580Y-117949872D01*
X91821202Y-117999553D01*
X91861279Y-118031716D01*
X91859610Y-118041040D01*
X91820598Y-118078299D01*
X91742420Y-118131993D01*
X91636495Y-118193884D01*
X91570580Y-118230135D01*
X91378252Y-118338902D01*
X91181554Y-118453920D01*
X90992366Y-118567956D01*
X90822569Y-118673778D01*
X90684044Y-118764151D01*
X90588672Y-118831841D01*
X90532937Y-118872210D01*
X90466017Y-118912235D01*
X90430332Y-118922027D01*
X90418317Y-118884153D01*
X90410817Y-118795063D01*
X90407439Y-118666007D01*
X90407776Y-118508228D01*
X90411422Y-118332971D01*
X90417972Y-118151477D01*
X90427020Y-117974991D01*
X90438159Y-117814757D01*
X90450985Y-117682016D01*
X90465091Y-117588014D01*
X90480072Y-117543993D01*
X90493336Y-117541168D01*
X90557195Y-117547790D01*
G37*
D11*
G36*
X90652787Y-111176910D02*
G01*
X90748386Y-111253861D01*
X90819130Y-111321531D01*
X90852072Y-111371492D01*
X90881608Y-111457748D01*
X90895393Y-111504757D01*
X90936241Y-111535673D01*
X91021337Y-111553272D01*
X91025953Y-111553900D01*
X91136174Y-111579408D01*
X91176429Y-111599913D01*
X91233127Y-111628794D01*
X91331782Y-111712120D01*
X91447106Y-111839446D01*
X91480407Y-111880079D01*
X91555729Y-111977279D01*
X91637191Y-112087503D01*
X91715948Y-112198199D01*
X91783154Y-112296817D01*
X91829964Y-112370807D01*
X91847533Y-112407617D01*
X91835514Y-112418821D01*
X91784895Y-112437723D01*
X91757305Y-112448249D01*
X91725293Y-112491866D01*
X91746492Y-112553064D01*
X91819346Y-112623457D01*
X91874729Y-112671148D01*
X91942569Y-112758127D01*
X92001946Y-112876822D01*
X92057669Y-113037445D01*
X92114548Y-113250209D01*
X92158226Y-113446757D01*
X92211936Y-113814530D01*
X92219143Y-113863880D01*
X92230041Y-114260013D01*
X92191512Y-114645895D01*
X92169065Y-114775091D01*
X92137644Y-114937773D01*
X92106907Y-115079815D01*
X92081119Y-115180559D01*
X92054888Y-115282553D01*
X92052245Y-115317859D01*
X92048709Y-115365091D01*
X92066379Y-115434364D01*
X92075721Y-115463688D01*
X92090735Y-115562721D01*
X92091989Y-115660118D01*
X92092161Y-115673453D01*
X92082429Y-115826799D01*
X91926562Y-115836634D01*
X91777934Y-115829099D01*
X91632016Y-115777210D01*
X91554147Y-115742043D01*
X91489029Y-115727758D01*
X91443370Y-115743605D01*
X91430653Y-115752474D01*
X91325991Y-115815523D01*
X91200279Y-115878769D01*
X91066272Y-115937331D01*
X90936723Y-115986330D01*
X90824388Y-116020884D01*
X90742021Y-116036113D01*
X90702376Y-116027138D01*
X90695042Y-116018983D01*
X90640274Y-116001064D01*
X90568839Y-116004757D01*
X90514081Y-116029622D01*
X90488252Y-116044029D01*
X90412636Y-116068248D01*
X90312071Y-116090068D01*
X90084987Y-116109192D01*
X89839751Y-116078747D01*
X89595277Y-115991705D01*
X89343436Y-115846019D01*
X89243442Y-115777981D01*
X89098733Y-115679506D01*
X88969261Y-115591388D01*
X88854386Y-115505448D01*
X88760566Y-115420672D01*
X90965965Y-115420672D01*
X90979297Y-115454450D01*
X91041060Y-115518023D01*
X91109239Y-115573633D01*
X91194507Y-115630915D01*
X91261389Y-115662593D01*
X91295646Y-115660688D01*
X91295938Y-115660118D01*
X91278937Y-115629106D01*
X91223326Y-115573381D01*
X91140683Y-115504603D01*
X91055881Y-115446371D01*
X90993886Y-115417657D01*
X90965965Y-115420672D01*
X88760566Y-115420672D01*
X88671605Y-115340287D01*
X88496310Y-115150719D01*
X88340112Y-114950811D01*
X88214622Y-114754632D01*
X88131449Y-114576249D01*
X88120305Y-114547314D01*
X88100154Y-114508189D01*
X89820191Y-114508189D01*
X89824634Y-114530309D01*
X89866735Y-114587662D01*
X89941478Y-114670192D01*
X90040258Y-114769577D01*
X90154470Y-114877494D01*
X90275511Y-114985623D01*
X90394777Y-115085642D01*
X90503663Y-115169229D01*
X90535838Y-115192244D01*
X90664200Y-115279430D01*
X90750435Y-115328054D01*
X90798842Y-115340177D01*
X90813721Y-115317859D01*
X90813518Y-115316677D01*
X90785059Y-115287086D01*
X90717893Y-115235835D01*
X90625487Y-115173268D01*
X90533207Y-115107211D01*
X90408431Y-115007561D01*
X90271575Y-114890521D01*
X90139203Y-114769834D01*
X90115140Y-114747191D01*
X90005681Y-114647611D01*
X89914038Y-114569665D01*
X89849209Y-114520731D01*
X89820191Y-114508189D01*
X88100154Y-114508189D01*
X88079650Y-114468378D01*
X88041068Y-114424295D01*
X88019603Y-114406893D01*
X87995252Y-114352711D01*
X87995176Y-114351208D01*
X87979786Y-114303286D01*
X87941462Y-114213026D01*
X87885711Y-114092791D01*
X87818043Y-113954945D01*
X87747958Y-113811891D01*
X87682953Y-113671719D01*
X87632528Y-113555028D01*
X87603877Y-113477847D01*
X87601361Y-113469647D01*
X87556223Y-113375656D01*
X87498782Y-113321468D01*
X87458774Y-113293160D01*
X87448927Y-113243170D01*
X87473569Y-113161912D01*
X87483966Y-113054231D01*
X87471626Y-112922840D01*
X87436103Y-112750589D01*
X87424045Y-112699275D01*
X87395037Y-112569786D01*
X87372980Y-112462743D01*
X87361903Y-112397329D01*
X87343253Y-112341703D01*
X87282737Y-112309022D01*
X87225624Y-112289389D01*
X87218734Y-112257270D01*
X87271193Y-112226251D01*
X87296795Y-112213064D01*
X87313938Y-112184230D01*
X87322863Y-112128388D01*
X87325400Y-112033680D01*
X87323381Y-111888251D01*
X87322526Y-111849015D01*
X87318401Y-111717672D01*
X87311420Y-111634239D01*
X87298833Y-111586801D01*
X87283752Y-111569976D01*
X87807622Y-111569976D01*
X87824980Y-111654394D01*
X87873607Y-111781795D01*
X87948615Y-111943297D01*
X88045115Y-112130342D01*
X88158217Y-112334375D01*
X88283033Y-112546838D01*
X88414675Y-112759174D01*
X88548253Y-112962827D01*
X88678879Y-113149240D01*
X88801665Y-113309856D01*
X88879814Y-113406613D01*
X88978260Y-113528780D01*
X89072966Y-113646539D01*
X89144484Y-113732549D01*
X89220292Y-113811716D01*
X89264834Y-113838794D01*
X89279025Y-113814530D01*
X89277743Y-113810715D01*
X89249999Y-113768367D01*
X89191540Y-113689748D01*
X89109669Y-113584481D01*
X89011685Y-113462187D01*
X88863340Y-113274061D01*
X88613869Y-112932312D01*
X88385644Y-112587362D01*
X88187837Y-112253387D01*
X88029617Y-111944559D01*
X87998590Y-111877854D01*
X87925653Y-111722887D01*
X87873772Y-111617163D01*
X87865274Y-111601718D01*
X90138108Y-111601718D01*
X90159583Y-111665294D01*
X90181382Y-111688391D01*
X90229064Y-111704364D01*
X90281234Y-111661723D01*
X90305683Y-111599913D01*
X90284063Y-111544112D01*
X90223261Y-111520387D01*
X90163162Y-111544889D01*
X90138108Y-111601718D01*
X87865274Y-111601718D01*
X87839486Y-111554846D01*
X87819339Y-111530099D01*
X87809870Y-111537088D01*
X87807622Y-111569976D01*
X87283752Y-111569976D01*
X87277892Y-111563439D01*
X87245845Y-111552239D01*
X87222964Y-111545979D01*
X87203269Y-111530893D01*
X87210237Y-111500307D01*
X87247954Y-111443029D01*
X87320511Y-111347870D01*
X87344332Y-111317366D01*
X87429487Y-111214413D01*
X87485433Y-111160209D01*
X87516111Y-111151636D01*
X87525462Y-111185573D01*
X87532738Y-111211896D01*
X87577390Y-111251738D01*
X87616036Y-111245896D01*
X87682259Y-111203645D01*
X87752791Y-111144126D01*
X88230147Y-111144126D01*
X88244382Y-111201361D01*
X88294500Y-111232515D01*
X88366336Y-111211231D01*
X88387651Y-111191884D01*
X88400829Y-111137405D01*
X88400422Y-111136725D01*
X89065860Y-111136725D01*
X89066132Y-111137405D01*
X89089110Y-111194953D01*
X89139738Y-111233042D01*
X89195752Y-111235014D01*
X89235858Y-111193730D01*
X89245589Y-111135282D01*
X89214019Y-111073992D01*
X89137312Y-111050596D01*
X89102040Y-111052416D01*
X89067068Y-111074278D01*
X89065860Y-111136725D01*
X88400422Y-111136725D01*
X88371204Y-111087872D01*
X88308017Y-111066256D01*
X88294689Y-111066542D01*
X88243277Y-111084713D01*
X88230147Y-111144126D01*
X87752791Y-111144126D01*
X87780043Y-111121129D01*
X87914073Y-110994772D01*
X87922033Y-110987038D01*
X88094974Y-110823288D01*
X88235004Y-110702499D01*
X88350267Y-110620781D01*
X88448910Y-110574246D01*
X88539081Y-110559002D01*
X88628926Y-110571162D01*
X88726590Y-110606834D01*
X88761681Y-110621631D01*
X88850657Y-110647255D01*
X88898505Y-110635926D01*
X88899550Y-110634976D01*
X88948140Y-110619222D01*
X89039425Y-110608388D01*
X89154532Y-110604771D01*
X89262620Y-110612720D01*
X89425879Y-110640425D01*
X89606628Y-110683437D01*
X89788957Y-110736997D01*
X89956955Y-110796348D01*
X90094713Y-110856729D01*
X90186320Y-110913382D01*
X90195636Y-110920949D01*
X90272479Y-110968515D01*
X90337792Y-110987958D01*
X90370987Y-110997188D01*
X90448675Y-111037893D01*
X90547746Y-111101360D01*
X90594909Y-111135282D01*
X90652787Y-111176910D01*
G37*
D13*
X84324362Y-110812327D02*
X84331264Y-110815786D01*
X84414728Y-110849404D01*
X84528997Y-110886394D01*
X84659003Y-110922988D01*
X84789677Y-110955417D01*
X84905948Y-110979914D01*
X84992747Y-110992709D01*
X85035004Y-110990034D01*
X85044028Y-110985615D01*
X85105922Y-110971391D01*
X85207858Y-110957050D01*
X85333107Y-110945112D01*
X85362835Y-110942806D01*
X85503740Y-110930325D01*
X85631077Y-110916822D01*
X85720377Y-110904842D01*
X85740714Y-110901509D01*
X85805699Y-110894571D01*
X85824469Y-110906935D01*
X85809568Y-110944125D01*
X85796199Y-110965492D01*
X85731855Y-111043690D01*
X85639619Y-111138712D01*
X85535680Y-111235247D01*
X85436231Y-111317986D01*
X85357462Y-111371620D01*
X85326443Y-111388079D01*
X85256505Y-111419487D01*
X85217241Y-111420737D01*
X85191576Y-111394148D01*
X85190786Y-111392985D01*
X85147014Y-111376487D01*
X85072280Y-111380205D01*
X85031641Y-111383520D01*
X84913821Y-111371072D01*
X84769358Y-111334607D01*
X84691947Y-111309061D01*
X84612667Y-111274476D01*
X84549244Y-111228387D01*
X84484524Y-111157451D01*
X84401356Y-111048322D01*
X84368905Y-111003860D01*
X84301341Y-110906964D01*
X84254471Y-110833452D01*
X84236929Y-110796543D01*
X84237158Y-110794529D01*
X84264754Y-110789450D01*
X84324362Y-110812327D01*
G36*
X84324362Y-110812327D02*
G01*
X84331264Y-110815786D01*
X84414728Y-110849404D01*
X84528997Y-110886394D01*
X84659003Y-110922988D01*
X84789677Y-110955417D01*
X84905948Y-110979914D01*
X84992747Y-110992709D01*
X85035004Y-110990034D01*
X85044028Y-110985615D01*
X85105922Y-110971391D01*
X85207858Y-110957050D01*
X85333107Y-110945112D01*
X85362835Y-110942806D01*
X85503740Y-110930325D01*
X85631077Y-110916822D01*
X85720377Y-110904842D01*
X85740714Y-110901509D01*
X85805699Y-110894571D01*
X85824469Y-110906935D01*
X85809568Y-110944125D01*
X85796199Y-110965492D01*
X85731855Y-111043690D01*
X85639619Y-111138712D01*
X85535680Y-111235247D01*
X85436231Y-111317986D01*
X85357462Y-111371620D01*
X85326443Y-111388079D01*
X85256505Y-111419487D01*
X85217241Y-111420737D01*
X85191576Y-111394148D01*
X85190786Y-111392985D01*
X85147014Y-111376487D01*
X85072280Y-111380205D01*
X85031641Y-111383520D01*
X84913821Y-111371072D01*
X84769358Y-111334607D01*
X84691947Y-111309061D01*
X84612667Y-111274476D01*
X84549244Y-111228387D01*
X84484524Y-111157451D01*
X84401356Y-111048322D01*
X84368905Y-111003860D01*
X84301341Y-110906964D01*
X84254471Y-110833452D01*
X84236929Y-110796543D01*
X84237158Y-110794529D01*
X84264754Y-110789450D01*
X84324362Y-110812327D01*
G37*
X84797981Y-110361741D02*
X84945753Y-110367768D01*
X85045183Y-110383610D01*
X85107709Y-110410891D01*
X85164581Y-110440113D01*
X85216466Y-110445797D01*
X85241231Y-110446459D01*
X85312868Y-110471555D01*
X85409145Y-110518993D01*
X85513603Y-110580344D01*
X85609778Y-110647180D01*
X85682874Y-110703571D01*
X85609778Y-110719862D01*
X85609202Y-110719991D01*
X85525481Y-110734750D01*
X85427065Y-110747426D01*
X85385285Y-110751379D01*
X85183064Y-110762190D01*
X84983053Y-110760914D01*
X84805111Y-110748153D01*
X84669098Y-110724506D01*
X84625580Y-110712493D01*
X84487469Y-110668569D01*
X84373778Y-110623840D01*
X84296656Y-110583510D01*
X84268249Y-110552784D01*
X84271831Y-110543104D01*
X84309768Y-110499695D01*
X84375777Y-110443586D01*
X84407740Y-110420266D01*
X84464079Y-110388911D01*
X84529792Y-110371199D01*
X84622618Y-110363347D01*
X84760300Y-110361570D01*
X84797981Y-110361741D01*
G36*
X84797981Y-110361741D02*
G01*
X84945753Y-110367768D01*
X85045183Y-110383610D01*
X85107709Y-110410891D01*
X85164581Y-110440113D01*
X85216466Y-110445797D01*
X85241231Y-110446459D01*
X85312868Y-110471555D01*
X85409145Y-110518993D01*
X85513603Y-110580344D01*
X85609778Y-110647180D01*
X85682874Y-110703571D01*
X85609778Y-110719862D01*
X85609202Y-110719991D01*
X85525481Y-110734750D01*
X85427065Y-110747426D01*
X85385285Y-110751379D01*
X85183064Y-110762190D01*
X84983053Y-110760914D01*
X84805111Y-110748153D01*
X84669098Y-110724506D01*
X84625580Y-110712493D01*
X84487469Y-110668569D01*
X84373778Y-110623840D01*
X84296656Y-110583510D01*
X84268249Y-110552784D01*
X84271831Y-110543104D01*
X84309768Y-110499695D01*
X84375777Y-110443586D01*
X84407740Y-110420266D01*
X84464079Y-110388911D01*
X84529792Y-110371199D01*
X84622618Y-110363347D01*
X84760300Y-110361570D01*
X84797981Y-110361741D01*
G37*
%TD*%
D14*
%TO.C,J3*%
X83460000Y-75970000D03*
D15*
X83460000Y-78510000D03*
X83460000Y-81050000D03*
X83460000Y-83590000D03*
X83460000Y-86130000D03*
X83460000Y-88670000D03*
X83460000Y-91210000D03*
X83460000Y-93750000D03*
X83460000Y-96290000D03*
X83460000Y-98830000D03*
X83460000Y-101370000D03*
X83460000Y-103910000D03*
X83460000Y-106450000D03*
X83460000Y-108990000D03*
X83460000Y-111530000D03*
X83460000Y-114070000D03*
X83460000Y-116610000D03*
X83460000Y-119150000D03*
X83460000Y-121690000D03*
X83460000Y-124230000D03*
%TD*%
D14*
%TO.C,J2*%
X89810000Y-123990000D03*
D15*
X92350000Y-123990000D03*
X94890000Y-123990000D03*
%TD*%
D16*
%TO.C,J1*%
X95240000Y-79562000D03*
X89460000Y-79562000D03*
D17*
X96670000Y-80092000D03*
D18*
X96670000Y-75912000D03*
D17*
X88030000Y-80092000D03*
D18*
X88030000Y-75912000D03*
%TD*%
D14*
%TO.C,J4*%
X101240000Y-75970000D03*
D15*
X101240000Y-78510000D03*
X101240000Y-81050000D03*
X101240000Y-83590000D03*
X101240000Y-86130000D03*
X101240000Y-88670000D03*
X101240000Y-91210000D03*
X101240000Y-93750000D03*
X101240000Y-96290000D03*
X101240000Y-98830000D03*
X101240000Y-101370000D03*
X101240000Y-103910000D03*
X101240000Y-106450000D03*
X101240000Y-108990000D03*
X101240000Y-111530000D03*
X101240000Y-114070000D03*
X101240000Y-116610000D03*
X101240000Y-119150000D03*
X101240000Y-121690000D03*
X101240000Y-124230000D03*
%TD*%
M02*
