%TF.GenerationSoftware,KiCad,Pcbnew,9.0.1*%
%TF.CreationDate,2026-01-20T01:34:41+00:00*%
%TF.ProjectId,heidi-pico,68656964-692d-4706-9963-6f2e6b696361,rev?*%
%TF.SameCoordinates,Original*%
%TF.FileFunction,Soldermask,Top*%
%TF.FilePolarity,Negative*%
%FSLAX46Y46*%
G04 Gerber Fmt 4.6, Leading zero omitted, Abs format (unit mm)*
G04 Created by KiCad (PCBNEW 9.0.1) date 2026-01-20 01:34:41*
%MOMM*%
%LPD*%
G01*
G04 APERTURE LIST*
G04 Aperture macros list*
%AMRoundRect*
0 Rectangle with rounded corners*
0 $1 Rounding radius*
0 $2 $3 $4 $5 $6 $7 $8 $9 X,Y pos of 4 corners*
0 Add a 4 corners polygon primitive as box body*
4,1,4,$2,$3,$4,$5,$6,$7,$8,$9,$2,$3,0*
0 Add four circle primitives for the rounded corners*
1,1,$1+$1,$2,$3*
1,1,$1+$1,$4,$5*
1,1,$1+$1,$6,$7*
1,1,$1+$1,$8,$9*
0 Add four rect primitives between the rounded corners*
20,1,$1+$1,$2,$3,$4,$5,0*
20,1,$1+$1,$4,$5,$6,$7,0*
20,1,$1+$1,$6,$7,$8,$9,0*
20,1,$1+$1,$8,$9,$2,$3,0*%
G04 Aperture macros list end*
%ADD10RoundRect,0.062500X-0.387500X-0.062500X0.387500X-0.062500X0.387500X0.062500X-0.387500X0.062500X0*%
%ADD11R,0.200000X1.600000*%
%ADD12RoundRect,0.140000X-0.140000X-0.170000X0.140000X-0.170000X0.140000X0.170000X-0.140000X0.170000X0*%
%ADD13R,1.700000X1.700000*%
%ADD14C,1.700000*%
%ADD15RoundRect,0.135000X-0.185000X0.135000X-0.185000X-0.135000X0.185000X-0.135000X0.185000X0.135000X0*%
%ADD16RoundRect,0.218750X-0.218750X-0.256250X0.218750X-0.256250X0.218750X0.256250X-0.218750X0.256250X0*%
%ADD17RoundRect,0.100000X0.100000X-0.712500X0.100000X0.712500X-0.100000X0.712500X-0.100000X-0.712500X0*%
%ADD18RoundRect,0.150000X0.150000X-0.587500X0.150000X0.587500X-0.150000X0.587500X-0.150000X-0.587500X0*%
%ADD19RoundRect,0.140000X0.170000X-0.140000X0.170000X0.140000X-0.170000X0.140000X-0.170000X-0.140000X0*%
%ADD20RoundRect,0.140000X-0.170000X0.140000X-0.170000X-0.140000X0.170000X-0.140000X0.170000X0.140000X0*%
%ADD21C,0.650000*%
%ADD22R,0.600000X1.450000*%
%ADD23R,0.300000X1.450000*%
%ADD24O,1.000000X2.100000*%
%ADD25O,1.000000X1.600000*%
%ADD26RoundRect,0.100000X-1.050000X0.525000X-1.050000X-0.525000X1.050000X-0.525000X1.050000X0.525000X0*%
%ADD27RoundRect,0.050000X-0.387500X-0.050000X0.387500X-0.050000X0.387500X0.050000X-0.387500X0.050000X0*%
%ADD28RoundRect,0.050000X-0.050000X-0.387500X0.050000X-0.387500X0.050000X0.387500X-0.050000X0.387500X0*%
%ADD29R,3.200000X3.200000*%
%ADD30RoundRect,0.135000X0.135000X0.185000X-0.135000X0.185000X-0.135000X-0.185000X0.135000X-0.185000X0*%
%ADD31RoundRect,0.135000X-0.135000X-0.185000X0.135000X-0.185000X0.135000X0.185000X-0.135000X0.185000X0*%
%ADD32R,1.400000X1.200000*%
%ADD33RoundRect,0.200000X0.200000X0.275000X-0.200000X0.275000X-0.200000X-0.275000X0.200000X-0.275000X0*%
%ADD34RoundRect,0.225000X-0.225000X-0.250000X0.225000X-0.250000X0.225000X0.250000X-0.225000X0.250000X0*%
%ADD35RoundRect,0.140000X0.140000X0.170000X-0.140000X0.170000X-0.140000X-0.170000X0.140000X-0.170000X0*%
%ADD36RoundRect,0.225000X0.225000X0.250000X-0.225000X0.250000X-0.225000X-0.250000X0.225000X-0.250000X0*%
G04 APERTURE END LIST*
D10*
%TO.C,U3*%
X87825000Y-96250000D03*
X87825000Y-96750000D03*
X87825000Y-97250000D03*
X87825000Y-97750000D03*
X90675000Y-97750000D03*
X90675000Y-97250000D03*
X90675000Y-96750000D03*
X90675000Y-96250000D03*
D11*
X89250000Y-97000000D03*
%TD*%
D12*
%TO.C,C5*%
X93070000Y-95660000D03*
X94030000Y-95660000D03*
%TD*%
%TO.C,C10*%
X94450000Y-110750000D03*
X95410000Y-110750000D03*
%TD*%
D13*
%TO.C,J3*%
X83460000Y-75970000D03*
D14*
X83460000Y-78510000D03*
X83460000Y-81050000D03*
X83460000Y-83590000D03*
X83460000Y-86130000D03*
X83460000Y-88670000D03*
X83460000Y-91210000D03*
X83460000Y-93750000D03*
X83460000Y-96290000D03*
X83460000Y-98830000D03*
X83460000Y-101370000D03*
X83460000Y-103910000D03*
X83460000Y-106450000D03*
X83460000Y-108990000D03*
X83460000Y-111530000D03*
X83460000Y-114070000D03*
X83460000Y-116610000D03*
X83460000Y-119150000D03*
X83460000Y-121690000D03*
X83460000Y-124230000D03*
%TD*%
D15*
%TO.C,R6*%
X90960000Y-90360000D03*
X90960000Y-91380000D03*
%TD*%
D16*
%TO.C,D1*%
X94522500Y-85950000D03*
X96097500Y-85950000D03*
%TD*%
D17*
%TO.C,U4*%
X95905000Y-96252500D03*
X96555000Y-96252500D03*
X97205000Y-96252500D03*
X97855000Y-96252500D03*
X97855000Y-92027500D03*
X97205000Y-92027500D03*
X96555000Y-92027500D03*
X95905000Y-92027500D03*
%TD*%
D13*
%TO.C,J2*%
X89810000Y-123990000D03*
D14*
X92350000Y-123990000D03*
X94890000Y-123990000D03*
%TD*%
D18*
%TO.C,U2*%
X88960000Y-86967500D03*
X90860000Y-86967500D03*
X89910000Y-85092500D03*
%TD*%
D19*
%TO.C,C7*%
X97180000Y-101480000D03*
X97180000Y-100520000D03*
%TD*%
D12*
%TO.C,C8*%
X97920000Y-106080000D03*
X98880000Y-106080000D03*
%TD*%
D20*
%TO.C,C15*%
X94190000Y-111790000D03*
X94190000Y-112750000D03*
%TD*%
D21*
%TO.C,J1*%
X95240000Y-79562000D03*
X89460000Y-79562000D03*
D22*
X95600000Y-81007000D03*
X94800000Y-81007000D03*
D23*
X93600000Y-81007000D03*
X92600000Y-81007000D03*
X92100000Y-81007000D03*
X91100000Y-81007000D03*
D22*
X89900000Y-81007000D03*
X89100000Y-81007000D03*
X89100000Y-81007000D03*
X89900000Y-81007000D03*
D23*
X90600000Y-81007000D03*
X91600000Y-81007000D03*
X93100000Y-81007000D03*
X94100000Y-81007000D03*
D22*
X94800000Y-81007000D03*
X95600000Y-81007000D03*
D24*
X96670000Y-80092000D03*
D25*
X96670000Y-75912000D03*
D24*
X88030000Y-80092000D03*
D25*
X88030000Y-75912000D03*
%TD*%
D26*
%TO.C,SW1*%
X88720000Y-94955000D03*
X88720000Y-90205000D03*
%TD*%
D27*
%TO.C,U1*%
X88902500Y-102180000D03*
X88902500Y-102580000D03*
X88902500Y-102980000D03*
X88902500Y-103380000D03*
X88902500Y-103780000D03*
X88902500Y-104180000D03*
X88902500Y-104580000D03*
X88902500Y-104980000D03*
X88902500Y-105380000D03*
X88902500Y-105780000D03*
X88902500Y-106180000D03*
X88902500Y-106580000D03*
X88902500Y-106980000D03*
X88902500Y-107380000D03*
D28*
X89740000Y-108217500D03*
X90140000Y-108217500D03*
X90540000Y-108217500D03*
X90940000Y-108217500D03*
X91340000Y-108217500D03*
X91740000Y-108217500D03*
X92140000Y-108217500D03*
X92540000Y-108217500D03*
X92940000Y-108217500D03*
X93340000Y-108217500D03*
X93740000Y-108217500D03*
X94140000Y-108217500D03*
X94540000Y-108217500D03*
X94940000Y-108217500D03*
D27*
X95777500Y-107380000D03*
X95777500Y-106980000D03*
X95777500Y-106580000D03*
X95777500Y-106180000D03*
X95777500Y-105780000D03*
X95777500Y-105380000D03*
X95777500Y-104980000D03*
X95777500Y-104580000D03*
X95777500Y-104180000D03*
X95777500Y-103780000D03*
X95777500Y-103380000D03*
X95777500Y-102980000D03*
X95777500Y-102580000D03*
X95777500Y-102180000D03*
D28*
X94940000Y-101342500D03*
X94540000Y-101342500D03*
X94140000Y-101342500D03*
X93740000Y-101342500D03*
X93340000Y-101342500D03*
X92940000Y-101342500D03*
X92540000Y-101342500D03*
X92140000Y-101342500D03*
X91740000Y-101342500D03*
X91340000Y-101342500D03*
X90940000Y-101342500D03*
X90540000Y-101342500D03*
X90140000Y-101342500D03*
X89740000Y-101342500D03*
D29*
X92340000Y-104780000D03*
%TD*%
D30*
%TO.C,R5*%
X91880000Y-92990000D03*
X90860000Y-92990000D03*
%TD*%
D31*
%TO.C,R3*%
X93690000Y-82750000D03*
X94710000Y-82750000D03*
%TD*%
D12*
%TO.C,C9*%
X93070000Y-96710000D03*
X94030000Y-96710000D03*
%TD*%
D32*
%TO.C,Y1*%
X90450000Y-113120000D03*
X92650000Y-113120000D03*
X92650000Y-111420000D03*
X90450000Y-111420000D03*
%TD*%
D33*
%TO.C,R8*%
X96135000Y-84320000D03*
X94485000Y-84320000D03*
%TD*%
D19*
%TO.C,C1*%
X95150000Y-99920000D03*
X95150000Y-98960000D03*
%TD*%
D30*
%TO.C,R7*%
X93430000Y-109980000D03*
X92410000Y-109980000D03*
%TD*%
%TO.C,R4*%
X91710000Y-82840000D03*
X90690000Y-82840000D03*
%TD*%
D20*
%TO.C,C14*%
X88910000Y-111820000D03*
X88910000Y-112780000D03*
%TD*%
D13*
%TO.C,J4*%
X101240000Y-75970000D03*
D14*
X101240000Y-78510000D03*
X101240000Y-81050000D03*
X101240000Y-83590000D03*
X101240000Y-86130000D03*
X101240000Y-88670000D03*
X101240000Y-91210000D03*
X101240000Y-93750000D03*
X101240000Y-96290000D03*
X101240000Y-98830000D03*
X101240000Y-101370000D03*
X101240000Y-103910000D03*
X101240000Y-106450000D03*
X101240000Y-108990000D03*
X101240000Y-111530000D03*
X101240000Y-114070000D03*
X101240000Y-116610000D03*
X101240000Y-119150000D03*
X101240000Y-121690000D03*
X101240000Y-124230000D03*
%TD*%
D19*
%TO.C,C11*%
X96180000Y-100060000D03*
X96180000Y-99100000D03*
%TD*%
%TO.C,C2*%
X92050000Y-96620000D03*
X92050000Y-95660000D03*
%TD*%
%TO.C,C16*%
X90670000Y-95230000D03*
X90670000Y-94270000D03*
%TD*%
D34*
%TO.C,C13*%
X87295000Y-83100000D03*
X88845000Y-83100000D03*
%TD*%
D19*
%TO.C,C6*%
X97170000Y-99570000D03*
X97170000Y-98610000D03*
%TD*%
D35*
%TO.C,C3*%
X96340000Y-111750000D03*
X95380000Y-111750000D03*
%TD*%
D15*
%TO.C,R1*%
X92960000Y-98950000D03*
X92960000Y-99970000D03*
%TD*%
D36*
%TO.C,C12*%
X90660000Y-88780000D03*
X89110000Y-88780000D03*
%TD*%
D15*
%TO.C,R2*%
X94140000Y-98950000D03*
X94140000Y-99970000D03*
%TD*%
D19*
%TO.C,C4*%
X86000000Y-105740000D03*
X86000000Y-104780000D03*
%TD*%
M02*
