%TF.GenerationSoftware,KiCad,Pcbnew,9.0.1*%
%TF.CreationDate,2026-01-20T01:34:41+00:00*%
%TF.ProjectId,heidi-pico,68656964-692d-4706-9963-6f2e6b696361,rev?*%
%TF.SameCoordinates,Original*%
%TF.FileFunction,Copper,L1,Top*%
%TF.FilePolarity,Positive*%
%FSLAX46Y46*%
G04 Gerber Fmt 4.6, Leading zero omitted, Abs format (unit mm)*
G04 Created by KiCad (PCBNEW 9.0.1) date 2026-01-20 01:34:41*
%MOMM*%
%LPD*%
G01*
G04 APERTURE LIST*
G04 Aperture macros list*
%AMRoundRect*
0 Rectangle with rounded corners*
0 $1 Rounding radius*
0 $2 $3 $4 $5 $6 $7 $8 $9 X,Y pos of 4 corners*
0 Add a 4 corners polygon primitive as box body*
4,1,4,$2,$3,$4,$5,$6,$7,$8,$9,$2,$3,0*
0 Add four circle primitives for the rounded corners*
1,1,$1+$1,$2,$3*
1,1,$1+$1,$4,$5*
1,1,$1+$1,$6,$7*
1,1,$1+$1,$8,$9*
0 Add four rect primitives between the rounded corners*
20,1,$1+$1,$2,$3,$4,$5,0*
20,1,$1+$1,$4,$5,$6,$7,0*
20,1,$1+$1,$6,$7,$8,$9,0*
20,1,$1+$1,$8,$9,$2,$3,0*%
G04 Aperture macros list end*
%TA.AperFunction,SMDPad,CuDef*%
%ADD10RoundRect,0.062500X-0.387500X-0.062500X0.387500X-0.062500X0.387500X0.062500X-0.387500X0.062500X0*%
%TD*%
%TA.AperFunction,HeatsinkPad*%
%ADD11R,0.200000X1.600000*%
%TD*%
%TA.AperFunction,SMDPad,CuDef*%
%ADD12RoundRect,0.140000X-0.140000X-0.170000X0.140000X-0.170000X0.140000X0.170000X-0.140000X0.170000X0*%
%TD*%
%TA.AperFunction,ComponentPad*%
%ADD13R,1.700000X1.700000*%
%TD*%
%TA.AperFunction,ComponentPad*%
%ADD14C,1.700000*%
%TD*%
%TA.AperFunction,SMDPad,CuDef*%
%ADD15RoundRect,0.135000X-0.185000X0.135000X-0.185000X-0.135000X0.185000X-0.135000X0.185000X0.135000X0*%
%TD*%
%TA.AperFunction,SMDPad,CuDef*%
%ADD16RoundRect,0.218750X-0.218750X-0.256250X0.218750X-0.256250X0.218750X0.256250X-0.218750X0.256250X0*%
%TD*%
%TA.AperFunction,SMDPad,CuDef*%
%ADD17RoundRect,0.100000X0.100000X-0.712500X0.100000X0.712500X-0.100000X0.712500X-0.100000X-0.712500X0*%
%TD*%
%TA.AperFunction,SMDPad,CuDef*%
%ADD18RoundRect,0.150000X0.150000X-0.587500X0.150000X0.587500X-0.150000X0.587500X-0.150000X-0.587500X0*%
%TD*%
%TA.AperFunction,SMDPad,CuDef*%
%ADD19RoundRect,0.140000X0.170000X-0.140000X0.170000X0.140000X-0.170000X0.140000X-0.170000X-0.140000X0*%
%TD*%
%TA.AperFunction,SMDPad,CuDef*%
%ADD20RoundRect,0.140000X-0.170000X0.140000X-0.170000X-0.140000X0.170000X-0.140000X0.170000X0.140000X0*%
%TD*%
%TA.AperFunction,SMDPad,CuDef*%
%ADD21R,0.600000X1.450000*%
%TD*%
%TA.AperFunction,SMDPad,CuDef*%
%ADD22R,0.300000X1.450000*%
%TD*%
%TA.AperFunction,HeatsinkPad*%
%ADD23O,1.000000X2.100000*%
%TD*%
%TA.AperFunction,HeatsinkPad*%
%ADD24O,1.000000X1.600000*%
%TD*%
%TA.AperFunction,SMDPad,CuDef*%
%ADD25RoundRect,0.100000X-1.050000X0.525000X-1.050000X-0.525000X1.050000X-0.525000X1.050000X0.525000X0*%
%TD*%
%TA.AperFunction,SMDPad,CuDef*%
%ADD26RoundRect,0.050000X-0.387500X-0.050000X0.387500X-0.050000X0.387500X0.050000X-0.387500X0.050000X0*%
%TD*%
%TA.AperFunction,SMDPad,CuDef*%
%ADD27RoundRect,0.050000X-0.050000X-0.387500X0.050000X-0.387500X0.050000X0.387500X-0.050000X0.387500X0*%
%TD*%
%TA.AperFunction,HeatsinkPad*%
%ADD28R,3.200000X3.200000*%
%TD*%
%TA.AperFunction,SMDPad,CuDef*%
%ADD29RoundRect,0.135000X0.135000X0.185000X-0.135000X0.185000X-0.135000X-0.185000X0.135000X-0.185000X0*%
%TD*%
%TA.AperFunction,SMDPad,CuDef*%
%ADD30RoundRect,0.135000X-0.135000X-0.185000X0.135000X-0.185000X0.135000X0.185000X-0.135000X0.185000X0*%
%TD*%
%TA.AperFunction,SMDPad,CuDef*%
%ADD31R,1.400000X1.200000*%
%TD*%
%TA.AperFunction,SMDPad,CuDef*%
%ADD32RoundRect,0.200000X0.200000X0.275000X-0.200000X0.275000X-0.200000X-0.275000X0.200000X-0.275000X0*%
%TD*%
%TA.AperFunction,SMDPad,CuDef*%
%ADD33RoundRect,0.225000X-0.225000X-0.250000X0.225000X-0.250000X0.225000X0.250000X-0.225000X0.250000X0*%
%TD*%
%TA.AperFunction,SMDPad,CuDef*%
%ADD34RoundRect,0.140000X0.140000X0.170000X-0.140000X0.170000X-0.140000X-0.170000X0.140000X-0.170000X0*%
%TD*%
%TA.AperFunction,SMDPad,CuDef*%
%ADD35RoundRect,0.225000X0.225000X0.250000X-0.225000X0.250000X-0.225000X-0.250000X0.225000X-0.250000X0*%
%TD*%
%TA.AperFunction,ViaPad*%
%ADD36C,0.600000*%
%TD*%
%TA.AperFunction,Conductor*%
%ADD37C,0.175000*%
%TD*%
%TA.AperFunction,Conductor*%
%ADD38C,0.200000*%
%TD*%
%TA.AperFunction,Conductor*%
%ADD39C,0.400000*%
%TD*%
%TA.AperFunction,Conductor*%
%ADD40C,0.700000*%
%TD*%
G04 APERTURE END LIST*
D10*
%TO.P,U3,1,~{CS}*%
%TO.N,QSPI_SS*%
X87825000Y-96250000D03*
%TO.P,U3,2,DO/IO_{1}*%
%TO.N,QSPI_SD1*%
X87825000Y-96750000D03*
%TO.P,U3,3,~{WP}/IO_{2}*%
%TO.N,QSPI_SD2*%
X87825000Y-97250000D03*
%TO.P,U3,4,GND*%
%TO.N,GND*%
X87825000Y-97750000D03*
%TO.P,U3,5,DI/IO_{0}*%
%TO.N,QSPI_SD0*%
X90675000Y-97750000D03*
%TO.P,U3,6,CLK*%
%TO.N,QSPI_SCLK*%
X90675000Y-97250000D03*
%TO.P,U3,7,~{HOLD}/~{RESET}/IO_{3}*%
%TO.N,QSPI_SD3*%
X90675000Y-96750000D03*
%TO.P,U3,8,VCC*%
%TO.N,+3V3*%
X90675000Y-96250000D03*
D11*
%TO.P,U3,9*%
%TO.N,N/C*%
X89250000Y-97000000D03*
%TD*%
D12*
%TO.P,C5,1*%
%TO.N,+3V3*%
X93070000Y-95660000D03*
%TO.P,C5,2*%
%TO.N,GND*%
X94030000Y-95660000D03*
%TD*%
%TO.P,C10,1*%
%TO.N,+3V3*%
X94450000Y-110750000D03*
%TO.P,C10,2*%
%TO.N,GND*%
X95410000Y-110750000D03*
%TD*%
D13*
%TO.P,J3,1,Pin_1*%
%TO.N,GPIO0*%
X83460000Y-75970000D03*
D14*
%TO.P,J3,2,Pin_2*%
%TO.N,GPIO1*%
X83460000Y-78510000D03*
%TO.P,J3,3,Pin_3*%
%TO.N,GND*%
X83460000Y-81050000D03*
%TO.P,J3,4,Pin_4*%
%TO.N,GPIO2*%
X83460000Y-83590000D03*
%TO.P,J3,5,Pin_5*%
%TO.N,GPIO3*%
X83460000Y-86130000D03*
%TO.P,J3,6,Pin_6*%
%TO.N,GPIO4*%
X83460000Y-88670000D03*
%TO.P,J3,7,Pin_7*%
%TO.N,GPIO5*%
X83460000Y-91210000D03*
%TO.P,J3,8,Pin_8*%
%TO.N,GND*%
X83460000Y-93750000D03*
%TO.P,J3,9,Pin_9*%
%TO.N,GPIO6*%
X83460000Y-96290000D03*
%TO.P,J3,10,Pin_10*%
%TO.N,GPIO7*%
X83460000Y-98830000D03*
%TO.P,J3,11,Pin_11*%
%TO.N,GPIO8*%
X83460000Y-101370000D03*
%TO.P,J3,12,Pin_12*%
%TO.N,GPIO9*%
X83460000Y-103910000D03*
%TO.P,J3,13,Pin_13*%
%TO.N,GND*%
X83460000Y-106450000D03*
%TO.P,J3,14,Pin_14*%
%TO.N,GPIO10*%
X83460000Y-108990000D03*
%TO.P,J3,15,Pin_15*%
%TO.N,GPIO11*%
X83460000Y-111530000D03*
%TO.P,J3,16,Pin_16*%
%TO.N,GPIO12*%
X83460000Y-114070000D03*
%TO.P,J3,17,Pin_17*%
%TO.N,GPIO13*%
X83460000Y-116610000D03*
%TO.P,J3,18,Pin_18*%
%TO.N,GND*%
X83460000Y-119150000D03*
%TO.P,J3,19,Pin_19*%
%TO.N,GPIO14*%
X83460000Y-121690000D03*
%TO.P,J3,20,Pin_20*%
%TO.N,GPIO15*%
X83460000Y-124230000D03*
%TD*%
D15*
%TO.P,R6,1*%
%TO.N,Net-(R6-Pad1)*%
X90960000Y-90360000D03*
%TO.P,R6,2*%
%TO.N,QSPI_SS*%
X90960000Y-91380000D03*
%TD*%
D16*
%TO.P,D1,1,K*%
%TO.N,Net-(D1-K)*%
X94522500Y-85950000D03*
%TO.P,D1,2,A*%
%TO.N,GND*%
X96097500Y-85950000D03*
%TD*%
D17*
%TO.P,U4,1,DQ*%
%TO.N,GPIO25*%
X95905000Y-96252500D03*
%TO.P,U4,2,NC*%
%TO.N,unconnected-(U4-NC-Pad2)*%
X96555000Y-96252500D03*
%TO.P,U4,3,NC*%
%TO.N,unconnected-(U4-NC-Pad3)*%
X97205000Y-96252500D03*
%TO.P,U4,4,GND*%
%TO.N,GND*%
X97855000Y-96252500D03*
%TO.P,U4,5,NC*%
%TO.N,unconnected-(U4-NC-Pad5)*%
X97855000Y-92027500D03*
%TO.P,U4,6,NC*%
%TO.N,unconnected-(U4-NC-Pad6)*%
X97205000Y-92027500D03*
%TO.P,U4,7,NC*%
%TO.N,unconnected-(U4-NC-Pad7)*%
X96555000Y-92027500D03*
%TO.P,U4,8,V_{DD}*%
%TO.N,+3V3*%
X95905000Y-92027500D03*
%TD*%
D13*
%TO.P,J2,1,Pin_1*%
%TO.N,SWCLK*%
X89810000Y-123990000D03*
D14*
%TO.P,J2,2,Pin_2*%
%TO.N,GND*%
X92350000Y-123990000D03*
%TO.P,J2,3,Pin_3*%
%TO.N,SWD*%
X94890000Y-123990000D03*
%TD*%
D18*
%TO.P,U2,1,GND*%
%TO.N,GND*%
X88960000Y-86967500D03*
%TO.P,U2,2,VO*%
%TO.N,+3V3*%
X90860000Y-86967500D03*
%TO.P,U2,3,VI*%
%TO.N,VBUS*%
X89910000Y-85092500D03*
%TD*%
D19*
%TO.P,C7,1*%
%TO.N,+3V3*%
X97180000Y-101480000D03*
%TO.P,C7,2*%
%TO.N,GND*%
X97180000Y-100520000D03*
%TD*%
D12*
%TO.P,C8,1*%
%TO.N,+3V3*%
X97920000Y-106080000D03*
%TO.P,C8,2*%
%TO.N,GND*%
X98880000Y-106080000D03*
%TD*%
D20*
%TO.P,C15,1*%
%TO.N,Net-(C15-Pad1)*%
X94190000Y-111790000D03*
%TO.P,C15,2*%
%TO.N,GND*%
X94190000Y-112750000D03*
%TD*%
D21*
%TO.P,J1,A1,GND*%
%TO.N,GND*%
X95600000Y-81007000D03*
%TO.P,J1,A4,VBUS*%
%TO.N,VBUS*%
X94800000Y-81007000D03*
D22*
%TO.P,J1,A5,CC1*%
%TO.N,Net-(J1-CC1)*%
X93600000Y-81007000D03*
%TO.P,J1,A6,D+*%
%TO.N,USB_D+*%
X92600000Y-81007000D03*
%TO.P,J1,A7,D-*%
%TO.N,USB_D-*%
X92100000Y-81007000D03*
%TO.P,J1,A8*%
%TO.N,N/C*%
X91100000Y-81007000D03*
D21*
%TO.P,J1,A9,VBUS*%
%TO.N,VBUS*%
X89900000Y-81007000D03*
%TO.P,J1,A12,GND*%
%TO.N,GND*%
X89100000Y-81007000D03*
%TO.P,J1,B1,GND*%
X89100000Y-81007000D03*
%TO.P,J1,B4,VBUS*%
%TO.N,VBUS*%
X89900000Y-81007000D03*
D22*
%TO.P,J1,B5,CC2*%
%TO.N,Net-(J1-CC2)*%
X90600000Y-81007000D03*
%TO.P,J1,B6,D+*%
%TO.N,USB_D+*%
X91600000Y-81007000D03*
%TO.P,J1,B7,D-*%
%TO.N,USB_D-*%
X93100000Y-81007000D03*
%TO.P,J1,B8*%
%TO.N,N/C*%
X94100000Y-81007000D03*
D21*
%TO.P,J1,B9,VBUS*%
%TO.N,VBUS*%
X94800000Y-81007000D03*
%TO.P,J1,B12,GND*%
%TO.N,GND*%
X95600000Y-81007000D03*
D23*
%TO.P,J1,S1,SHIELD*%
X96670000Y-80092000D03*
D24*
X96670000Y-75912000D03*
D23*
X88030000Y-80092000D03*
D24*
X88030000Y-75912000D03*
%TD*%
D25*
%TO.P,SW1,1,1*%
%TO.N,GND*%
X88720000Y-94955000D03*
%TO.P,SW1,2,2*%
%TO.N,Net-(R6-Pad1)*%
X88720000Y-90205000D03*
%TD*%
D26*
%TO.P,U1,1,IOVDD*%
%TO.N,+3V3*%
X88902500Y-102180000D03*
%TO.P,U1,2,GPIO0*%
%TO.N,GPIO0*%
X88902500Y-102580000D03*
%TO.P,U1,3,GPIO1*%
%TO.N,GPIO1*%
X88902500Y-102980000D03*
%TO.P,U1,4,GPIO2*%
%TO.N,GPIO2*%
X88902500Y-103380000D03*
%TO.P,U1,5,GPIO3*%
%TO.N,GPIO3*%
X88902500Y-103780000D03*
%TO.P,U1,6,GPIO4*%
%TO.N,GPIO4*%
X88902500Y-104180000D03*
%TO.P,U1,7,GPIO5*%
%TO.N,GPIO5*%
X88902500Y-104580000D03*
%TO.P,U1,8,GPIO6*%
%TO.N,GPIO6*%
X88902500Y-104980000D03*
%TO.P,U1,9,GPIO7*%
%TO.N,GPIO7*%
X88902500Y-105380000D03*
%TO.P,U1,10,IOVDD*%
%TO.N,+3V3*%
X88902500Y-105780000D03*
%TO.P,U1,11,GPIO8*%
%TO.N,GPIO8*%
X88902500Y-106180000D03*
%TO.P,U1,12,GPIO9*%
%TO.N,GPIO9*%
X88902500Y-106580000D03*
%TO.P,U1,13,GPIO10*%
%TO.N,GPIO10*%
X88902500Y-106980000D03*
%TO.P,U1,14,GPIO11*%
%TO.N,GPIO11*%
X88902500Y-107380000D03*
D27*
%TO.P,U1,15,GPIO12*%
%TO.N,GPIO12*%
X89740000Y-108217500D03*
%TO.P,U1,16,GPIO13*%
%TO.N,GPIO13*%
X90140000Y-108217500D03*
%TO.P,U1,17,GPIO14*%
%TO.N,GPIO14*%
X90540000Y-108217500D03*
%TO.P,U1,18,GPIO15*%
%TO.N,GPIO15*%
X90940000Y-108217500D03*
%TO.P,U1,19,TESTEN*%
%TO.N,GND*%
X91340000Y-108217500D03*
%TO.P,U1,20,XIN*%
%TO.N,XIN*%
X91740000Y-108217500D03*
%TO.P,U1,21,XOUT*%
%TO.N,XOUT*%
X92140000Y-108217500D03*
%TO.P,U1,22,IOVDD*%
%TO.N,+3V3*%
X92540000Y-108217500D03*
%TO.P,U1,23,DVDD*%
%TO.N,+1V1*%
X92940000Y-108217500D03*
%TO.P,U1,24,SWCLK*%
%TO.N,SWCLK*%
X93340000Y-108217500D03*
%TO.P,U1,25,SWD*%
%TO.N,SWD*%
X93740000Y-108217500D03*
%TO.P,U1,26,RUN*%
%TO.N,RUN*%
X94140000Y-108217500D03*
%TO.P,U1,27,GPIO16*%
%TO.N,GPIO16*%
X94540000Y-108217500D03*
%TO.P,U1,28,GPIO17*%
%TO.N,GPIO17*%
X94940000Y-108217500D03*
D26*
%TO.P,U1,29,GPIO18*%
%TO.N,GPIO18*%
X95777500Y-107380000D03*
%TO.P,U1,30,GPIO19*%
%TO.N,GPIO19*%
X95777500Y-106980000D03*
%TO.P,U1,31,GPIO20*%
%TO.N,GPIO20*%
X95777500Y-106580000D03*
%TO.P,U1,32,GPIO21*%
%TO.N,GPIO21*%
X95777500Y-106180000D03*
%TO.P,U1,33,IOVDD*%
%TO.N,+3V3*%
X95777500Y-105780000D03*
%TO.P,U1,34,GPIO22*%
%TO.N,GPIO22*%
X95777500Y-105380000D03*
%TO.P,U1,35,GPIO23*%
%TO.N,GPIO23*%
X95777500Y-104980000D03*
%TO.P,U1,36,GPIO24*%
%TO.N,GPIO24*%
X95777500Y-104580000D03*
%TO.P,U1,37,GPIO25*%
%TO.N,GPIO25*%
X95777500Y-104180000D03*
%TO.P,U1,38,GPIO26_ADC0*%
%TO.N,GPIO26_ADC0*%
X95777500Y-103780000D03*
%TO.P,U1,39,GPIO27_ADC1*%
%TO.N,GPIO27_ADC1*%
X95777500Y-103380000D03*
%TO.P,U1,40,GPIO28_ADC2*%
%TO.N,GPIO28_ADC2*%
X95777500Y-102980000D03*
%TO.P,U1,41,GPIO29_ADC3*%
%TO.N,GPIO29_ADC3*%
X95777500Y-102580000D03*
%TO.P,U1,42,IOVDD*%
%TO.N,+3V3*%
X95777500Y-102180000D03*
D27*
%TO.P,U1,43,ADC_AVDD*%
X94940000Y-101342500D03*
%TO.P,U1,44,VREG_IN*%
X94540000Y-101342500D03*
%TO.P,U1,45,VREG_VOUT*%
%TO.N,+1V1*%
X94140000Y-101342500D03*
%TO.P,U1,46,USB_DM*%
%TO.N,Net-(U1-USB_DM)*%
X93740000Y-101342500D03*
%TO.P,U1,47,USB_DP*%
%TO.N,Net-(U1-USB_DP)*%
X93340000Y-101342500D03*
%TO.P,U1,48,USB_VDD*%
%TO.N,+3V3*%
X92940000Y-101342500D03*
%TO.P,U1,49,IOVDD*%
X92540000Y-101342500D03*
%TO.P,U1,50,DVDD*%
%TO.N,+1V1*%
X92140000Y-101342500D03*
%TO.P,U1,51,QSPI_SD3*%
%TO.N,QSPI_SD3*%
X91740000Y-101342500D03*
%TO.P,U1,52,QSPI_SCLK*%
%TO.N,QSPI_SCLK*%
X91340000Y-101342500D03*
%TO.P,U1,53,QSPI_SD0*%
%TO.N,QSPI_SD0*%
X90940000Y-101342500D03*
%TO.P,U1,54,QSPI_SD2*%
%TO.N,QSPI_SD2*%
X90540000Y-101342500D03*
%TO.P,U1,55,QSPI_SD1*%
%TO.N,QSPI_SD1*%
X90140000Y-101342500D03*
%TO.P,U1,56,QSPI_SS*%
%TO.N,QSPI_SS*%
X89740000Y-101342500D03*
D28*
%TO.P,U1,57,GND*%
%TO.N,GND*%
X92340000Y-104780000D03*
%TD*%
D29*
%TO.P,R5,1*%
%TO.N,+3V3*%
X91880000Y-92990000D03*
%TO.P,R5,2*%
%TO.N,QSPI_SS*%
X90860000Y-92990000D03*
%TD*%
D30*
%TO.P,R3,1*%
%TO.N,Net-(J1-CC1)*%
X93690000Y-82750000D03*
%TO.P,R3,2*%
%TO.N,GND*%
X94710000Y-82750000D03*
%TD*%
D12*
%TO.P,C9,1*%
%TO.N,+3V3*%
X93070000Y-96710000D03*
%TO.P,C9,2*%
%TO.N,GND*%
X94030000Y-96710000D03*
%TD*%
D31*
%TO.P,Y1,1,1*%
%TO.N,XIN*%
X90450000Y-113120000D03*
%TO.P,Y1,2,2*%
%TO.N,GND*%
X92650000Y-113120000D03*
%TO.P,Y1,3,3*%
%TO.N,Net-(C15-Pad1)*%
X92650000Y-111420000D03*
%TO.P,Y1,4,4*%
%TO.N,GND*%
X90450000Y-111420000D03*
%TD*%
D32*
%TO.P,R8,1*%
%TO.N,VBUS*%
X96135000Y-84320000D03*
%TO.P,R8,2*%
%TO.N,Net-(D1-K)*%
X94485000Y-84320000D03*
%TD*%
D19*
%TO.P,C1,1*%
%TO.N,+1V1*%
X95150000Y-99920000D03*
%TO.P,C1,2*%
%TO.N,GND*%
X95150000Y-98960000D03*
%TD*%
D29*
%TO.P,R7,1*%
%TO.N,Net-(C15-Pad1)*%
X93430000Y-109980000D03*
%TO.P,R7,2*%
%TO.N,XOUT*%
X92410000Y-109980000D03*
%TD*%
%TO.P,R4,1*%
%TO.N,GND*%
X91710000Y-82840000D03*
%TO.P,R4,2*%
%TO.N,Net-(J1-CC2)*%
X90690000Y-82840000D03*
%TD*%
D20*
%TO.P,C14,1*%
%TO.N,GND*%
X88910000Y-111820000D03*
%TO.P,C14,2*%
%TO.N,XIN*%
X88910000Y-112780000D03*
%TD*%
D13*
%TO.P,J4,1,Pin_1*%
%TO.N,VBUS*%
X101240000Y-75970000D03*
D14*
%TO.P,J4,2,Pin_2*%
%TO.N,GND*%
X101240000Y-78510000D03*
%TO.P,J4,3,Pin_3*%
%TO.N,GPIO29_ADC3*%
X101240000Y-81050000D03*
%TO.P,J4,4,Pin_4*%
%TO.N,GPIO28_ADC2*%
X101240000Y-83590000D03*
%TO.P,J4,5,Pin_5*%
%TO.N,+3V3*%
X101240000Y-86130000D03*
%TO.P,J4,6,Pin_6*%
%TO.N,GPIO27_ADC1*%
X101240000Y-88670000D03*
%TO.P,J4,7,Pin_7*%
%TO.N,GPIO26_ADC0*%
X101240000Y-91210000D03*
%TO.P,J4,8,Pin_8*%
%TO.N,GND*%
X101240000Y-93750000D03*
%TO.P,J4,9,Pin_9*%
%TO.N,GPIO24*%
X101240000Y-96290000D03*
%TO.P,J4,10,Pin_10*%
%TO.N,GPIO23*%
X101240000Y-98830000D03*
%TO.P,J4,11,Pin_11*%
%TO.N,RUN*%
X101240000Y-101370000D03*
%TO.P,J4,12,Pin_12*%
%TO.N,GPIO22*%
X101240000Y-103910000D03*
%TO.P,J4,13,Pin_13*%
%TO.N,GND*%
X101240000Y-106450000D03*
%TO.P,J4,14,Pin_14*%
%TO.N,GPIO21*%
X101240000Y-108990000D03*
%TO.P,J4,15,Pin_15*%
%TO.N,GPIO20*%
X101240000Y-111530000D03*
%TO.P,J4,16,Pin_16*%
%TO.N,GPIO19*%
X101240000Y-114070000D03*
%TO.P,J4,17,Pin_17*%
%TO.N,GPIO18*%
X101240000Y-116610000D03*
%TO.P,J4,18,Pin_18*%
%TO.N,GND*%
X101240000Y-119150000D03*
%TO.P,J4,19,Pin_19*%
%TO.N,GPIO17*%
X101240000Y-121690000D03*
%TO.P,J4,20,Pin_20*%
%TO.N,GPIO16*%
X101240000Y-124230000D03*
%TD*%
D19*
%TO.P,C11,1*%
%TO.N,+3V3*%
X96180000Y-100060000D03*
%TO.P,C11,2*%
%TO.N,GND*%
X96180000Y-99100000D03*
%TD*%
%TO.P,C2,1*%
%TO.N,+1V1*%
X92050000Y-96620000D03*
%TO.P,C2,2*%
%TO.N,GND*%
X92050000Y-95660000D03*
%TD*%
%TO.P,C16,1*%
%TO.N,+3V3*%
X90670000Y-95230000D03*
%TO.P,C16,2*%
%TO.N,GND*%
X90670000Y-94270000D03*
%TD*%
D33*
%TO.P,C13,1*%
%TO.N,GND*%
X87295000Y-83100000D03*
%TO.P,C13,2*%
%TO.N,VBUS*%
X88845000Y-83100000D03*
%TD*%
D19*
%TO.P,C6,1*%
%TO.N,+3V3*%
X97170000Y-99570000D03*
%TO.P,C6,2*%
%TO.N,GND*%
X97170000Y-98610000D03*
%TD*%
D34*
%TO.P,C3,1*%
%TO.N,+1V1*%
X96340000Y-111750000D03*
%TO.P,C3,2*%
%TO.N,GND*%
X95380000Y-111750000D03*
%TD*%
D15*
%TO.P,R1,1*%
%TO.N,USB_D+*%
X92960000Y-98950000D03*
%TO.P,R1,2*%
%TO.N,Net-(U1-USB_DP)*%
X92960000Y-99970000D03*
%TD*%
D35*
%TO.P,C12,1*%
%TO.N,+3V3*%
X90660000Y-88780000D03*
%TO.P,C12,2*%
%TO.N,GND*%
X89110000Y-88780000D03*
%TD*%
D15*
%TO.P,R2,1*%
%TO.N,USB_D-*%
X94140000Y-98950000D03*
%TO.P,R2,2*%
%TO.N,Net-(U1-USB_DM)*%
X94140000Y-99970000D03*
%TD*%
D19*
%TO.P,C4,1*%
%TO.N,+3V3*%
X86000000Y-105740000D03*
%TO.P,C4,2*%
%TO.N,GND*%
X86000000Y-104780000D03*
%TD*%
D36*
%TO.N,SWCLK*%
X89810000Y-123990000D03*
X93122500Y-115810000D03*
%TO.N,GND*%
X89030000Y-91940000D03*
X90925388Y-106904000D03*
X90780000Y-110190000D03*
X90990000Y-102670000D03*
X95280000Y-83310000D03*
X91490000Y-93810000D03*
X95060000Y-112570000D03*
X93940000Y-94330000D03*
X99070000Y-106840000D03*
X91876883Y-114131473D03*
X89162500Y-98331650D03*
X94410000Y-103700000D03*
X91760000Y-95127500D03*
X88891225Y-113698775D03*
X94500000Y-106030000D03*
X97830000Y-97750000D03*
X90270000Y-106140000D03*
X96050000Y-108310000D03*
X99298350Y-104792501D03*
X95480000Y-89580000D03*
X95330000Y-98100000D03*
X97710000Y-89660000D03*
X89390000Y-111420000D03*
X94430000Y-104920000D03*
X85770000Y-104100000D03*
X95480000Y-89580000D03*
X87030000Y-92500000D03*
X99070000Y-106840000D03*
X92750000Y-102640000D03*
X98430000Y-115490000D03*
X91570000Y-84830000D03*
X96110000Y-86980000D03*
%TO.N,+1V1*%
X92552500Y-115131500D03*
X92480000Y-97800000D03*
X94143692Y-102158144D03*
%TO.N,+3V3*%
X92752500Y-100739996D03*
X93710000Y-88350000D03*
X99083500Y-88360000D03*
X91740000Y-88390000D03*
X93475735Y-97615735D03*
X97908500Y-88350000D03*
%TO.N,SWCLK*%
X92580000Y-106930000D03*
%TO.N,SWD*%
X93532901Y-106937099D03*
%TO.N,GPIO7*%
X86929574Y-104730426D03*
%TO.N,GPIO3*%
X89740000Y-103780000D03*
%TO.N,GPIO0*%
X87913446Y-99520390D03*
%TO.N,GPIO1*%
X87113882Y-99493887D03*
%TO.N,GPIO8*%
X86921650Y-105992501D03*
%TO.N,RUN*%
X94510000Y-107000000D03*
%TO.N,GPIO29_ADC3*%
X96715000Y-102190305D03*
%TO.N,GPIO25*%
X95930000Y-94590000D03*
X97890094Y-103992500D03*
%TD*%
D37*
%TO.N,SWCLK*%
X93122500Y-120677500D02*
X89810000Y-123990000D01*
X93122500Y-115810000D02*
X93122500Y-120677500D01*
%TO.N,GND*%
X94680000Y-112570000D02*
X94500000Y-112750000D01*
D38*
X95150000Y-98960000D02*
X95150000Y-98280000D01*
D37*
X87630000Y-91900000D02*
X87030000Y-92500000D01*
X95410000Y-110750000D02*
X95410000Y-111720000D01*
D38*
X94710000Y-82750000D02*
X94720000Y-82750000D01*
X94190000Y-112750000D02*
X93020000Y-112750000D01*
D39*
X95755000Y-81007000D02*
X96670000Y-80092000D01*
X95600000Y-81007000D02*
X95600000Y-81530000D01*
D38*
X90450000Y-111420000D02*
X89390000Y-111420000D01*
X88299000Y-113106550D02*
X88299000Y-112431000D01*
X91340000Y-93960000D02*
X90980000Y-93960000D01*
D37*
X95410000Y-111720000D02*
X95380000Y-111750000D01*
D38*
X91760000Y-95267500D02*
X91760000Y-95340000D01*
D37*
X94500000Y-112750000D02*
X94190000Y-112750000D01*
D38*
X91760000Y-95200000D02*
X92070000Y-95510000D01*
X89390000Y-111420000D02*
X89310000Y-111420000D01*
X97830000Y-97750000D02*
X97830000Y-96277500D01*
D37*
X89020000Y-91900000D02*
X87630000Y-91900000D01*
D38*
X95150000Y-98280000D02*
X95330000Y-98100000D01*
X90980000Y-93960000D02*
X90670000Y-94270000D01*
X93020000Y-112750000D02*
X92650000Y-113120000D01*
D39*
X95600000Y-81007000D02*
X95755000Y-81007000D01*
D37*
X90780000Y-111090000D02*
X90450000Y-111420000D01*
X89020000Y-91930000D02*
X89020000Y-91900000D01*
D38*
X94720000Y-82750000D02*
X95280000Y-83310000D01*
X97630000Y-89580000D02*
X97710000Y-89660000D01*
D37*
X85770000Y-104100000D02*
X85770000Y-104550000D01*
D38*
X89222450Y-114030000D02*
X88891225Y-113698775D01*
X88299000Y-112431000D02*
X88910000Y-111820000D01*
D37*
X90670000Y-94270000D02*
X89405000Y-94270000D01*
D38*
X89310000Y-111420000D02*
X88910000Y-111820000D01*
D37*
X95380000Y-111750000D02*
X95380000Y-111870000D01*
X87825000Y-97750000D02*
X88580850Y-97750000D01*
X96180000Y-99100000D02*
X96680000Y-99100000D01*
X91340000Y-108217500D02*
X91340000Y-109630000D01*
X95380000Y-111870000D02*
X94500000Y-112750000D01*
D38*
X97830000Y-96277500D02*
X97855000Y-96252500D01*
D39*
X95600000Y-81530000D02*
X96510000Y-82440000D01*
D38*
X92650000Y-113120000D02*
X91740000Y-114030000D01*
D37*
X97768500Y-99208500D02*
X97170000Y-98610000D01*
X91340000Y-109630000D02*
X90780000Y-110190000D01*
X89405000Y-94270000D02*
X88720000Y-94955000D01*
D38*
X96097500Y-86967500D02*
X96110000Y-86980000D01*
D37*
X97180000Y-100520000D02*
X97768500Y-99931500D01*
D38*
X92070000Y-95510000D02*
X92070000Y-95720000D01*
D37*
X90780000Y-110190000D02*
X90780000Y-111090000D01*
X85770000Y-104550000D02*
X86000000Y-104780000D01*
X97768500Y-99931500D02*
X97768500Y-99208500D01*
X88580850Y-97750000D02*
X89162500Y-98331650D01*
X89030000Y-91940000D02*
X89020000Y-91930000D01*
X96680000Y-99100000D02*
X97170000Y-98610000D01*
D38*
X91490000Y-93810000D02*
X91340000Y-93960000D01*
D37*
X95060000Y-112570000D02*
X94680000Y-112570000D01*
D38*
X88891225Y-113698775D02*
X88299000Y-113106550D01*
X91740000Y-114030000D02*
X89222450Y-114030000D01*
D37*
%TO.N,+1V1*%
X96340000Y-110760128D02*
X96340000Y-111750000D01*
X92552500Y-115131500D02*
X93370765Y-115131500D01*
X94140000Y-101342500D02*
X94140000Y-100690000D01*
X94140000Y-101342500D02*
X94140000Y-102154452D01*
X92070000Y-96820000D02*
X92480000Y-97230000D01*
X94541500Y-100528500D02*
X95150000Y-99920000D01*
X94140000Y-100690000D02*
X94301500Y-100528500D01*
X95051500Y-110151500D02*
X95731372Y-110151500D01*
X92480000Y-97230000D02*
X92480000Y-97800000D01*
X93165500Y-108995500D02*
X93899904Y-108995500D01*
X94140000Y-102154452D02*
X94143692Y-102158144D01*
X94826000Y-109921596D02*
X94826000Y-109926000D01*
X95731372Y-110151500D02*
X96340000Y-110760128D01*
X92140000Y-101342500D02*
X92140000Y-98296610D01*
X96340000Y-112162265D02*
X96340000Y-111750000D01*
X92230000Y-98206610D02*
X92230000Y-96980000D01*
X92940000Y-108770000D02*
X93165500Y-108995500D01*
X92230000Y-96980000D02*
X92070000Y-96820000D01*
X92140000Y-98296610D02*
X92230000Y-98206610D01*
X94826000Y-109926000D02*
X95051500Y-110151500D01*
X94301500Y-100528500D02*
X94541500Y-100528500D01*
X93899904Y-108995500D02*
X94826000Y-109921596D01*
X92940000Y-108217500D02*
X92940000Y-108770000D01*
X93370765Y-115131500D02*
X96340000Y-112162265D01*
%TO.N,+3V3*%
X89650000Y-105760000D02*
X89650000Y-106710000D01*
X91931598Y-102068500D02*
X91548402Y-102068500D01*
X90230000Y-104122265D02*
X90230000Y-104760000D01*
X90748402Y-102068500D02*
X90740000Y-102060098D01*
X89650000Y-106710000D02*
X90431500Y-107491500D01*
X97170000Y-99570000D02*
X96670000Y-99570000D01*
D38*
X94540000Y-101342500D02*
X94940000Y-101342500D01*
D37*
X88902500Y-105780000D02*
X88891000Y-105791500D01*
X92940000Y-101342500D02*
X92940000Y-100810000D01*
X89650000Y-105340000D02*
X89650000Y-105550098D01*
X93555192Y-102225192D02*
X93555192Y-102401909D01*
X91531598Y-102068500D02*
X91148402Y-102068500D01*
X93700000Y-88360000D02*
X93710000Y-88350000D01*
X90348402Y-102068500D02*
X90340000Y-102060098D01*
X91140000Y-107499902D02*
X91148402Y-107491500D01*
X89480049Y-105720049D02*
X89503049Y-105720049D01*
X90731598Y-102068500D02*
X90348402Y-102068500D01*
X89650000Y-105550098D02*
X89480049Y-105720049D01*
X89650000Y-102180000D02*
X88902500Y-102180000D01*
X92180000Y-92100000D02*
X93070000Y-92990000D01*
X87165415Y-105404001D02*
X86677885Y-105404001D01*
X91948402Y-102068500D02*
X91940000Y-102060098D01*
X87510150Y-105748736D02*
X87165415Y-105404001D01*
X92430098Y-101970000D02*
X92331598Y-102068500D01*
D38*
X96320000Y-99910000D02*
X96320000Y-99962500D01*
D37*
X91931598Y-107491500D02*
X91940000Y-107499902D01*
X90230000Y-104760000D02*
X89650000Y-105340000D01*
X94450000Y-110077340D02*
X93744160Y-109371500D01*
D38*
X97620000Y-105780000D02*
X97920000Y-106080000D01*
D37*
X92940000Y-100810000D02*
X92760000Y-100630000D01*
X91148402Y-107491500D02*
X91531598Y-107491500D01*
X90230000Y-102190000D02*
X90230000Y-103437735D01*
X91880000Y-91660000D02*
X92180000Y-91960000D01*
X92331598Y-107491500D02*
X92540000Y-107699902D01*
X91540000Y-102060098D02*
X91531598Y-102068500D01*
X92951500Y-101621500D02*
X92951500Y-101871598D01*
X92540000Y-107699902D02*
X92540000Y-108217500D01*
X92180000Y-91960000D02*
X92180000Y-92100000D01*
X89480049Y-105720049D02*
X89420098Y-105780000D01*
X91050000Y-88390000D02*
X90660000Y-88780000D01*
D38*
X95777500Y-101902500D02*
X95777500Y-102180000D01*
D37*
X93710000Y-88350000D02*
X93710000Y-89832500D01*
X89931598Y-102068500D02*
X89761500Y-102068500D01*
X91140000Y-102060098D02*
X91131598Y-102068500D01*
X90740000Y-102060098D02*
X90731598Y-102068500D01*
X90431500Y-107491500D02*
X90731598Y-107491500D01*
X99020000Y-88350000D02*
X99073500Y-88350000D01*
X99073500Y-88350000D02*
X99083500Y-88360000D01*
X92180000Y-91360000D02*
X92180000Y-92100000D01*
X92752500Y-100637500D02*
X92752500Y-100739996D01*
X91940000Y-102060098D02*
X91931598Y-102068500D01*
D38*
X95777500Y-105780000D02*
X95240000Y-105780000D01*
D37*
X89503049Y-105720049D02*
X89650000Y-105867000D01*
X93148402Y-102068500D02*
X93398500Y-102068500D01*
X89420098Y-105780000D02*
X88902500Y-105780000D01*
D38*
X96320000Y-99962500D02*
X94940000Y-101342500D01*
D37*
X90748402Y-107491500D02*
X91131598Y-107491500D01*
X92180000Y-90300000D02*
X92180000Y-91360000D01*
X96670000Y-99570000D02*
X96180000Y-100060000D01*
X93070000Y-97210000D02*
X93475735Y-97615735D01*
X91940000Y-107499902D02*
X91948402Y-107491500D01*
X92180000Y-94450000D02*
X91450000Y-94450000D01*
X91531598Y-107491500D02*
X91540000Y-107499902D01*
X93899927Y-102746644D02*
X94387457Y-102746644D01*
X90328500Y-104023765D02*
X90230000Y-104122265D01*
X90230000Y-103437735D02*
X90328500Y-103536235D01*
X92940000Y-101780000D02*
X92750000Y-101970000D01*
X90331598Y-102068500D02*
X89948402Y-102068500D01*
X86290000Y-105450000D02*
X86000000Y-105740000D01*
D38*
X95040000Y-105580000D02*
X95040000Y-102900000D01*
D37*
X101240000Y-86130000D02*
X99020000Y-88350000D01*
X86631886Y-105450000D02*
X86290000Y-105450000D01*
X92940000Y-101342500D02*
X92940000Y-101610000D01*
X94450000Y-110750000D02*
X94450000Y-110077340D01*
X93070000Y-96710000D02*
X93070000Y-97210000D01*
X90670000Y-95230000D02*
X90670000Y-96245000D01*
X92940000Y-101610000D02*
X92951500Y-101621500D01*
D38*
X97180000Y-101480000D02*
X96200000Y-101480000D01*
D37*
X92540000Y-109030000D02*
X92540000Y-108217500D01*
X90328500Y-103536235D02*
X90328500Y-104023765D01*
D38*
X95040000Y-102900000D02*
X94645889Y-102505889D01*
D37*
X89948402Y-102068500D02*
X89940000Y-102060098D01*
X88891000Y-105791500D02*
X87551500Y-105791500D01*
X94387457Y-102746644D02*
X94940000Y-102194101D01*
X92951500Y-101871598D02*
X93148402Y-102068500D01*
X91548402Y-102068500D02*
X91540000Y-102060098D01*
X97908500Y-88350000D02*
X93710000Y-88350000D01*
D38*
X94940000Y-101342500D02*
X95777500Y-102180000D01*
D37*
X92331598Y-102068500D02*
X91948402Y-102068500D01*
X91131598Y-102068500D02*
X90748402Y-102068500D01*
X86677885Y-105404001D02*
X86631886Y-105450000D01*
X90860000Y-86967500D02*
X90860000Y-88580000D01*
X92881500Y-109371500D02*
X92540000Y-109030000D01*
X92940000Y-101342500D02*
X92940000Y-101780000D01*
X93070000Y-95660000D02*
X93070000Y-95340000D01*
X92760000Y-100630000D02*
X92752500Y-100637500D01*
X91450000Y-94450000D02*
X90670000Y-95230000D01*
X93398500Y-102068500D02*
X93555192Y-102225192D01*
X92540000Y-101342500D02*
X92540000Y-100952496D01*
X89940000Y-102060098D02*
X89931598Y-102068500D01*
X93070000Y-92990000D02*
X93070000Y-96710000D01*
X92540000Y-100952496D02*
X92752500Y-100739996D01*
X90340000Y-102060098D02*
X90331598Y-102068500D01*
X89650000Y-105760000D02*
X89650000Y-105867000D01*
X93070000Y-95340000D02*
X92180000Y-94450000D01*
X90660000Y-88780000D02*
X92180000Y-90300000D01*
X90731598Y-107491500D02*
X90740000Y-107499902D01*
X91880000Y-92990000D02*
X91880000Y-91660000D01*
X91540000Y-107499902D02*
X91548402Y-107491500D01*
X89761500Y-102068500D02*
X89650000Y-102180000D01*
X91880000Y-91660000D02*
X92180000Y-91360000D01*
X90740000Y-107499902D02*
X90748402Y-107491500D01*
X93555192Y-102401909D02*
X93899927Y-102746644D01*
X90220000Y-102180000D02*
X90230000Y-102190000D01*
X87551500Y-105791500D02*
X87510150Y-105750150D01*
X87510150Y-105750150D02*
X87510150Y-105748736D01*
X92750000Y-101970000D02*
X92430098Y-101970000D01*
X91948402Y-107491500D02*
X92331598Y-107491500D01*
D38*
X95777500Y-105780000D02*
X97620000Y-105780000D01*
D37*
X94940000Y-102194101D02*
X94940000Y-101342500D01*
X93710000Y-89832500D02*
X95905000Y-92027500D01*
D38*
X95240000Y-105780000D02*
X95040000Y-105580000D01*
D37*
X90670000Y-96245000D02*
X90675000Y-96250000D01*
X91148402Y-102068500D02*
X91140000Y-102060098D01*
X93070000Y-95660000D02*
X93070000Y-96710000D01*
X89650000Y-105340000D02*
X89650000Y-105760000D01*
X90860000Y-88580000D02*
X90660000Y-88780000D01*
X93744160Y-109371500D02*
X92881500Y-109371500D01*
D38*
X96200000Y-101480000D02*
X95777500Y-101902500D01*
D37*
X91740000Y-88390000D02*
X91050000Y-88390000D01*
X91131598Y-107491500D02*
X91140000Y-107499902D01*
X91548402Y-107491500D02*
X91931598Y-107491500D01*
D38*
%TO.N,VBUS*%
X94800000Y-81834000D02*
X94800000Y-81007000D01*
D39*
X94800000Y-81007000D02*
X94651000Y-80858000D01*
D38*
X96135000Y-84320000D02*
X96135000Y-83169000D01*
X96135000Y-83169000D02*
X94800000Y-81834000D01*
D39*
X101240000Y-75970000D02*
X99800000Y-77410000D01*
X93894992Y-79294992D02*
X90824438Y-79294992D01*
X90824438Y-79294992D02*
X89900000Y-80219430D01*
X94464000Y-79864000D02*
X93894992Y-79294992D01*
X94464000Y-79883430D02*
X94464000Y-79864000D01*
X94651000Y-80858000D02*
X94651000Y-80070430D01*
D40*
X89910000Y-85092500D02*
X89910000Y-84165000D01*
D39*
X89900000Y-84735000D02*
X89930000Y-84765000D01*
X89900000Y-81007000D02*
X89900000Y-84735000D01*
D40*
X89910000Y-84165000D02*
X88845000Y-83100000D01*
D39*
X94651000Y-80070430D02*
X94464000Y-79883430D01*
X89900000Y-80219430D02*
X89900000Y-81007000D01*
X99800000Y-77410000D02*
X96118992Y-77410000D01*
X96118992Y-77410000D02*
X94234000Y-79294992D01*
D37*
%TO.N,XIN*%
X91438500Y-110833000D02*
X91438500Y-112231500D01*
X91740000Y-110531500D02*
X91438500Y-110833000D01*
D38*
X88910000Y-112780000D02*
X90110000Y-112780000D01*
D37*
X90550000Y-113120000D02*
X90450000Y-113120000D01*
X91740000Y-108217500D02*
X91740000Y-110531500D01*
X91438500Y-112231500D02*
X90550000Y-113120000D01*
D38*
X90110000Y-112780000D02*
X90450000Y-113120000D01*
D37*
%TO.N,XOUT*%
X92410000Y-109980000D02*
X92140000Y-109710000D01*
X92140000Y-109710000D02*
X92140000Y-108217500D01*
D38*
%TO.N,Net-(J1-CC1)*%
X93600000Y-82660000D02*
X93690000Y-82750000D01*
X93600000Y-81007000D02*
X93600000Y-82660000D01*
%TO.N,USB_D-*%
X93075000Y-82119501D02*
X93075000Y-91356802D01*
X93100000Y-80100000D02*
X93100000Y-81007000D01*
X93100000Y-81007000D02*
X93100000Y-82094501D01*
X92981000Y-79981000D02*
X93100000Y-80100000D01*
X94517464Y-98058933D02*
X94170000Y-98406397D01*
X94170000Y-98406397D02*
X94170000Y-98950000D01*
X95295000Y-93576802D02*
X95295000Y-97281397D01*
X92100000Y-81007000D02*
X92100000Y-80030000D01*
X93100000Y-82094501D02*
X93075000Y-82119501D01*
X94721310Y-97855087D02*
X94517464Y-98058933D01*
X92100000Y-80030000D02*
X92149000Y-79981000D01*
X93075000Y-91356802D02*
X95295000Y-93576802D01*
X92149000Y-79981000D02*
X92981000Y-79981000D01*
X95295000Y-97281397D02*
X94721310Y-97855087D01*
%TO.N,Net-(J1-CC2)*%
X90600000Y-81007000D02*
X90600000Y-82750000D01*
X90600000Y-82750000D02*
X90690000Y-82840000D01*
%TO.N,USB_D+*%
X92625000Y-90546924D02*
X92625000Y-89763853D01*
X94845000Y-97095000D02*
X94845000Y-93763198D01*
X92625000Y-91543198D02*
X92625000Y-90546924D01*
X92600000Y-81984000D02*
X92600000Y-81007000D01*
X94662381Y-97277619D02*
X94845000Y-97095000D01*
X91600000Y-81007000D02*
X91600000Y-81984000D01*
X92625000Y-89763853D02*
X92625000Y-82119501D01*
X91600000Y-81984000D02*
X91649000Y-82033000D01*
X92551000Y-82033000D02*
X92600000Y-81984000D01*
X92600000Y-82094501D02*
X92600000Y-81007000D01*
X92990000Y-98950000D02*
X94176276Y-97763724D01*
X94455550Y-97484450D02*
X94662381Y-97277619D01*
X94176276Y-97763724D02*
X94455550Y-97484450D01*
X92625000Y-82119501D02*
X92600000Y-82094501D01*
X91649000Y-82033000D02*
X92551000Y-82033000D01*
X94845000Y-93763198D02*
X92625000Y-91543198D01*
D37*
%TO.N,SWCLK*%
X93340000Y-107575050D02*
X93340000Y-108217500D01*
X92694950Y-106930000D02*
X93340000Y-107575050D01*
X92580000Y-106930000D02*
X92694950Y-106930000D01*
%TO.N,SWD*%
X93740000Y-107428239D02*
X93740000Y-108217500D01*
X93532901Y-106937099D02*
X93532901Y-107221140D01*
X93532901Y-107221140D02*
X93740000Y-107428239D01*
%TO.N,GPIO5*%
X85350500Y-101788756D02*
X85350500Y-93100500D01*
X87110500Y-103544747D02*
X86325253Y-102759500D01*
X86321244Y-102759500D02*
X85350500Y-101788756D01*
X85350500Y-93100500D02*
X83460000Y-91210000D01*
X88902500Y-104580000D02*
X88141744Y-104580000D01*
X88141744Y-104580000D02*
X87110500Y-103548756D01*
X87110500Y-103548756D02*
X87110500Y-103544747D01*
X86325253Y-102759500D02*
X86321244Y-102759500D01*
%TO.N,GPIO7*%
X87015649Y-104816501D02*
X87126501Y-104816501D01*
X87126501Y-104816501D02*
X87666000Y-105356000D01*
X88891000Y-105368500D02*
X88902500Y-105380000D01*
X88360902Y-105356000D02*
X88373402Y-105368500D01*
X87666000Y-105356000D02*
X88360902Y-105356000D01*
X88373402Y-105368500D02*
X88891000Y-105368500D01*
X86929574Y-104730426D02*
X87015649Y-104816501D01*
%TO.N,GPIO10*%
X85470000Y-106980000D02*
X83460000Y-108990000D01*
X88902500Y-106980000D02*
X85470000Y-106980000D01*
%TO.N,GPIO3*%
X89850000Y-103670000D02*
X89740000Y-103780000D01*
X88902500Y-103780000D02*
X89740000Y-103780000D01*
%TO.N,GPIO6*%
X88010000Y-104980000D02*
X86734500Y-103704500D01*
X86734500Y-103700491D02*
X86169509Y-103135500D01*
X86165500Y-103135500D02*
X84974500Y-101944500D01*
X84974500Y-101944500D02*
X84974500Y-97804500D01*
X86169509Y-103135500D02*
X86165500Y-103135500D01*
X86734500Y-103704500D02*
X86734500Y-103700491D01*
X88902500Y-104980000D02*
X88010000Y-104980000D01*
X84974500Y-97804500D02*
X83460000Y-96290000D01*
%TO.N,GPIO9*%
X88902500Y-106580000D02*
X85850000Y-106580000D01*
X83460000Y-104190000D02*
X83460000Y-103910000D01*
X85850000Y-106580000D02*
X83460000Y-104190000D01*
%TO.N,GPIO11*%
X87610000Y-107380000D02*
X83460000Y-111530000D01*
X88902500Y-107380000D02*
X87610000Y-107380000D01*
%TO.N,GPIO2*%
X86300000Y-86430000D02*
X83460000Y-83590000D01*
X88121414Y-103380000D02*
X88902500Y-103380000D01*
X86300000Y-101558586D02*
X88121414Y-103380000D01*
X86300000Y-101558586D02*
X86300000Y-86430000D01*
%TO.N,GPIO0*%
X87913446Y-102108544D02*
X88384902Y-102580000D01*
X88384902Y-102580000D02*
X88902500Y-102580000D01*
X87913446Y-99520390D02*
X87913446Y-102108544D01*
%TO.N,GPIO12*%
X88572500Y-108217500D02*
X83460000Y-113330000D01*
X83460000Y-113330000D02*
X83460000Y-114070000D01*
X89740000Y-108217500D02*
X88572500Y-108217500D01*
%TO.N,GPIO14*%
X85086000Y-120064000D02*
X83460000Y-121690000D01*
X90528500Y-108746598D02*
X90530000Y-108748098D01*
X90000842Y-109406000D02*
X89794000Y-109406000D01*
X90530000Y-108748098D02*
X90530000Y-108876842D01*
X90528500Y-108371500D02*
X90528500Y-108746598D01*
X90540000Y-108360000D02*
X90528500Y-108371500D01*
X85086000Y-114114000D02*
X85086000Y-120064000D01*
X90530000Y-108876842D02*
X90000842Y-109406000D01*
X90540000Y-108217500D02*
X90540000Y-108360000D01*
X89794000Y-109406000D02*
X85086000Y-114114000D01*
%TO.N,GPIO1*%
X88253158Y-102980000D02*
X88902500Y-102980000D01*
X87113882Y-99493887D02*
X87113882Y-101840724D01*
X87113882Y-101840724D02*
X88253158Y-102980000D01*
%TO.N,GPIO15*%
X90940000Y-108217500D02*
X90940000Y-108870128D01*
X90906000Y-108904128D02*
X90906000Y-109032586D01*
X90156586Y-109782000D02*
X90028128Y-109782000D01*
X90028128Y-109782000D02*
X85462000Y-114348128D01*
X85462000Y-122228000D02*
X83460000Y-124230000D01*
X85462000Y-114348128D02*
X85462000Y-122228000D01*
X90940000Y-108870128D02*
X90906000Y-108904128D01*
X90906000Y-109032586D02*
X90156586Y-109782000D01*
%TO.N,GPIO13*%
X88870000Y-109030000D02*
X84710000Y-113190000D01*
X84710000Y-115360000D02*
X83460000Y-116610000D01*
X84710000Y-113190000D02*
X84710000Y-115360000D01*
X90128500Y-108217500D02*
X90128500Y-108746598D01*
X90128500Y-108746598D02*
X89845098Y-109030000D01*
X90140000Y-108217500D02*
X90128500Y-108217500D01*
X89845098Y-109030000D02*
X88870000Y-109030000D01*
%TO.N,GPIO4*%
X88384902Y-104180000D02*
X85726500Y-101521598D01*
X85726500Y-90936500D02*
X83460000Y-88670000D01*
X85726500Y-101521598D02*
X85726500Y-90936500D01*
X88902500Y-104180000D02*
X88384902Y-104180000D01*
%TO.N,GPIO8*%
X87109149Y-106180000D02*
X88902500Y-106180000D01*
X86921650Y-105992501D02*
X87109149Y-106180000D01*
%TO.N,GPIO16*%
X94540000Y-108735098D02*
X95580402Y-109775500D01*
X94540000Y-108217500D02*
X94540000Y-108735098D01*
X96940000Y-110828384D02*
X96940000Y-119930000D01*
X95887116Y-109775500D02*
X96940000Y-110828384D01*
X96940000Y-119930000D02*
X101240000Y-124230000D01*
X95580402Y-109775500D02*
X95887116Y-109775500D01*
%TO.N,GPIO27_ADC1*%
X95777500Y-103380000D02*
X97140000Y-103380000D01*
X98872000Y-91038000D02*
X101240000Y-88670000D01*
X98872000Y-101648000D02*
X98872000Y-91038000D01*
X97140000Y-103380000D02*
X98872000Y-101648000D01*
%TO.N,GPIO23*%
X95777500Y-104980000D02*
X98280000Y-104980000D01*
X100000000Y-100070000D02*
X101240000Y-98830000D01*
X100000000Y-103260000D02*
X100000000Y-100070000D01*
X98280000Y-104980000D02*
X100000000Y-103260000D01*
%TO.N,RUN*%
X94140000Y-108217500D02*
X94140000Y-107370000D01*
X94140000Y-107370000D02*
X94510000Y-107000000D01*
%TO.N,GPIO21*%
X96990128Y-106180000D02*
X99800128Y-108990000D01*
X99800128Y-108990000D02*
X101240000Y-108990000D01*
X95777500Y-106180000D02*
X96990128Y-106180000D01*
%TO.N,GPIO22*%
X99770000Y-105380000D02*
X101240000Y-103910000D01*
X95777500Y-105380000D02*
X99770000Y-105380000D01*
%TO.N,GPIO19*%
X100070000Y-114070000D02*
X101240000Y-114070000D01*
X96295098Y-106980000D02*
X98100000Y-108784902D01*
X98100000Y-112100000D02*
X100070000Y-114070000D01*
X98100000Y-108784902D02*
X98100000Y-112100000D01*
X95777500Y-106980000D02*
X96295098Y-106980000D01*
%TO.N,GPIO18*%
X97706000Y-113076000D02*
X101240000Y-116610000D01*
X96120000Y-107380000D02*
X97690000Y-108950000D01*
X97706000Y-110451756D02*
X97706000Y-113076000D01*
X95777500Y-107380000D02*
X96120000Y-107380000D01*
X97690000Y-110435756D02*
X97706000Y-110451756D01*
X97690000Y-108950000D02*
X97690000Y-110435756D01*
%TO.N,GPIO29_ADC3*%
X95777500Y-102580000D02*
X96325305Y-102580000D01*
X96325305Y-102580000D02*
X96715000Y-102190305D01*
%TO.N,GPIO20*%
X95777500Y-106580000D02*
X96426842Y-106580000D01*
X96426842Y-106580000D02*
X101240000Y-111393158D01*
X101240000Y-111393158D02*
X101240000Y-111530000D01*
%TO.N,GPIO28_ADC2*%
X98496000Y-101484000D02*
X98496000Y-86334000D01*
X97000000Y-102980000D02*
X98496000Y-101484000D01*
X95777500Y-102980000D02*
X97000000Y-102980000D01*
X98496000Y-86334000D02*
X101240000Y-83590000D01*
%TO.N,GPIO26_ADC0*%
X99248000Y-93202000D02*
X101240000Y-91210000D01*
X99248000Y-101803744D02*
X99248000Y-93202000D01*
X95777500Y-103780000D02*
X97250000Y-103780000D01*
X97274000Y-103756000D02*
X97295744Y-103756000D01*
X97250000Y-103780000D02*
X97274000Y-103756000D01*
X97295744Y-103756000D02*
X99248000Y-101803744D01*
%TO.N,GPIO24*%
X98148256Y-104580000D02*
X99624000Y-103104256D01*
X95777500Y-104580000D02*
X98148256Y-104580000D01*
X99624000Y-103104256D02*
X99624000Y-97906000D01*
X99624000Y-97906000D02*
X101240000Y-96290000D01*
%TO.N,GPIO17*%
X97330000Y-110607500D02*
X97330000Y-117780000D01*
X97330000Y-117780000D02*
X101240000Y-121690000D01*
X94940000Y-108217500D02*
X97330000Y-110607500D01*
%TO.N,Net-(U1-USB_DP)*%
X93340000Y-100350000D02*
X93340000Y-101342500D01*
X92960000Y-99970000D02*
X93340000Y-100350000D01*
%TO.N,Net-(U1-USB_DM)*%
X93740000Y-100370000D02*
X93740000Y-101342500D01*
X94140000Y-99970000D02*
X93740000Y-100370000D01*
%TO.N,QSPI_SS*%
X90860000Y-92990000D02*
X88557806Y-92990000D01*
X90960000Y-92890000D02*
X90860000Y-92990000D01*
X87789500Y-98539500D02*
X87134634Y-98539500D01*
X88557806Y-92990000D02*
X87281500Y-94266306D01*
X87281500Y-94266306D02*
X87281500Y-95706500D01*
X87281500Y-95706500D02*
X87825000Y-96250000D01*
X86710500Y-96882757D02*
X87343257Y-96250000D01*
X90960000Y-91380000D02*
X90960000Y-92890000D01*
X89740000Y-100490000D02*
X87789500Y-98539500D01*
X86710500Y-98115366D02*
X86710500Y-96882757D01*
X87343257Y-96250000D02*
X87825000Y-96250000D01*
X89740000Y-101041250D02*
X89751500Y-101029750D01*
X89740000Y-101342500D02*
X89740000Y-101041250D01*
X89740000Y-101342500D02*
X89740000Y-100490000D01*
X87134634Y-98539500D02*
X86710500Y-98115366D01*
%TO.N,Net-(R6-Pad1)*%
X90960000Y-90360000D02*
X88875000Y-90360000D01*
X88875000Y-90360000D02*
X88720000Y-90205000D01*
%TO.N,QSPI_SCLK*%
X91340000Y-98033122D02*
X91413500Y-97959622D01*
X91413500Y-97959622D02*
X91413500Y-97540378D01*
X91123122Y-97250000D02*
X90675000Y-97250000D01*
X91340000Y-101342500D02*
X91340000Y-98033122D01*
X91413500Y-97540378D02*
X91123122Y-97250000D01*
%TO.N,QSPI_SD2*%
X89750000Y-99218256D02*
X90540000Y-100008256D01*
X88730000Y-96080000D02*
X88898500Y-95911500D01*
X89638500Y-95911500D02*
X89750000Y-96023000D01*
X87825000Y-97250000D02*
X88274999Y-97250000D01*
X88898500Y-95911500D02*
X89638500Y-95911500D01*
X89750000Y-96023000D02*
X89750000Y-99218256D01*
X90540000Y-100008256D02*
X90540000Y-101342500D01*
X88274999Y-97250000D02*
X88730000Y-96794999D01*
X88730000Y-96794999D02*
X88730000Y-96080000D01*
%TO.N,QSPI_SD3*%
X91789500Y-97369500D02*
X91170000Y-96750000D01*
X91170000Y-96750000D02*
X90675000Y-96750000D01*
X91740000Y-101342500D02*
X91751500Y-101331000D01*
X91751500Y-101331000D02*
X91751500Y-98153366D01*
X91789500Y-98115366D02*
X91789500Y-97369500D01*
X91751500Y-98153366D02*
X91789500Y-98115366D01*
%TO.N,QSPI_SD0*%
X90928500Y-100813402D02*
X90928500Y-101331000D01*
X90916000Y-100800902D02*
X90928500Y-100813402D01*
X90500000Y-99195256D02*
X90916000Y-99611256D01*
X90916000Y-99611256D02*
X90916000Y-100800902D01*
X90675000Y-97750000D02*
X90500000Y-97925000D01*
X90500000Y-97925000D02*
X90500000Y-99195256D01*
X90928500Y-101331000D02*
X90940000Y-101342500D01*
D38*
%TO.N,GPIO25*%
X95777500Y-104180000D02*
X97702594Y-104180000D01*
X95930000Y-94590000D02*
X95930000Y-96227500D01*
X97702594Y-104180000D02*
X97890094Y-103992500D01*
X95930000Y-96227500D02*
X95905000Y-96252500D01*
D37*
%TO.N,QSPI_SD1*%
X87290378Y-98163500D02*
X87086500Y-97959622D01*
X87126878Y-97500000D02*
X87086500Y-97459622D01*
X88163500Y-98163500D02*
X87290378Y-98163500D01*
X90140000Y-100140000D02*
X88163500Y-98163500D01*
X87086500Y-97459622D02*
X87086500Y-97038501D01*
X90140000Y-101342500D02*
X90140000Y-100140000D01*
X87086500Y-97038501D02*
X87375001Y-96750000D01*
X87086500Y-97959622D02*
X87086500Y-97540378D01*
X87375001Y-96750000D02*
X87825000Y-96750000D01*
X87086500Y-97540378D02*
X87126878Y-97500000D01*
D38*
%TO.N,Net-(C15-Pad1)*%
X93020000Y-111790000D02*
X92650000Y-111420000D01*
D37*
X93430000Y-109980000D02*
X93430000Y-110640000D01*
X93430000Y-110640000D02*
X92650000Y-111420000D01*
D38*
X94190000Y-111790000D02*
X93020000Y-111790000D01*
%TO.N,Net-(D1-K)*%
X94522500Y-85950000D02*
X94522500Y-84357500D01*
X94522500Y-84357500D02*
X94485000Y-84320000D01*
%TD*%
%TA.AperFunction,Conductor*%
%TO.N,GND*%
G36*
X88018834Y-112725364D02*
G01*
X88074767Y-112767236D01*
X88099184Y-112832700D01*
X88099500Y-112841546D01*
X88099500Y-112984697D01*
X88102356Y-113020991D01*
X88102357Y-113020997D01*
X88147504Y-113176390D01*
X88147505Y-113176393D01*
X88229881Y-113315684D01*
X88229887Y-113315692D01*
X88344307Y-113430112D01*
X88344311Y-113430115D01*
X88344313Y-113430117D01*
X88483605Y-113512494D01*
X88524587Y-113524400D01*
X88639002Y-113557642D01*
X88639005Y-113557642D01*
X88639007Y-113557643D01*
X88675310Y-113560500D01*
X88675318Y-113560500D01*
X89125501Y-113560500D01*
X89192540Y-113580185D01*
X89238295Y-113632989D01*
X89249501Y-113684500D01*
X89249501Y-113767876D01*
X89255908Y-113827483D01*
X89306202Y-113962328D01*
X89306206Y-113962335D01*
X89392452Y-114077544D01*
X89392455Y-114077547D01*
X89507664Y-114163793D01*
X89507671Y-114163797D01*
X89642517Y-114214091D01*
X89642516Y-114214091D01*
X89649444Y-114214835D01*
X89702127Y-114220500D01*
X91197872Y-114220499D01*
X91257483Y-114214091D01*
X91392331Y-114163796D01*
X91476105Y-114101082D01*
X91541569Y-114076665D01*
X91609842Y-114091516D01*
X91624727Y-114101082D01*
X91707910Y-114163352D01*
X91707913Y-114163354D01*
X91842620Y-114213596D01*
X91842627Y-114213598D01*
X91902155Y-114219999D01*
X91902172Y-114220000D01*
X92067020Y-114220000D01*
X92134059Y-114239685D01*
X92179814Y-114292489D01*
X92189758Y-114361647D01*
X92160733Y-114425203D01*
X92135911Y-114447102D01*
X92042211Y-114509710D01*
X92042207Y-114509713D01*
X91930713Y-114621207D01*
X91930710Y-114621211D01*
X91843109Y-114752314D01*
X91843102Y-114752327D01*
X91782764Y-114897998D01*
X91782761Y-114898010D01*
X91752000Y-115052653D01*
X91752000Y-115210346D01*
X91782761Y-115364989D01*
X91782764Y-115365001D01*
X91843102Y-115510672D01*
X91843109Y-115510685D01*
X91930710Y-115641788D01*
X91930713Y-115641792D01*
X92042207Y-115753286D01*
X92042211Y-115753289D01*
X92173314Y-115840890D01*
X92173327Y-115840897D01*
X92263721Y-115878339D01*
X92318125Y-115922180D01*
X92337886Y-115968708D01*
X92352761Y-116043491D01*
X92352764Y-116043501D01*
X92413102Y-116189172D01*
X92413109Y-116189185D01*
X92500710Y-116320288D01*
X92504576Y-116324999D01*
X92502884Y-116326386D01*
X92531659Y-116379048D01*
X92534500Y-116405440D01*
X92534500Y-120382580D01*
X92514815Y-120449619D01*
X92498181Y-120470261D01*
X90365260Y-122603181D01*
X90303937Y-122636666D01*
X90277579Y-122639500D01*
X88912129Y-122639500D01*
X88912123Y-122639501D01*
X88852516Y-122645908D01*
X88717671Y-122696202D01*
X88717664Y-122696206D01*
X88602455Y-122782452D01*
X88602452Y-122782455D01*
X88516206Y-122897664D01*
X88516202Y-122897671D01*
X88465908Y-123032517D01*
X88459501Y-123092116D01*
X88459500Y-123092135D01*
X88459500Y-124887870D01*
X88459501Y-124887876D01*
X88466738Y-124955196D01*
X88465342Y-124955345D01*
X88462050Y-125016756D01*
X88421182Y-125073427D01*
X88356163Y-125099007D01*
X88345114Y-125099500D01*
X84735019Y-125099500D01*
X84667980Y-125079815D01*
X84622225Y-125027011D01*
X84612281Y-124957853D01*
X84624534Y-124919205D01*
X84649714Y-124869786D01*
X84711557Y-124748412D01*
X84777246Y-124546243D01*
X84810500Y-124336287D01*
X84810500Y-124123713D01*
X84777246Y-123913757D01*
X84759172Y-123858130D01*
X84757177Y-123788291D01*
X84789420Y-123732135D01*
X85932518Y-122589040D01*
X86009930Y-122454959D01*
X86050001Y-122305411D01*
X86050001Y-122150588D01*
X86050001Y-122142993D01*
X86050000Y-122142975D01*
X86050000Y-114643046D01*
X86069685Y-114576007D01*
X86086314Y-114555370D01*
X87887819Y-112753864D01*
X87949142Y-112720380D01*
X88018834Y-112725364D01*
G37*
%TD.AperFunction*%
%TA.AperFunction,Conductor*%
G36*
X93465270Y-124751717D02*
G01*
X93465270Y-124751716D01*
X93504622Y-124697555D01*
X93509232Y-124688507D01*
X93557205Y-124637709D01*
X93625025Y-124620912D01*
X93691161Y-124643447D01*
X93730204Y-124688504D01*
X93734949Y-124697817D01*
X93859890Y-124869786D01*
X93877923Y-124887819D01*
X93911408Y-124949142D01*
X93906424Y-125018834D01*
X93864552Y-125074767D01*
X93799088Y-125099184D01*
X93790242Y-125099500D01*
X93157308Y-125099500D01*
X93090269Y-125079815D01*
X93069627Y-125063181D01*
X92479408Y-124472962D01*
X92542993Y-124455925D01*
X92657007Y-124390099D01*
X92750099Y-124297007D01*
X92815925Y-124182993D01*
X92832962Y-124119409D01*
X93465270Y-124751717D01*
G37*
%TD.AperFunction*%
%TA.AperFunction,Conductor*%
G36*
X96271334Y-113165001D02*
G01*
X96327267Y-113206873D01*
X96351684Y-113272337D01*
X96352000Y-113281183D01*
X96352000Y-120007411D01*
X96392071Y-120156961D01*
X96430777Y-120224000D01*
X96469483Y-120291041D01*
X96469485Y-120291043D01*
X96586024Y-120407582D01*
X96586030Y-120407587D01*
X99910576Y-123732133D01*
X99944061Y-123793456D01*
X99940827Y-123858130D01*
X99922753Y-123913757D01*
X99893844Y-124096286D01*
X99889500Y-124123713D01*
X99889500Y-124336287D01*
X99922754Y-124546243D01*
X99972003Y-124697816D01*
X99988444Y-124748414D01*
X100075466Y-124919205D01*
X100088362Y-124987875D01*
X100062086Y-125052615D01*
X100004979Y-125092872D01*
X99964981Y-125099500D01*
X95989758Y-125099500D01*
X95922719Y-125079815D01*
X95876964Y-125027011D01*
X95867020Y-124957853D01*
X95896045Y-124894297D01*
X95902077Y-124887819D01*
X95920104Y-124869792D01*
X95920106Y-124869788D01*
X95920109Y-124869786D01*
X96045048Y-124697820D01*
X96045050Y-124697817D01*
X96045051Y-124697816D01*
X96141557Y-124508412D01*
X96207246Y-124306243D01*
X96240500Y-124096287D01*
X96240500Y-123883713D01*
X96207246Y-123673757D01*
X96141557Y-123471588D01*
X96045051Y-123282184D01*
X96045049Y-123282181D01*
X96045048Y-123282179D01*
X95920109Y-123110213D01*
X95769786Y-122959890D01*
X95597820Y-122834951D01*
X95408414Y-122738444D01*
X95408413Y-122738443D01*
X95408412Y-122738443D01*
X95206243Y-122672754D01*
X95206241Y-122672753D01*
X95206240Y-122672753D01*
X95044957Y-122647208D01*
X94996287Y-122639500D01*
X94783713Y-122639500D01*
X94735042Y-122647208D01*
X94573760Y-122672753D01*
X94371585Y-122738444D01*
X94182179Y-122834951D01*
X94010213Y-122959890D01*
X93859890Y-123110213D01*
X93734949Y-123282182D01*
X93730202Y-123291499D01*
X93682227Y-123342293D01*
X93614405Y-123359087D01*
X93548271Y-123336548D01*
X93509234Y-123291495D01*
X93504626Y-123282452D01*
X93465270Y-123228282D01*
X93465269Y-123228282D01*
X92832962Y-123860590D01*
X92815925Y-123797007D01*
X92750099Y-123682993D01*
X92657007Y-123589901D01*
X92542993Y-123524075D01*
X92479407Y-123507036D01*
X93111716Y-122874728D01*
X93057550Y-122835375D01*
X92868217Y-122738904D01*
X92666129Y-122673242D01*
X92456246Y-122640000D01*
X92290918Y-122640000D01*
X92223879Y-122620315D01*
X92178124Y-122567511D01*
X92168180Y-122498353D01*
X92197205Y-122434797D01*
X92203217Y-122428339D01*
X93593017Y-121038541D01*
X93670429Y-120904460D01*
X93710500Y-120754912D01*
X93710500Y-120600089D01*
X93710500Y-116405440D01*
X93730185Y-116338401D01*
X93740763Y-116325277D01*
X93740424Y-116324999D01*
X93744284Y-116320293D01*
X93744289Y-116320289D01*
X93831894Y-116189179D01*
X93841551Y-116165866D01*
X93892235Y-116043501D01*
X93892237Y-116043497D01*
X93923000Y-115888842D01*
X93923000Y-115731158D01*
X93923000Y-115731155D01*
X93922999Y-115731153D01*
X93901493Y-115623036D01*
X93892237Y-115576503D01*
X93884426Y-115557647D01*
X93876957Y-115488182D01*
X93908230Y-115425702D01*
X93911277Y-115422543D01*
X96140321Y-113193500D01*
X96201642Y-113160017D01*
X96271334Y-113165001D01*
G37*
%TD.AperFunction*%
%TA.AperFunction,Conductor*%
G36*
X102313181Y-119869627D02*
G01*
X102346666Y-119930950D01*
X102349500Y-119957308D01*
X102349500Y-120590242D01*
X102329815Y-120657281D01*
X102277011Y-120703036D01*
X102207853Y-120712980D01*
X102144297Y-120683955D01*
X102137819Y-120677923D01*
X102119786Y-120659890D01*
X101947817Y-120534949D01*
X101938504Y-120530204D01*
X101887707Y-120482230D01*
X101870912Y-120414409D01*
X101893449Y-120348274D01*
X101938507Y-120309232D01*
X101947555Y-120304622D01*
X102001716Y-120265270D01*
X102001717Y-120265270D01*
X101369408Y-119632962D01*
X101432993Y-119615925D01*
X101547007Y-119550099D01*
X101640099Y-119457007D01*
X101705925Y-119342993D01*
X101722962Y-119279408D01*
X102313181Y-119869627D01*
G37*
%TD.AperFunction*%
%TA.AperFunction,Conductor*%
G36*
X82994075Y-119342993D02*
G01*
X83059901Y-119457007D01*
X83152993Y-119550099D01*
X83267007Y-119615925D01*
X83330589Y-119632962D01*
X82698282Y-120265269D01*
X82698282Y-120265270D01*
X82752452Y-120304626D01*
X82752451Y-120304626D01*
X82761495Y-120309234D01*
X82812292Y-120357208D01*
X82829087Y-120425029D01*
X82806550Y-120491164D01*
X82761499Y-120530202D01*
X82752182Y-120534949D01*
X82580213Y-120659890D01*
X82580209Y-120659894D01*
X82562181Y-120677923D01*
X82500858Y-120711408D01*
X82431166Y-120706424D01*
X82375233Y-120664552D01*
X82350816Y-120599088D01*
X82350500Y-120590242D01*
X82350500Y-119957308D01*
X82370185Y-119890269D01*
X82386819Y-119869627D01*
X82977037Y-119279408D01*
X82994075Y-119342993D01*
G37*
%TD.AperFunction*%
%TA.AperFunction,Conductor*%
G36*
X98123203Y-114325206D02*
G01*
X98129679Y-114331236D01*
X99023490Y-115225048D01*
X99910576Y-116112134D01*
X99944061Y-116173457D01*
X99940827Y-116238131D01*
X99922753Y-116293757D01*
X99889500Y-116503713D01*
X99889500Y-116716286D01*
X99922753Y-116926239D01*
X99988444Y-117128414D01*
X100084951Y-117317820D01*
X100209890Y-117489786D01*
X100360213Y-117640109D01*
X100532179Y-117765048D01*
X100532181Y-117765049D01*
X100532184Y-117765051D01*
X100541493Y-117769794D01*
X100592290Y-117817766D01*
X100609087Y-117885587D01*
X100586552Y-117951722D01*
X100541505Y-117990760D01*
X100532446Y-117995376D01*
X100532440Y-117995380D01*
X100478282Y-118034727D01*
X100478282Y-118034728D01*
X101110591Y-118667037D01*
X101047007Y-118684075D01*
X100932993Y-118749901D01*
X100839901Y-118842993D01*
X100774075Y-118957007D01*
X100757037Y-119020591D01*
X100124728Y-118388282D01*
X100124727Y-118388282D01*
X100085380Y-118442439D01*
X99988904Y-118631782D01*
X99923242Y-118833869D01*
X99923242Y-118833872D01*
X99890000Y-119043753D01*
X99890000Y-119209081D01*
X99870315Y-119276120D01*
X99817511Y-119321875D01*
X99748353Y-119331819D01*
X99684797Y-119302794D01*
X99678319Y-119296762D01*
X97954319Y-117572762D01*
X97920834Y-117511439D01*
X97918000Y-117485081D01*
X97918000Y-114418919D01*
X97937685Y-114351880D01*
X97990489Y-114306125D01*
X98059647Y-114296181D01*
X98123203Y-114325206D01*
G37*
%TD.AperFunction*%
%TA.AperFunction,Conductor*%
G36*
X82555703Y-117616045D02*
G01*
X82562181Y-117622077D01*
X82580213Y-117640109D01*
X82752179Y-117765048D01*
X82752181Y-117765049D01*
X82752184Y-117765051D01*
X82761493Y-117769794D01*
X82812290Y-117817766D01*
X82829087Y-117885587D01*
X82806552Y-117951722D01*
X82761505Y-117990760D01*
X82752446Y-117995376D01*
X82752440Y-117995380D01*
X82698282Y-118034727D01*
X82698282Y-118034728D01*
X83330591Y-118667037D01*
X83267007Y-118684075D01*
X83152993Y-118749901D01*
X83059901Y-118842993D01*
X82994075Y-118957007D01*
X82977037Y-119020591D01*
X82386819Y-118430373D01*
X82353334Y-118369050D01*
X82350500Y-118342692D01*
X82350500Y-117709758D01*
X82370185Y-117642719D01*
X82422989Y-117596964D01*
X82492147Y-117587020D01*
X82555703Y-117616045D01*
G37*
%TD.AperFunction*%
%TA.AperFunction,Conductor*%
G36*
X102268834Y-117593576D02*
G01*
X102324767Y-117635448D01*
X102349184Y-117700912D01*
X102349500Y-117709758D01*
X102349500Y-118342692D01*
X102329815Y-118409731D01*
X102313181Y-118430373D01*
X101722962Y-119020591D01*
X101705925Y-118957007D01*
X101640099Y-118842993D01*
X101547007Y-118749901D01*
X101432993Y-118684075D01*
X101369409Y-118667037D01*
X102001716Y-118034728D01*
X101947547Y-117995373D01*
X101947547Y-117995372D01*
X101938500Y-117990763D01*
X101887706Y-117942788D01*
X101870912Y-117874966D01*
X101893451Y-117808832D01*
X101938508Y-117769793D01*
X101947816Y-117765051D01*
X102036096Y-117700912D01*
X102119786Y-117640109D01*
X102119788Y-117640106D01*
X102119792Y-117640104D01*
X102137819Y-117622077D01*
X102199142Y-117588592D01*
X102268834Y-117593576D01*
G37*
%TD.AperFunction*%
%TA.AperFunction,Conductor*%
G36*
X95513992Y-110769685D02*
G01*
X95534634Y-110786319D01*
X95623681Y-110875366D01*
X95638384Y-110902293D01*
X95654977Y-110928112D01*
X95655868Y-110934312D01*
X95657166Y-110936689D01*
X95660000Y-110963047D01*
X95660000Y-111200919D01*
X95642733Y-111264039D01*
X95607504Y-111323608D01*
X95607504Y-111323609D01*
X95562357Y-111479002D01*
X95562356Y-111479008D01*
X95559500Y-111515302D01*
X95559500Y-111626000D01*
X95556949Y-111634685D01*
X95558238Y-111643647D01*
X95547259Y-111667687D01*
X95539815Y-111693039D01*
X95532974Y-111698966D01*
X95529213Y-111707203D01*
X95506978Y-111721492D01*
X95487011Y-111738794D01*
X95476496Y-111741081D01*
X95470435Y-111744977D01*
X95435500Y-111750000D01*
X95254000Y-111750000D01*
X95186961Y-111730315D01*
X95141206Y-111677511D01*
X95130000Y-111626000D01*
X95130000Y-111299079D01*
X95147267Y-111235959D01*
X95182494Y-111176395D01*
X95227643Y-111020993D01*
X95230500Y-110984690D01*
X95230500Y-110874000D01*
X95233050Y-110865314D01*
X95231762Y-110856353D01*
X95242740Y-110832312D01*
X95250185Y-110806961D01*
X95257025Y-110801033D01*
X95260787Y-110792797D01*
X95283021Y-110778507D01*
X95302989Y-110761206D01*
X95313503Y-110758918D01*
X95319565Y-110755023D01*
X95354500Y-110750000D01*
X95446953Y-110750000D01*
X95513992Y-110769685D01*
G37*
%TD.AperFunction*%
%TA.AperFunction,Conductor*%
G36*
X91071334Y-109801322D02*
G01*
X91127267Y-109843194D01*
X91151684Y-109908658D01*
X91152000Y-109917504D01*
X91152000Y-110196000D01*
X91132315Y-110263039D01*
X91079511Y-110308794D01*
X91028000Y-110320000D01*
X90749504Y-110320000D01*
X90682465Y-110300315D01*
X90636710Y-110247511D01*
X90626766Y-110178353D01*
X90655791Y-110114797D01*
X90661823Y-110108319D01*
X90885746Y-109884396D01*
X90940320Y-109829822D01*
X91001642Y-109796338D01*
X91071334Y-109801322D01*
G37*
%TD.AperFunction*%
%TA.AperFunction,Conductor*%
G36*
X95904620Y-108000185D02*
G01*
X95925262Y-108016819D01*
X97065681Y-109157238D01*
X97080384Y-109184165D01*
X97096977Y-109209984D01*
X97097868Y-109216184D01*
X97099166Y-109218561D01*
X97102000Y-109244919D01*
X97102000Y-109248580D01*
X97082315Y-109315619D01*
X97029511Y-109361374D01*
X96960353Y-109371318D01*
X96896797Y-109342293D01*
X96890319Y-109336261D01*
X95746239Y-108192181D01*
X95712754Y-108130858D01*
X95717738Y-108061166D01*
X95759610Y-108005233D01*
X95825074Y-107980816D01*
X95833920Y-107980500D01*
X95837581Y-107980500D01*
X95904620Y-108000185D01*
G37*
%TD.AperFunction*%
%TA.AperFunction,Conductor*%
G36*
X99873505Y-105987685D02*
G01*
X99919260Y-106040489D01*
X99929204Y-106109647D01*
X99924396Y-106130321D01*
X99923242Y-106133870D01*
X99898926Y-106287390D01*
X99890000Y-106424718D01*
X99890000Y-106556246D01*
X99923242Y-106766127D01*
X99923242Y-106766130D01*
X99988904Y-106968217D01*
X100085375Y-107157550D01*
X100124728Y-107211716D01*
X100757037Y-106579408D01*
X100774075Y-106642993D01*
X100839901Y-106757007D01*
X100932993Y-106850099D01*
X101047007Y-106915925D01*
X101110590Y-106932962D01*
X100478282Y-107565269D01*
X100478282Y-107565270D01*
X100532452Y-107604626D01*
X100532451Y-107604626D01*
X100541495Y-107609234D01*
X100592292Y-107657208D01*
X100609087Y-107725029D01*
X100586550Y-107791164D01*
X100541499Y-107830202D01*
X100532182Y-107834949D01*
X100360213Y-107959890D01*
X100209894Y-108110209D01*
X100209890Y-108110214D01*
X100102502Y-108258022D01*
X100047172Y-108300688D01*
X99977559Y-108306667D01*
X99915764Y-108274061D01*
X99914503Y-108272818D01*
X98666319Y-107024634D01*
X98632834Y-106963311D01*
X98630000Y-106936953D01*
X98630000Y-106884503D01*
X99130000Y-106884503D01*
X99276195Y-106842031D01*
X99415374Y-106759721D01*
X99415383Y-106759714D01*
X99529714Y-106645383D01*
X99529721Y-106645374D01*
X99612031Y-106506195D01*
X99612033Y-106506190D01*
X99643140Y-106399119D01*
X99647633Y-106330000D01*
X99130000Y-106330000D01*
X99130000Y-106884503D01*
X98630000Y-106884503D01*
X98630000Y-106578352D01*
X98647267Y-106515233D01*
X98652494Y-106506395D01*
X98653550Y-106502762D01*
X98697642Y-106350997D01*
X98697643Y-106350991D01*
X98700499Y-106314697D01*
X98700500Y-106314690D01*
X98700500Y-106204000D01*
X98720185Y-106136961D01*
X98758859Y-106098799D01*
X98938359Y-105986799D01*
X98946277Y-105984588D01*
X98952489Y-105979206D01*
X99004000Y-105968000D01*
X99806466Y-105968000D01*
X99873505Y-105987685D01*
G37*
%TD.AperFunction*%
%TA.AperFunction,Conductor*%
G36*
X102313181Y-107169627D02*
G01*
X102346666Y-107230950D01*
X102349500Y-107257308D01*
X102349500Y-107890242D01*
X102329815Y-107957281D01*
X102277011Y-108003036D01*
X102207853Y-108012980D01*
X102144297Y-107983955D01*
X102137819Y-107977923D01*
X102119786Y-107959890D01*
X101947817Y-107834949D01*
X101938504Y-107830204D01*
X101887707Y-107782230D01*
X101870912Y-107714409D01*
X101893449Y-107648274D01*
X101938507Y-107609232D01*
X101947555Y-107604622D01*
X102001716Y-107565270D01*
X102001717Y-107565270D01*
X101369408Y-106932962D01*
X101432993Y-106915925D01*
X101547007Y-106850099D01*
X101640099Y-106757007D01*
X101705925Y-106642993D01*
X101722962Y-106579408D01*
X102313181Y-107169627D01*
G37*
%TD.AperFunction*%
%TA.AperFunction,Conductor*%
G36*
X82994075Y-106642993D02*
G01*
X83059901Y-106757007D01*
X83152993Y-106850099D01*
X83267007Y-106915925D01*
X83330589Y-106932962D01*
X82698282Y-107565269D01*
X82698282Y-107565270D01*
X82752452Y-107604626D01*
X82752451Y-107604626D01*
X82761495Y-107609234D01*
X82812292Y-107657208D01*
X82829087Y-107725029D01*
X82806550Y-107791164D01*
X82761499Y-107830202D01*
X82752182Y-107834949D01*
X82580213Y-107959890D01*
X82580209Y-107959894D01*
X82562181Y-107977923D01*
X82500858Y-108011408D01*
X82431166Y-108006424D01*
X82375233Y-107964552D01*
X82350816Y-107899088D01*
X82350500Y-107890242D01*
X82350500Y-107257308D01*
X82370185Y-107190269D01*
X82386819Y-107169627D01*
X82977037Y-106579408D01*
X82994075Y-106642993D01*
G37*
%TD.AperFunction*%
%TA.AperFunction,Conductor*%
G36*
X92849014Y-102574612D02*
G01*
X92873697Y-102588863D01*
X92916013Y-102613295D01*
X92916014Y-102613295D01*
X92921442Y-102616429D01*
X92966704Y-102628556D01*
X92968515Y-102629102D01*
X92996247Y-102647194D01*
X93024520Y-102664427D01*
X93026209Y-102666740D01*
X93027033Y-102667278D01*
X93027719Y-102668808D01*
X93040151Y-102685834D01*
X93084675Y-102762950D01*
X93084677Y-102762952D01*
X93201216Y-102879491D01*
X93201222Y-102879496D01*
X93425069Y-103103343D01*
X93425079Y-103103354D01*
X93429409Y-103107684D01*
X93429410Y-103107685D01*
X93538886Y-103217161D01*
X93672967Y-103294573D01*
X93822515Y-103334644D01*
X93822516Y-103334644D01*
X93977338Y-103334644D01*
X94310046Y-103334644D01*
X94315500Y-103334644D01*
X94382539Y-103354329D01*
X94428294Y-103407133D01*
X94439500Y-103458644D01*
X94439500Y-105493330D01*
X94439499Y-105493348D01*
X94439499Y-105659054D01*
X94439498Y-105659054D01*
X94480424Y-105811789D01*
X94480425Y-105811790D01*
X94502785Y-105850517D01*
X94506766Y-105857412D01*
X94559480Y-105948716D01*
X94605834Y-105995070D01*
X94611795Y-106003413D01*
X94620040Y-106027115D01*
X94632068Y-106049142D01*
X94631323Y-106059549D01*
X94634752Y-106069404D01*
X94628874Y-106093800D01*
X94627084Y-106118834D01*
X94620830Y-106127187D01*
X94618387Y-106137330D01*
X94600251Y-106154677D01*
X94585212Y-106174767D01*
X94575436Y-106178412D01*
X94567897Y-106185625D01*
X94543262Y-106190413D01*
X94519748Y-106199184D01*
X94510902Y-106199500D01*
X94431155Y-106199500D01*
X94276510Y-106230261D01*
X94276498Y-106230264D01*
X94130822Y-106290604D01*
X94127134Y-106292576D01*
X94058730Y-106306812D01*
X93999799Y-106286316D01*
X93912084Y-106227707D01*
X93912073Y-106227701D01*
X93766402Y-106167363D01*
X93766390Y-106167360D01*
X93611746Y-106136599D01*
X93611743Y-106136599D01*
X93454059Y-106136599D01*
X93454056Y-106136599D01*
X93299411Y-106167360D01*
X93299399Y-106167363D01*
X93153729Y-106227701D01*
X93153715Y-106227709D01*
X93130650Y-106243120D01*
X93063972Y-106263996D01*
X92996592Y-106245509D01*
X92992871Y-106243118D01*
X92959184Y-106220609D01*
X92959172Y-106220602D01*
X92813501Y-106160264D01*
X92813489Y-106160261D01*
X92658845Y-106129500D01*
X92658842Y-106129500D01*
X92501158Y-106129500D01*
X92501155Y-106129500D01*
X92346510Y-106160261D01*
X92346498Y-106160264D01*
X92200827Y-106220602D01*
X92200814Y-106220609D01*
X92069711Y-106308210D01*
X92069707Y-106308213D01*
X91958213Y-106419707D01*
X91958210Y-106419711D01*
X91870609Y-106550814D01*
X91870602Y-106550827D01*
X91810264Y-106696498D01*
X91810261Y-106696508D01*
X91788941Y-106803692D01*
X91756556Y-106865603D01*
X91695840Y-106900177D01*
X91667324Y-106903500D01*
X90726419Y-106903500D01*
X90659380Y-106883815D01*
X90638738Y-106867181D01*
X90274319Y-106502762D01*
X90240834Y-106441439D01*
X90238000Y-106415081D01*
X90238000Y-105634918D01*
X90257685Y-105567879D01*
X90274315Y-105547241D01*
X90580831Y-105240724D01*
X90580836Y-105240721D01*
X90591039Y-105230517D01*
X90591041Y-105230517D01*
X90700517Y-105121041D01*
X90777929Y-104986960D01*
X90818000Y-104837412D01*
X90818000Y-104385151D01*
X90834614Y-104323150D01*
X90876426Y-104250730D01*
X90876425Y-104250730D01*
X90876429Y-104250725D01*
X90916500Y-104101177D01*
X90916500Y-103458823D01*
X90876429Y-103309275D01*
X90834613Y-103236847D01*
X90818000Y-103174847D01*
X90818000Y-102780500D01*
X90837685Y-102713461D01*
X90890489Y-102667706D01*
X90942000Y-102656500D01*
X92409008Y-102656500D01*
X92409009Y-102656500D01*
X92409010Y-102656500D01*
X92558558Y-102616429D01*
X92630985Y-102574612D01*
X92646473Y-102570462D01*
X92658050Y-102563023D01*
X92692985Y-102558000D01*
X92787015Y-102558000D01*
X92849014Y-102574612D01*
G37*
%TD.AperFunction*%
%TA.AperFunction,Conductor*%
G36*
X82555703Y-104916045D02*
G01*
X82562181Y-104922077D01*
X82580213Y-104940109D01*
X82752179Y-105065048D01*
X82752181Y-105065049D01*
X82752184Y-105065051D01*
X82761493Y-105069794D01*
X82812290Y-105117766D01*
X82829087Y-105185587D01*
X82806552Y-105251722D01*
X82761505Y-105290760D01*
X82752446Y-105295376D01*
X82752440Y-105295380D01*
X82698282Y-105334727D01*
X82698282Y-105334728D01*
X83330591Y-105967037D01*
X83267007Y-105984075D01*
X83152993Y-106049901D01*
X83059901Y-106142993D01*
X82994075Y-106257007D01*
X82977037Y-106320591D01*
X82386819Y-105730373D01*
X82353334Y-105669050D01*
X82350500Y-105642692D01*
X82350500Y-105009758D01*
X82370185Y-104942719D01*
X82422989Y-104896964D01*
X82492147Y-104887020D01*
X82555703Y-104916045D01*
G37*
%TD.AperFunction*%
%TA.AperFunction,Conductor*%
G36*
X102268834Y-104893576D02*
G01*
X102324767Y-104935448D01*
X102349184Y-105000912D01*
X102349500Y-105009758D01*
X102349500Y-105642692D01*
X102329815Y-105709731D01*
X102313181Y-105730373D01*
X101722962Y-106320591D01*
X101705925Y-106257007D01*
X101640099Y-106142993D01*
X101547007Y-106049901D01*
X101432993Y-105984075D01*
X101369408Y-105967037D01*
X102001716Y-105334728D01*
X101947547Y-105295373D01*
X101947547Y-105295372D01*
X101938500Y-105290763D01*
X101887706Y-105242788D01*
X101870912Y-105174966D01*
X101893451Y-105108832D01*
X101938508Y-105069793D01*
X101947816Y-105065051D01*
X102046049Y-104993681D01*
X102119786Y-104940109D01*
X102119788Y-104940106D01*
X102119792Y-104940104D01*
X102137819Y-104922077D01*
X102199142Y-104888592D01*
X102268834Y-104893576D01*
G37*
%TD.AperFunction*%
%TA.AperFunction,Conductor*%
G36*
X84512503Y-102329907D02*
G01*
X84556850Y-102358408D01*
X84620524Y-102422082D01*
X84620530Y-102422087D01*
X85694981Y-103496538D01*
X85694983Y-103496541D01*
X85804459Y-103606017D01*
X85813122Y-103611018D01*
X85824159Y-103621727D01*
X85824449Y-103622239D01*
X85825492Y-103623040D01*
X86213681Y-104011229D01*
X86247166Y-104072552D01*
X86250000Y-104098910D01*
X86250000Y-104269003D01*
X86230315Y-104336042D01*
X86229103Y-104337893D01*
X86220182Y-104351243D01*
X86220176Y-104351254D01*
X86159838Y-104496924D01*
X86159835Y-104496936D01*
X86129074Y-104651579D01*
X86129074Y-104656000D01*
X86109389Y-104723039D01*
X86105748Y-104728392D01*
X85976674Y-104907892D01*
X85951562Y-104927452D01*
X85927511Y-104948294D01*
X85923761Y-104949109D01*
X85921554Y-104950829D01*
X85911774Y-104951717D01*
X85876000Y-104959500D01*
X85765302Y-104959500D01*
X85729008Y-104962356D01*
X85729002Y-104962357D01*
X85573610Y-105007503D01*
X85573605Y-105007506D01*
X85564766Y-105012732D01*
X85501648Y-105030000D01*
X85182919Y-105030000D01*
X85115880Y-105010315D01*
X85095238Y-104993681D01*
X84713967Y-104612410D01*
X84680482Y-104551087D01*
X84681990Y-104530000D01*
X85195496Y-104530000D01*
X85750000Y-104530000D01*
X85750000Y-104001210D01*
X85749999Y-104001209D01*
X85729087Y-104002854D01*
X85729081Y-104002855D01*
X85573809Y-104047966D01*
X85573804Y-104047968D01*
X85434625Y-104130278D01*
X85434616Y-104130285D01*
X85320285Y-104244616D01*
X85320278Y-104244625D01*
X85237968Y-104383804D01*
X85195496Y-104530000D01*
X84681990Y-104530000D01*
X84685466Y-104481395D01*
X84691159Y-104468444D01*
X84711557Y-104428412D01*
X84777246Y-104226243D01*
X84810500Y-104016287D01*
X84810500Y-103803713D01*
X84777246Y-103593757D01*
X84711557Y-103391588D01*
X84615051Y-103202184D01*
X84615049Y-103202181D01*
X84615048Y-103202179D01*
X84490109Y-103030213D01*
X84339786Y-102879890D01*
X84167820Y-102754951D01*
X84167115Y-102754591D01*
X84159054Y-102750485D01*
X84108259Y-102702512D01*
X84091463Y-102634692D01*
X84113999Y-102568556D01*
X84159054Y-102529515D01*
X84167816Y-102525051D01*
X84243921Y-102469758D01*
X84339786Y-102400109D01*
X84339788Y-102400106D01*
X84339792Y-102400104D01*
X84381488Y-102358408D01*
X84442811Y-102324923D01*
X84512503Y-102329907D01*
G37*
%TD.AperFunction*%
%TA.AperFunction,Conductor*%
G36*
X97842136Y-97401136D02*
G01*
X97892122Y-97449954D01*
X97908000Y-97510663D01*
X97908000Y-97844974D01*
X97888315Y-97912013D01*
X97835511Y-97957768D01*
X97766353Y-97967712D01*
X97720879Y-97951706D01*
X97596195Y-97877968D01*
X97596190Y-97877966D01*
X97440918Y-97832855D01*
X97440912Y-97832854D01*
X97420000Y-97831209D01*
X97420000Y-98486000D01*
X97400315Y-98553039D01*
X97347511Y-98598794D01*
X97296000Y-98610000D01*
X97044000Y-98610000D01*
X96976961Y-98590315D01*
X96931206Y-98537511D01*
X96920000Y-98486000D01*
X96920000Y-97831210D01*
X96919999Y-97831209D01*
X96899087Y-97832854D01*
X96899081Y-97832855D01*
X96743809Y-97877966D01*
X96743804Y-97877968D01*
X96604625Y-97960278D01*
X96604616Y-97960285D01*
X96490285Y-98074616D01*
X96490281Y-98074622D01*
X96418966Y-98195207D01*
X96430000Y-98236822D01*
X96430000Y-98958007D01*
X96426618Y-98969522D01*
X96427760Y-98981471D01*
X96416956Y-99002428D01*
X96410315Y-99025046D01*
X96400445Y-99034457D01*
X96395745Y-99043575D01*
X96368003Y-99065393D01*
X96365201Y-99067011D01*
X96336838Y-99083386D01*
X96274837Y-99100000D01*
X96180000Y-99100000D01*
X96180000Y-99155500D01*
X96160315Y-99222539D01*
X96107511Y-99268294D01*
X96056000Y-99279500D01*
X95945302Y-99279500D01*
X95909013Y-99282356D01*
X95909009Y-99282356D01*
X95909007Y-99282357D01*
X95909004Y-99282358D01*
X95839293Y-99302610D01*
X95769424Y-99302409D01*
X95722157Y-99274272D01*
X95721853Y-99274666D01*
X95718668Y-99272195D01*
X95717019Y-99271214D01*
X95715692Y-99269887D01*
X95715684Y-99269881D01*
X95576393Y-99187505D01*
X95576390Y-99187504D01*
X95420997Y-99142357D01*
X95420991Y-99142356D01*
X95384697Y-99139500D01*
X95384690Y-99139500D01*
X95274000Y-99139500D01*
X95265314Y-99136949D01*
X95256353Y-99138238D01*
X95232312Y-99127259D01*
X95206961Y-99119815D01*
X95201033Y-99112974D01*
X95192797Y-99109213D01*
X95178507Y-99086978D01*
X95161206Y-99067011D01*
X95158918Y-99056496D01*
X95155023Y-99050435D01*
X95150000Y-99015500D01*
X95150000Y-98834000D01*
X95169685Y-98766961D01*
X95222489Y-98721206D01*
X95274000Y-98710000D01*
X95930000Y-98710000D01*
X95930000Y-98321210D01*
X95929999Y-98321209D01*
X95909091Y-98322854D01*
X95909085Y-98322855D01*
X95839150Y-98343173D01*
X95769280Y-98342973D01*
X95721813Y-98314716D01*
X95721544Y-98315064D01*
X95718729Y-98312881D01*
X95716875Y-98311777D01*
X95715383Y-98310285D01*
X95715374Y-98310278D01*
X95576195Y-98227968D01*
X95576190Y-98227966D01*
X95484225Y-98201248D01*
X95425339Y-98163642D01*
X95396133Y-98100170D01*
X95405879Y-98030983D01*
X95431136Y-97994494D01*
X95663713Y-97761918D01*
X95663716Y-97761917D01*
X95775520Y-97650113D01*
X95795237Y-97615960D01*
X95804198Y-97606101D01*
X95823110Y-97594570D01*
X95839141Y-97579284D01*
X95854155Y-97575641D01*
X95863853Y-97569729D01*
X95877222Y-97570045D01*
X95895963Y-97565499D01*
X96044362Y-97565499D01*
X96066520Y-97562581D01*
X96161762Y-97550044D01*
X96182545Y-97541434D01*
X96252014Y-97533965D01*
X96277453Y-97541434D01*
X96298238Y-97550044D01*
X96415639Y-97565500D01*
X96694360Y-97565499D01*
X96694361Y-97565499D01*
X96706594Y-97563888D01*
X96811762Y-97550044D01*
X96832545Y-97541434D01*
X96902014Y-97533965D01*
X96927453Y-97541434D01*
X96948238Y-97550044D01*
X97065639Y-97565500D01*
X97344360Y-97565499D01*
X97344361Y-97565499D01*
X97358018Y-97563701D01*
X97461762Y-97550044D01*
X97483200Y-97541163D01*
X97552668Y-97533694D01*
X97578106Y-97541163D01*
X97598365Y-97549554D01*
X97598377Y-97549558D01*
X97654998Y-97557011D01*
X97655000Y-97557010D01*
X97655000Y-97514499D01*
X97656075Y-97510835D01*
X97655220Y-97507115D01*
X97665844Y-97477567D01*
X97674685Y-97447460D01*
X97677943Y-97443917D01*
X97678861Y-97441367D01*
X97703515Y-97416122D01*
X97708522Y-97412280D01*
X97773693Y-97387092D01*
X97842136Y-97401136D01*
G37*
%TD.AperFunction*%
%TA.AperFunction,Conductor*%
G36*
X93863203Y-93631082D02*
G01*
X93869681Y-93637114D01*
X94208181Y-93975614D01*
X94241666Y-94036937D01*
X94244500Y-94063295D01*
X94244500Y-96586000D01*
X94241949Y-96594685D01*
X94243238Y-96603647D01*
X94232259Y-96627687D01*
X94224815Y-96653039D01*
X94217974Y-96658966D01*
X94214213Y-96667203D01*
X94191978Y-96681492D01*
X94172011Y-96698794D01*
X94161496Y-96701081D01*
X94155435Y-96704977D01*
X94120500Y-96710000D01*
X93974500Y-96710000D01*
X93907461Y-96690315D01*
X93861706Y-96637511D01*
X93850500Y-96586000D01*
X93850500Y-96475317D01*
X93850499Y-96475302D01*
X93847643Y-96439008D01*
X93847642Y-96439002D01*
X93802495Y-96283608D01*
X93802492Y-96283600D01*
X93797266Y-96274763D01*
X93792916Y-96258862D01*
X93785023Y-96246580D01*
X93780000Y-96211645D01*
X93780000Y-96158352D01*
X93797267Y-96095233D01*
X93802494Y-96086395D01*
X93847643Y-95930993D01*
X93850500Y-95894690D01*
X93850500Y-95425310D01*
X93847643Y-95389007D01*
X93828611Y-95323500D01*
X93802495Y-95233608D01*
X93802492Y-95233600D01*
X93797266Y-95224763D01*
X93780000Y-95161645D01*
X93780000Y-94855494D01*
X93765645Y-94844717D01*
X93746724Y-94844663D01*
X93688055Y-94806720D01*
X93659212Y-94743081D01*
X93658000Y-94725786D01*
X93658000Y-93724795D01*
X93677685Y-93657756D01*
X93730489Y-93612001D01*
X93799647Y-93602057D01*
X93863203Y-93631082D01*
G37*
%TD.AperFunction*%
%TA.AperFunction,Conductor*%
G36*
X100774075Y-93942993D02*
G01*
X100839901Y-94057007D01*
X100932993Y-94150099D01*
X101047007Y-94215925D01*
X101110590Y-94232962D01*
X100478282Y-94865269D01*
X100478282Y-94865270D01*
X100532452Y-94904626D01*
X100532451Y-94904626D01*
X100541495Y-94909234D01*
X100592292Y-94957208D01*
X100609087Y-95025029D01*
X100586550Y-95091164D01*
X100541499Y-95130202D01*
X100532182Y-95134949D01*
X100360213Y-95259890D01*
X100209890Y-95410213D01*
X100084948Y-95582184D01*
X100084947Y-95582185D01*
X100070484Y-95610571D01*
X100022510Y-95661367D01*
X99954689Y-95678162D01*
X99888554Y-95655624D01*
X99845103Y-95600909D01*
X99836000Y-95554276D01*
X99836000Y-94484621D01*
X99855685Y-94417582D01*
X99908489Y-94371827D01*
X99977647Y-94361883D01*
X100041203Y-94390908D01*
X100070485Y-94428327D01*
X100085373Y-94457547D01*
X100124728Y-94511716D01*
X100757037Y-93879408D01*
X100774075Y-93942993D01*
G37*
%TD.AperFunction*%
%TA.AperFunction,Conductor*%
G36*
X84575269Y-94511716D02*
G01*
X84628771Y-94507506D01*
X84697148Y-94521870D01*
X84746905Y-94570921D01*
X84762500Y-94631124D01*
X84762500Y-95403495D01*
X84742815Y-95470534D01*
X84690011Y-95516289D01*
X84620853Y-95526233D01*
X84557297Y-95497208D01*
X84538182Y-95476381D01*
X84490105Y-95410209D01*
X84339786Y-95259890D01*
X84167817Y-95134949D01*
X84158504Y-95130204D01*
X84107707Y-95082230D01*
X84090912Y-95014409D01*
X84113449Y-94948274D01*
X84158507Y-94909232D01*
X84167555Y-94904622D01*
X84221716Y-94865270D01*
X84221717Y-94865270D01*
X83589408Y-94232962D01*
X83652993Y-94215925D01*
X83767007Y-94150099D01*
X83860099Y-94057007D01*
X83925925Y-93942993D01*
X83942962Y-93879408D01*
X84575269Y-94511716D01*
G37*
%TD.AperFunction*%
%TA.AperFunction,Conductor*%
G36*
X102313181Y-94469627D02*
G01*
X102346666Y-94530950D01*
X102349500Y-94557308D01*
X102349500Y-95190242D01*
X102329815Y-95257281D01*
X102277011Y-95303036D01*
X102207853Y-95312980D01*
X102144297Y-95283955D01*
X102137819Y-95277923D01*
X102119786Y-95259890D01*
X101947817Y-95134949D01*
X101938504Y-95130204D01*
X101887707Y-95082230D01*
X101870912Y-95014409D01*
X101893449Y-94948274D01*
X101938507Y-94909232D01*
X101947555Y-94904622D01*
X102001716Y-94865270D01*
X102001717Y-94865270D01*
X101369408Y-94232962D01*
X101432993Y-94215925D01*
X101547007Y-94150099D01*
X101640099Y-94057007D01*
X101705925Y-93942993D01*
X101722962Y-93879408D01*
X102313181Y-94469627D01*
G37*
%TD.AperFunction*%
%TA.AperFunction,Conductor*%
G36*
X82994075Y-93942993D02*
G01*
X83059901Y-94057007D01*
X83152993Y-94150099D01*
X83267007Y-94215925D01*
X83330590Y-94232962D01*
X82698282Y-94865269D01*
X82698282Y-94865270D01*
X82752452Y-94904626D01*
X82752451Y-94904626D01*
X82761495Y-94909234D01*
X82812292Y-94957208D01*
X82829087Y-95025029D01*
X82806550Y-95091164D01*
X82761499Y-95130202D01*
X82752182Y-95134949D01*
X82580213Y-95259890D01*
X82580209Y-95259894D01*
X82562181Y-95277923D01*
X82500858Y-95311408D01*
X82431166Y-95306424D01*
X82375233Y-95264552D01*
X82350816Y-95199088D01*
X82350500Y-95190242D01*
X82350500Y-94557308D01*
X82370185Y-94490269D01*
X82386819Y-94469627D01*
X82977037Y-93879408D01*
X82994075Y-93942993D01*
G37*
%TD.AperFunction*%
%TA.AperFunction,Conductor*%
G36*
X89942990Y-93597685D02*
G01*
X89988745Y-93650489D01*
X89999951Y-93702000D01*
X89999951Y-93724951D01*
X90064095Y-93789095D01*
X90097580Y-93850418D01*
X90092596Y-93920110D01*
X90064095Y-93964457D01*
X88984457Y-95044095D01*
X88923134Y-95077580D01*
X88853442Y-95072596D01*
X88809095Y-95044095D01*
X88630904Y-94865904D01*
X88597419Y-94804581D01*
X88602403Y-94734889D01*
X88630904Y-94690542D01*
X89491447Y-93830000D01*
X88848725Y-93830000D01*
X88827479Y-93823761D01*
X88805391Y-93822182D01*
X88794607Y-93814109D01*
X88781686Y-93810315D01*
X88767186Y-93793581D01*
X88749458Y-93780310D01*
X88744750Y-93767689D01*
X88735931Y-93757511D01*
X88732779Y-93735593D01*
X88725041Y-93714846D01*
X88727903Y-93701685D01*
X88725987Y-93688353D01*
X88735186Y-93668209D01*
X88739893Y-93646573D01*
X88753161Y-93628847D01*
X88755012Y-93624797D01*
X88761044Y-93618319D01*
X88765044Y-93614319D01*
X88826367Y-93580834D01*
X88852725Y-93578000D01*
X89875951Y-93578000D01*
X89942990Y-93597685D01*
G37*
%TD.AperFunction*%
%TA.AperFunction,Conductor*%
G36*
X87093203Y-90940944D02*
G01*
X87126561Y-90987205D01*
X87145462Y-91032838D01*
X87145463Y-91032840D01*
X87145464Y-91032841D01*
X87241718Y-91158282D01*
X87367159Y-91254536D01*
X87513238Y-91315044D01*
X87630639Y-91330500D01*
X89809360Y-91330499D01*
X89809363Y-91330499D01*
X89926753Y-91315046D01*
X89926757Y-91315044D01*
X89926762Y-91315044D01*
X89968047Y-91297942D01*
X90037515Y-91290473D01*
X90099994Y-91321747D01*
X90135648Y-91381835D01*
X90139500Y-91412502D01*
X90139500Y-91579169D01*
X90139501Y-91579191D01*
X90142335Y-91615205D01*
X90187129Y-91769388D01*
X90187131Y-91769393D01*
X90245402Y-91867925D01*
X90268865Y-91907598D01*
X90335682Y-91974415D01*
X90350388Y-92001346D01*
X90366977Y-92027160D01*
X90367868Y-92033359D01*
X90369166Y-92035736D01*
X90372000Y-92062095D01*
X90372000Y-92207905D01*
X90352315Y-92274944D01*
X90335681Y-92295586D01*
X90265586Y-92365681D01*
X90204263Y-92399166D01*
X90177905Y-92402000D01*
X88480394Y-92402000D01*
X88330844Y-92442071D01*
X88196765Y-92519483D01*
X88196762Y-92519485D01*
X87099681Y-93616567D01*
X87038358Y-93650052D01*
X86968666Y-93645068D01*
X86912733Y-93603196D01*
X86888316Y-93537732D01*
X86888000Y-93528886D01*
X86888000Y-91034657D01*
X86907685Y-90967618D01*
X86960489Y-90921863D01*
X87029647Y-90911919D01*
X87093203Y-90940944D01*
G37*
%TD.AperFunction*%
%TA.AperFunction,Conductor*%
G36*
X82555703Y-92216045D02*
G01*
X82562181Y-92222077D01*
X82580213Y-92240109D01*
X82752179Y-92365048D01*
X82752181Y-92365049D01*
X82752184Y-92365051D01*
X82761493Y-92369794D01*
X82812290Y-92417766D01*
X82829087Y-92485587D01*
X82806552Y-92551722D01*
X82761505Y-92590760D01*
X82752446Y-92595376D01*
X82752440Y-92595380D01*
X82698282Y-92634727D01*
X82698282Y-92634728D01*
X83330591Y-93267037D01*
X83267007Y-93284075D01*
X83152993Y-93349901D01*
X83059901Y-93442993D01*
X82994075Y-93557007D01*
X82977037Y-93620591D01*
X82386819Y-93030373D01*
X82353334Y-92969050D01*
X82350500Y-92942692D01*
X82350500Y-92309758D01*
X82370185Y-92242719D01*
X82422989Y-92196964D01*
X82492147Y-92187020D01*
X82555703Y-92216045D01*
G37*
%TD.AperFunction*%
%TA.AperFunction,Conductor*%
G36*
X102268834Y-92193576D02*
G01*
X102324767Y-92235448D01*
X102349184Y-92300912D01*
X102349500Y-92309758D01*
X102349500Y-92942692D01*
X102329815Y-93009731D01*
X102313181Y-93030373D01*
X101722962Y-93620591D01*
X101705925Y-93557007D01*
X101640099Y-93442993D01*
X101547007Y-93349901D01*
X101432993Y-93284075D01*
X101369408Y-93267037D01*
X102001716Y-92634728D01*
X101947547Y-92595373D01*
X101947547Y-92595372D01*
X101938500Y-92590763D01*
X101887706Y-92542788D01*
X101870912Y-92474966D01*
X101893451Y-92408832D01*
X101938508Y-92369793D01*
X101947816Y-92365051D01*
X102071839Y-92274944D01*
X102119786Y-92240109D01*
X102119788Y-92240106D01*
X102119792Y-92240104D01*
X102137819Y-92222077D01*
X102199142Y-92188592D01*
X102268834Y-92193576D01*
G37*
%TD.AperFunction*%
%TA.AperFunction,Conductor*%
G36*
X97342499Y-88946644D02*
G01*
X97372486Y-88953168D01*
X97377501Y-88956922D01*
X97380098Y-88957685D01*
X97393223Y-88968262D01*
X97393501Y-88967924D01*
X97398211Y-88971789D01*
X97529314Y-89059390D01*
X97529327Y-89059397D01*
X97661476Y-89114134D01*
X97675003Y-89119737D01*
X97785487Y-89141713D01*
X97808191Y-89146230D01*
X97870102Y-89178615D01*
X97904676Y-89239330D01*
X97908000Y-89267847D01*
X97908000Y-90590500D01*
X97888315Y-90657539D01*
X97835511Y-90703294D01*
X97784002Y-90714500D01*
X97715637Y-90714500D01*
X97598246Y-90729953D01*
X97598234Y-90729957D01*
X97577450Y-90738566D01*
X97507981Y-90746033D01*
X97482550Y-90738566D01*
X97461765Y-90729957D01*
X97461760Y-90729955D01*
X97344361Y-90714500D01*
X97065636Y-90714500D01*
X96948246Y-90729953D01*
X96948234Y-90729957D01*
X96927450Y-90738566D01*
X96857981Y-90746033D01*
X96832550Y-90738566D01*
X96811765Y-90729957D01*
X96811760Y-90729955D01*
X96694361Y-90714500D01*
X96415636Y-90714500D01*
X96298246Y-90729953D01*
X96298234Y-90729957D01*
X96277450Y-90738566D01*
X96207981Y-90746033D01*
X96182550Y-90738566D01*
X96161765Y-90729957D01*
X96161760Y-90729955D01*
X96044361Y-90714500D01*
X95765636Y-90714500D01*
X95648246Y-90729953D01*
X95648238Y-90729956D01*
X95576838Y-90759530D01*
X95507369Y-90766997D01*
X95444890Y-90735722D01*
X95441706Y-90732649D01*
X94893609Y-90184552D01*
X94334319Y-89625261D01*
X94300834Y-89563938D01*
X94298000Y-89537580D01*
X94298000Y-89062000D01*
X94317685Y-88994961D01*
X94370489Y-88949206D01*
X94422000Y-88938000D01*
X97313059Y-88938000D01*
X97342499Y-88946644D01*
G37*
%TD.AperFunction*%
%TA.AperFunction,Conductor*%
G36*
X87040938Y-75120185D02*
G01*
X87086693Y-75172989D01*
X87096637Y-75242147D01*
X87088460Y-75271953D01*
X87068429Y-75320310D01*
X87068427Y-75320318D01*
X87030000Y-75513504D01*
X87030000Y-75662000D01*
X87730000Y-75662000D01*
X87730000Y-76162000D01*
X87030000Y-76162000D01*
X87030000Y-76310495D01*
X87068427Y-76503681D01*
X87068430Y-76503693D01*
X87143807Y-76685671D01*
X87143814Y-76685684D01*
X87253248Y-76849462D01*
X87253251Y-76849466D01*
X87392533Y-76988748D01*
X87392537Y-76988751D01*
X87556315Y-77098185D01*
X87556328Y-77098192D01*
X87738308Y-77173569D01*
X87780000Y-77181862D01*
X87780000Y-76378988D01*
X87789940Y-76396205D01*
X87845795Y-76452060D01*
X87914204Y-76491556D01*
X87990504Y-76512000D01*
X88069496Y-76512000D01*
X88145796Y-76491556D01*
X88214205Y-76452060D01*
X88270060Y-76396205D01*
X88280000Y-76378988D01*
X88280000Y-77181862D01*
X88321690Y-77173569D01*
X88321692Y-77173569D01*
X88503671Y-77098192D01*
X88503684Y-77098185D01*
X88667462Y-76988751D01*
X88667466Y-76988748D01*
X88806748Y-76849466D01*
X88806751Y-76849462D01*
X88916185Y-76685684D01*
X88916192Y-76685671D01*
X88991569Y-76503693D01*
X88991572Y-76503681D01*
X89029999Y-76310495D01*
X89030000Y-76310492D01*
X89030000Y-76162000D01*
X88330000Y-76162000D01*
X88330000Y-75662000D01*
X89030000Y-75662000D01*
X89030000Y-75513508D01*
X89029999Y-75513504D01*
X88991572Y-75320318D01*
X88991570Y-75320310D01*
X88971540Y-75271953D01*
X88964071Y-75202484D01*
X88995346Y-75140005D01*
X89055434Y-75104352D01*
X89086101Y-75100500D01*
X95613899Y-75100500D01*
X95680938Y-75120185D01*
X95726693Y-75172989D01*
X95736637Y-75242147D01*
X95728460Y-75271953D01*
X95708429Y-75320310D01*
X95708427Y-75320318D01*
X95670000Y-75513504D01*
X95670000Y-75662000D01*
X96370000Y-75662000D01*
X96370000Y-76162000D01*
X95670000Y-76162000D01*
X95670000Y-76310495D01*
X95708427Y-76503681D01*
X95708430Y-76503693D01*
X95779190Y-76674524D01*
X95786659Y-76743993D01*
X95755384Y-76806472D01*
X95733521Y-76825077D01*
X95672451Y-76865883D01*
X95672445Y-76865888D01*
X93980162Y-78558173D01*
X93918839Y-78591658D01*
X93892481Y-78594492D01*
X90755442Y-78594492D01*
X90620115Y-78621410D01*
X90620105Y-78621413D01*
X90492630Y-78674214D01*
X90377892Y-78750879D01*
X90377891Y-78750880D01*
X90008007Y-79120765D01*
X89946684Y-79154250D01*
X89876992Y-79149266D01*
X89832645Y-79120765D01*
X89813367Y-79101487D01*
X89813365Y-79101485D01*
X89702291Y-79037356D01*
X89682136Y-79025719D01*
X89608950Y-79006109D01*
X89535766Y-78986500D01*
X89384234Y-78986500D01*
X89237863Y-79025719D01*
X89106635Y-79101485D01*
X89100189Y-79106432D01*
X89098099Y-79103709D01*
X89050217Y-79129466D01*
X88980558Y-79124043D01*
X88924888Y-79081821D01*
X88919299Y-79072976D01*
X88806751Y-78904537D01*
X88806748Y-78904533D01*
X88667466Y-78765251D01*
X88667462Y-78765248D01*
X88503684Y-78655814D01*
X88503671Y-78655807D01*
X88321691Y-78580429D01*
X88321683Y-78580427D01*
X88280000Y-78572135D01*
X88280000Y-79375011D01*
X88270060Y-79357795D01*
X88214205Y-79301940D01*
X88145796Y-79262444D01*
X88069496Y-79242000D01*
X87990504Y-79242000D01*
X87914204Y-79262444D01*
X87845795Y-79301940D01*
X87789940Y-79357795D01*
X87780000Y-79375011D01*
X87780000Y-78572136D01*
X87779999Y-78572135D01*
X87738316Y-78580427D01*
X87738308Y-78580429D01*
X87556328Y-78655807D01*
X87556315Y-78655814D01*
X87392537Y-78765248D01*
X87392533Y-78765251D01*
X87253251Y-78904533D01*
X87253248Y-78904537D01*
X87143814Y-79068315D01*
X87143807Y-79068328D01*
X87068430Y-79250306D01*
X87068427Y-79250318D01*
X87030000Y-79443504D01*
X87030000Y-79842000D01*
X87730000Y-79842000D01*
X87730000Y-80342000D01*
X87030000Y-80342000D01*
X87030000Y-80740495D01*
X87068427Y-80933681D01*
X87068430Y-80933693D01*
X87143807Y-81115671D01*
X87143814Y-81115684D01*
X87253248Y-81279462D01*
X87253251Y-81279466D01*
X87392533Y-81418748D01*
X87392537Y-81418751D01*
X87556315Y-81528185D01*
X87556328Y-81528192D01*
X87738308Y-81603569D01*
X87780000Y-81611862D01*
X87780000Y-80808988D01*
X87789940Y-80826205D01*
X87845795Y-80882060D01*
X87914204Y-80921556D01*
X87990504Y-80942000D01*
X88069496Y-80942000D01*
X88145796Y-80921556D01*
X88214205Y-80882060D01*
X88270060Y-80826205D01*
X88309556Y-80757796D01*
X88309769Y-80757000D01*
X88975500Y-80757000D01*
X89042539Y-80776685D01*
X89088294Y-80829489D01*
X89099500Y-80881000D01*
X89099500Y-81779870D01*
X89099501Y-81779876D01*
X89105908Y-81839483D01*
X89149802Y-81957167D01*
X89154786Y-82026859D01*
X89121301Y-82088182D01*
X89059978Y-82121666D01*
X89033620Y-82124500D01*
X88974000Y-82124500D01*
X88906961Y-82104815D01*
X88861206Y-82052011D01*
X88850000Y-82000500D01*
X88850000Y-81257000D01*
X88280000Y-81257000D01*
X88280000Y-81628262D01*
X88293999Y-81648813D01*
X88300000Y-81686923D01*
X88300000Y-81779844D01*
X88306401Y-81839372D01*
X88306403Y-81839379D01*
X88356645Y-81974086D01*
X88356647Y-81974089D01*
X88372742Y-81995589D01*
X88397160Y-82061053D01*
X88382309Y-82129327D01*
X88339817Y-82174662D01*
X88326943Y-82182814D01*
X88311303Y-82187997D01*
X88166956Y-82277032D01*
X88147605Y-82296382D01*
X88135987Y-82303740D01*
X88115083Y-82309726D01*
X88096000Y-82320146D01*
X88082158Y-82319155D01*
X88068818Y-82322976D01*
X88047996Y-82316711D01*
X88026308Y-82315159D01*
X88011755Y-82305806D01*
X88001911Y-82302844D01*
X87995526Y-82295376D01*
X87981965Y-82286660D01*
X87972732Y-82277427D01*
X87972728Y-82277424D01*
X87828492Y-82188457D01*
X87828481Y-82188452D01*
X87667606Y-82135144D01*
X87568322Y-82125000D01*
X87545000Y-82125000D01*
X87545000Y-84074999D01*
X87568308Y-84074999D01*
X87568322Y-84074998D01*
X87667607Y-84064855D01*
X87828481Y-84011547D01*
X87828492Y-84011542D01*
X87972731Y-83922573D01*
X87981959Y-83913345D01*
X88043279Y-83879856D01*
X88112971Y-83884835D01*
X88157327Y-83913339D01*
X88166955Y-83922967D01*
X88166959Y-83922970D01*
X88311294Y-84011998D01*
X88311297Y-84011999D01*
X88311303Y-84012003D01*
X88472292Y-84065349D01*
X88571655Y-84075500D01*
X88571676Y-84075499D01*
X88572518Y-84075543D01*
X88572700Y-84075606D01*
X88574796Y-84075821D01*
X88574744Y-84076321D01*
X88638474Y-84098600D01*
X88653915Y-84111703D01*
X89023181Y-84480969D01*
X89056666Y-84542292D01*
X89059500Y-84568650D01*
X89059500Y-85176271D01*
X89092182Y-85340574D01*
X89092184Y-85340582D01*
X89100061Y-85359598D01*
X89109500Y-85407051D01*
X89109500Y-85745701D01*
X89112401Y-85782567D01*
X89112402Y-85782573D01*
X89158254Y-85940393D01*
X89158255Y-85940396D01*
X89158256Y-85940398D01*
X89192732Y-85998694D01*
X89210000Y-86061814D01*
X89210000Y-86717500D01*
X89760000Y-86717500D01*
X89760000Y-86454500D01*
X89762550Y-86445814D01*
X89761262Y-86436853D01*
X89772240Y-86412812D01*
X89779685Y-86387461D01*
X89786525Y-86381533D01*
X89790287Y-86373297D01*
X89812521Y-86359007D01*
X89832489Y-86341706D01*
X89843003Y-86339418D01*
X89849065Y-86335523D01*
X89884000Y-86330500D01*
X89935500Y-86330500D01*
X90002539Y-86350185D01*
X90048294Y-86402989D01*
X90059500Y-86454500D01*
X90059500Y-87620701D01*
X90062401Y-87657565D01*
X90097635Y-87778841D01*
X90097566Y-87802814D01*
X90101879Y-87826391D01*
X90097468Y-87837113D01*
X90097435Y-87848711D01*
X90084415Y-87868843D01*
X90075298Y-87891007D01*
X90063122Y-87901768D01*
X90059493Y-87907381D01*
X90049525Y-87915120D01*
X90046632Y-87917138D01*
X89981956Y-87957032D01*
X89964590Y-87974397D01*
X89955613Y-87980663D01*
X89932446Y-87988436D01*
X89911000Y-88000146D01*
X89899912Y-87999352D01*
X89889373Y-88002889D01*
X89865680Y-87996903D01*
X89841308Y-87995159D01*
X89829991Y-87987886D01*
X89821632Y-87985774D01*
X89813980Y-87977595D01*
X89796965Y-87966660D01*
X89787731Y-87957426D01*
X89768159Y-87945354D01*
X89721435Y-87893406D01*
X89710214Y-87824443D01*
X89714181Y-87805221D01*
X89757099Y-87657495D01*
X89757100Y-87657489D01*
X89759999Y-87620649D01*
X89760000Y-87620634D01*
X89760000Y-87217500D01*
X89210000Y-87217500D01*
X89210000Y-87675000D01*
X89236000Y-87675000D01*
X89303039Y-87694685D01*
X89348794Y-87747489D01*
X89360000Y-87799000D01*
X89360000Y-88656000D01*
X89340315Y-88723039D01*
X89287511Y-88768794D01*
X89236000Y-88780000D01*
X89110000Y-88780000D01*
X89110000Y-88906000D01*
X89090315Y-88973039D01*
X89037511Y-89018794D01*
X88986000Y-89030000D01*
X88160000Y-89030000D01*
X88146818Y-89043182D01*
X88085495Y-89076666D01*
X88059138Y-89079500D01*
X87630636Y-89079500D01*
X87513246Y-89094953D01*
X87513237Y-89094956D01*
X87367160Y-89155463D01*
X87241718Y-89251718D01*
X87145463Y-89377160D01*
X87126561Y-89422795D01*
X87082720Y-89477198D01*
X87016426Y-89499263D01*
X86948726Y-89481984D01*
X86901116Y-89430846D01*
X86888000Y-89375342D01*
X86888000Y-87620649D01*
X88160000Y-87620649D01*
X88162899Y-87657489D01*
X88162900Y-87657495D01*
X88208716Y-87815193D01*
X88208717Y-87815196D01*
X88296288Y-87963271D01*
X88295199Y-87963914D01*
X88317838Y-88021576D01*
X88304158Y-88090093D01*
X88299863Y-88097636D01*
X88223454Y-88221513D01*
X88223452Y-88221518D01*
X88170144Y-88382393D01*
X88160000Y-88481677D01*
X88160000Y-88530000D01*
X88860000Y-88530000D01*
X88860000Y-88335000D01*
X88834000Y-88335000D01*
X88766961Y-88315315D01*
X88721206Y-88262511D01*
X88710000Y-88211000D01*
X88710000Y-87217500D01*
X88160000Y-87217500D01*
X88160000Y-87620649D01*
X86888000Y-87620649D01*
X86888000Y-86519393D01*
X86888000Y-86507415D01*
X86888001Y-86507412D01*
X86888001Y-86352589D01*
X86877755Y-86314350D01*
X88160000Y-86314350D01*
X88160000Y-86717500D01*
X88710000Y-86717500D01*
X88710000Y-85732703D01*
X88707503Y-85732900D01*
X88549806Y-85778716D01*
X88549803Y-85778717D01*
X88408447Y-85862314D01*
X88408438Y-85862321D01*
X88292321Y-85978438D01*
X88292314Y-85978447D01*
X88208717Y-86119803D01*
X88208716Y-86119806D01*
X88162900Y-86277504D01*
X88162899Y-86277510D01*
X88160000Y-86314350D01*
X86877755Y-86314350D01*
X86847930Y-86203041D01*
X86770518Y-86068960D01*
X84789421Y-84087864D01*
X84755937Y-84026542D01*
X84759172Y-83961867D01*
X84777246Y-83906243D01*
X84810500Y-83696287D01*
X84810500Y-83483713D01*
X84796975Y-83398322D01*
X86345001Y-83398322D01*
X86355144Y-83497607D01*
X86408452Y-83658481D01*
X86408457Y-83658492D01*
X86497424Y-83802728D01*
X86497427Y-83802732D01*
X86617267Y-83922572D01*
X86617271Y-83922575D01*
X86761507Y-84011542D01*
X86761518Y-84011547D01*
X86922393Y-84064855D01*
X87021683Y-84074999D01*
X87045000Y-84074998D01*
X87045000Y-83350000D01*
X86345001Y-83350000D01*
X86345001Y-83398322D01*
X84796975Y-83398322D01*
X84777246Y-83273757D01*
X84711557Y-83071588D01*
X84615051Y-82882184D01*
X84598705Y-82859685D01*
X84556560Y-82801677D01*
X86345000Y-82801677D01*
X86345000Y-82850000D01*
X87045000Y-82850000D01*
X87045000Y-82124999D01*
X87021693Y-82125000D01*
X87021674Y-82125001D01*
X86922392Y-82135144D01*
X86761518Y-82188452D01*
X86761507Y-82188457D01*
X86617271Y-82277424D01*
X86617267Y-82277427D01*
X86497427Y-82397267D01*
X86497424Y-82397271D01*
X86408457Y-82541507D01*
X86408452Y-82541518D01*
X86355144Y-82702393D01*
X86345000Y-82801677D01*
X84556560Y-82801677D01*
X84490109Y-82710213D01*
X84339786Y-82559890D01*
X84167817Y-82434949D01*
X84158504Y-82430204D01*
X84107707Y-82382230D01*
X84090912Y-82314409D01*
X84113449Y-82248274D01*
X84158507Y-82209232D01*
X84167555Y-82204622D01*
X84221716Y-82165270D01*
X84221717Y-82165270D01*
X83589408Y-81532962D01*
X83652993Y-81515925D01*
X83767007Y-81450099D01*
X83860099Y-81357007D01*
X83925925Y-81242993D01*
X83942962Y-81179408D01*
X84575270Y-81811717D01*
X84575270Y-81811716D01*
X84614622Y-81757554D01*
X84711095Y-81568217D01*
X84776757Y-81366130D01*
X84776757Y-81366127D01*
X84810000Y-81156246D01*
X84810000Y-80943753D01*
X84776757Y-80733872D01*
X84776757Y-80733869D01*
X84711095Y-80531782D01*
X84616909Y-80346933D01*
X84616908Y-80346931D01*
X84614626Y-80342452D01*
X84575270Y-80288282D01*
X84575269Y-80288282D01*
X83942962Y-80920590D01*
X83925925Y-80857007D01*
X83860099Y-80742993D01*
X83767007Y-80649901D01*
X83652993Y-80584075D01*
X83589409Y-80567037D01*
X84221716Y-79934728D01*
X84167547Y-79895373D01*
X84167547Y-79895372D01*
X84158500Y-79890763D01*
X84107706Y-79842788D01*
X84090912Y-79774966D01*
X84113451Y-79708832D01*
X84158508Y-79669793D01*
X84167816Y-79665051D01*
X84247007Y-79607515D01*
X84339786Y-79540109D01*
X84339788Y-79540106D01*
X84339792Y-79540104D01*
X84490104Y-79389792D01*
X84615051Y-79217816D01*
X84711557Y-79028412D01*
X84777246Y-78826243D01*
X84810500Y-78616287D01*
X84810500Y-78403713D01*
X84777246Y-78193757D01*
X84711557Y-77991588D01*
X84615051Y-77802184D01*
X84615049Y-77802181D01*
X84615048Y-77802179D01*
X84490109Y-77630213D01*
X84376569Y-77516673D01*
X84343084Y-77455350D01*
X84348068Y-77385658D01*
X84389940Y-77329725D01*
X84420915Y-77312810D01*
X84552331Y-77263796D01*
X84667546Y-77177546D01*
X84753796Y-77062331D01*
X84804091Y-76927483D01*
X84810500Y-76867873D01*
X84810499Y-75224499D01*
X84830183Y-75157461D01*
X84882987Y-75111706D01*
X84934499Y-75100500D01*
X86973899Y-75100500D01*
X87040938Y-75120185D01*
G37*
%TD.AperFunction*%
%TA.AperFunction,Conductor*%
G36*
X99809199Y-78115766D02*
G01*
X99827892Y-78116034D01*
X99842028Y-78125406D01*
X99858301Y-78130185D01*
X99870542Y-78144312D01*
X99886125Y-78154644D01*
X99892950Y-78170172D01*
X99904056Y-78182989D01*
X99906716Y-78201493D01*
X99914239Y-78218608D01*
X99913781Y-78250628D01*
X99914000Y-78252147D01*
X99913735Y-78253898D01*
X99890000Y-78403753D01*
X99890000Y-78616246D01*
X99923242Y-78826127D01*
X99923242Y-78826130D01*
X99988904Y-79028217D01*
X100085375Y-79217550D01*
X100124728Y-79271716D01*
X100757036Y-78639407D01*
X100774075Y-78702993D01*
X100839901Y-78817007D01*
X100932993Y-78910099D01*
X101047007Y-78975925D01*
X101110590Y-78992962D01*
X100478282Y-79625269D01*
X100478282Y-79625270D01*
X100532452Y-79664626D01*
X100532451Y-79664626D01*
X100541495Y-79669234D01*
X100592292Y-79717208D01*
X100609087Y-79785029D01*
X100586550Y-79851164D01*
X100541499Y-79890202D01*
X100532182Y-79894949D01*
X100360213Y-80019890D01*
X100209890Y-80170213D01*
X100084951Y-80342179D01*
X99988444Y-80531585D01*
X99922753Y-80733760D01*
X99889500Y-80943713D01*
X99889500Y-81156286D01*
X99922735Y-81366127D01*
X99922754Y-81366243D01*
X99975372Y-81528185D01*
X99988444Y-81568414D01*
X100084951Y-81757820D01*
X100209890Y-81929786D01*
X100360213Y-82080109D01*
X100532182Y-82205050D01*
X100540946Y-82209516D01*
X100591742Y-82257491D01*
X100608536Y-82325312D01*
X100585998Y-82391447D01*
X100540946Y-82430484D01*
X100532182Y-82434949D01*
X100360213Y-82559890D01*
X100209890Y-82710213D01*
X100084951Y-82882179D01*
X99988444Y-83071585D01*
X99922753Y-83273760D01*
X99889500Y-83483713D01*
X99889500Y-83696286D01*
X99922754Y-83906246D01*
X99940826Y-83961867D01*
X99942821Y-84031708D01*
X99910576Y-84087865D01*
X98134961Y-85863481D01*
X98025485Y-85972956D01*
X98025483Y-85972959D01*
X97948071Y-86107038D01*
X97908000Y-86256588D01*
X97908000Y-87432152D01*
X97888315Y-87499191D01*
X97835511Y-87544946D01*
X97808192Y-87553769D01*
X97675008Y-87580261D01*
X97674998Y-87580264D01*
X97529327Y-87640602D01*
X97529314Y-87640609D01*
X97398211Y-87728210D01*
X97393501Y-87732076D01*
X97392116Y-87730389D01*
X97339417Y-87759166D01*
X97313059Y-87762000D01*
X94305441Y-87762000D01*
X94238402Y-87742315D01*
X94225276Y-87731737D01*
X94224999Y-87732076D01*
X94220288Y-87728210D01*
X94089185Y-87640609D01*
X94089172Y-87640602D01*
X93943501Y-87580264D01*
X93943489Y-87580261D01*
X93788841Y-87549499D01*
X93787338Y-87549351D01*
X93786601Y-87549053D01*
X93782868Y-87548311D01*
X93783008Y-87547602D01*
X93722552Y-87523186D01*
X93682197Y-87466149D01*
X93675500Y-87425949D01*
X93675500Y-86885980D01*
X93695185Y-86818941D01*
X93747989Y-86773186D01*
X93817147Y-86763242D01*
X93864597Y-86780442D01*
X93997704Y-86862544D01*
X93997707Y-86862545D01*
X93997713Y-86862549D01*
X94157315Y-86915436D01*
X94255826Y-86925500D01*
X94255831Y-86925500D01*
X94789169Y-86925500D01*
X94789174Y-86925500D01*
X94887685Y-86915436D01*
X95047287Y-86862549D01*
X95190391Y-86774281D01*
X95222672Y-86742000D01*
X95283995Y-86708515D01*
X95353687Y-86713499D01*
X95398034Y-86742000D01*
X95429919Y-86773885D01*
X95572922Y-86862091D01*
X95572927Y-86862093D01*
X95732416Y-86914942D01*
X95830856Y-86924999D01*
X96347500Y-86924999D01*
X96364136Y-86924999D01*
X96364152Y-86924998D01*
X96462583Y-86914943D01*
X96622072Y-86862093D01*
X96622077Y-86862091D01*
X96765080Y-86773885D01*
X96883885Y-86655080D01*
X96972091Y-86512077D01*
X96972093Y-86512072D01*
X97024942Y-86352583D01*
X97034999Y-86254150D01*
X97035000Y-86254137D01*
X97035000Y-86200000D01*
X96347500Y-86200000D01*
X96347500Y-86924999D01*
X95830856Y-86924999D01*
X95847500Y-86924998D01*
X95847500Y-86074000D01*
X95867185Y-86006961D01*
X95919989Y-85961206D01*
X95971500Y-85950000D01*
X96097500Y-85950000D01*
X96097500Y-85824000D01*
X96117185Y-85756961D01*
X96169989Y-85711206D01*
X96221500Y-85700000D01*
X97034999Y-85700000D01*
X97034999Y-85645864D01*
X97034998Y-85645847D01*
X97024943Y-85547416D01*
X96972093Y-85387927D01*
X96972091Y-85387922D01*
X96883885Y-85244919D01*
X96867492Y-85228526D01*
X96834007Y-85167203D01*
X96838991Y-85097511D01*
X96867493Y-85053163D01*
X96890472Y-85030185D01*
X96978478Y-84884606D01*
X97029086Y-84722196D01*
X97035500Y-84651616D01*
X97035500Y-83988384D01*
X97029086Y-83917804D01*
X96978478Y-83755394D01*
X96890472Y-83609815D01*
X96890470Y-83609813D01*
X96890469Y-83609811D01*
X96771819Y-83491161D01*
X96738334Y-83429838D01*
X96735500Y-83403480D01*
X96735500Y-83089945D01*
X96735500Y-83089943D01*
X96711936Y-83002000D01*
X96694577Y-82937215D01*
X96665639Y-82887095D01*
X96615520Y-82800284D01*
X96503716Y-82688480D01*
X96503715Y-82688479D01*
X96499385Y-82684149D01*
X96499374Y-82684139D01*
X96156636Y-82341401D01*
X96123151Y-82280078D01*
X96128135Y-82210386D01*
X96170006Y-82154453D01*
X96257191Y-82089186D01*
X96343350Y-81974093D01*
X96343354Y-81974086D01*
X96393596Y-81839379D01*
X96393598Y-81839372D01*
X96399999Y-81779844D01*
X96400000Y-81779827D01*
X96400000Y-81686923D01*
X96419685Y-81619884D01*
X96420000Y-81619530D01*
X96420000Y-80808988D01*
X96429940Y-80826205D01*
X96485795Y-80882060D01*
X96554204Y-80921556D01*
X96630504Y-80942000D01*
X96709496Y-80942000D01*
X96785796Y-80921556D01*
X96854205Y-80882060D01*
X96910060Y-80826205D01*
X96920000Y-80808988D01*
X96920000Y-81611862D01*
X96961690Y-81603569D01*
X96961692Y-81603569D01*
X97143671Y-81528192D01*
X97143684Y-81528185D01*
X97307462Y-81418751D01*
X97307466Y-81418748D01*
X97446748Y-81279466D01*
X97446751Y-81279462D01*
X97556185Y-81115684D01*
X97556192Y-81115671D01*
X97631569Y-80933693D01*
X97631572Y-80933681D01*
X97669999Y-80740495D01*
X97670000Y-80740492D01*
X97670000Y-80342000D01*
X96970000Y-80342000D01*
X96970000Y-79842000D01*
X97670000Y-79842000D01*
X97670000Y-79443508D01*
X97669999Y-79443504D01*
X97631572Y-79250318D01*
X97631569Y-79250306D01*
X97556192Y-79068328D01*
X97556185Y-79068315D01*
X97446751Y-78904537D01*
X97446748Y-78904533D01*
X97307466Y-78765251D01*
X97307462Y-78765248D01*
X97143684Y-78655814D01*
X97143671Y-78655807D01*
X96961691Y-78580429D01*
X96961683Y-78580427D01*
X96920000Y-78572135D01*
X96920000Y-79375011D01*
X96910060Y-79357795D01*
X96854205Y-79301940D01*
X96785796Y-79262444D01*
X96709496Y-79242000D01*
X96630504Y-79242000D01*
X96554204Y-79262444D01*
X96485795Y-79301940D01*
X96429940Y-79357795D01*
X96420000Y-79375011D01*
X96420000Y-78572136D01*
X96419999Y-78572135D01*
X96378316Y-78580427D01*
X96378308Y-78580429D01*
X96204671Y-78652351D01*
X96135201Y-78659820D01*
X96072722Y-78628544D01*
X96037071Y-78568455D01*
X96039565Y-78498630D01*
X96069533Y-78450114D01*
X96372832Y-78146816D01*
X96434153Y-78113334D01*
X96460511Y-78110500D01*
X99791262Y-78110500D01*
X99809199Y-78115766D01*
G37*
%TD.AperFunction*%
%TA.AperFunction,Conductor*%
G36*
X91903039Y-82859685D02*
G01*
X91948794Y-82912489D01*
X91960000Y-82964000D01*
X91960000Y-83652844D01*
X91974952Y-83664071D01*
X92016744Y-83720064D01*
X92024500Y-83763232D01*
X92024500Y-87479313D01*
X92019893Y-87495002D01*
X92020290Y-87511349D01*
X92010252Y-87527834D01*
X92004815Y-87546352D01*
X91992458Y-87557058D01*
X91983954Y-87571027D01*
X91966595Y-87579469D01*
X91952011Y-87592107D01*
X91935218Y-87594729D01*
X91921122Y-87601586D01*
X91893877Y-87601187D01*
X91885838Y-87602443D01*
X91881035Y-87601871D01*
X91818842Y-87589500D01*
X91777144Y-87589500D01*
X91769838Y-87588630D01*
X91744204Y-87577667D01*
X91717461Y-87569815D01*
X91712527Y-87564121D01*
X91705596Y-87561157D01*
X91689956Y-87538072D01*
X91671706Y-87517011D01*
X91669823Y-87508356D01*
X91666406Y-87503313D01*
X91666114Y-87491308D01*
X91660500Y-87465500D01*
X91660500Y-86314313D01*
X91660499Y-86314298D01*
X91657598Y-86277432D01*
X91657597Y-86277426D01*
X91611745Y-86119606D01*
X91611744Y-86119603D01*
X91611744Y-86119602D01*
X91528081Y-85978135D01*
X91528079Y-85978133D01*
X91528076Y-85978129D01*
X91411870Y-85861923D01*
X91411862Y-85861917D01*
X91330427Y-85813757D01*
X91270398Y-85778256D01*
X91270397Y-85778255D01*
X91270396Y-85778255D01*
X91270393Y-85778254D01*
X91112573Y-85732402D01*
X91112567Y-85732401D01*
X91075701Y-85729500D01*
X91075694Y-85729500D01*
X90834500Y-85729500D01*
X90825814Y-85726949D01*
X90816853Y-85728238D01*
X90792812Y-85717259D01*
X90767461Y-85709815D01*
X90761533Y-85702974D01*
X90753297Y-85699213D01*
X90739007Y-85676978D01*
X90721706Y-85657011D01*
X90719418Y-85646496D01*
X90715523Y-85640435D01*
X90710500Y-85605500D01*
X90710500Y-85407051D01*
X90719939Y-85359598D01*
X90719985Y-85359487D01*
X90727816Y-85340582D01*
X90760500Y-85176267D01*
X90760500Y-84081233D01*
X90727816Y-83916918D01*
X90726334Y-83913339D01*
X90692622Y-83831951D01*
X90685153Y-83762482D01*
X90716428Y-83700003D01*
X90776517Y-83664351D01*
X90807183Y-83660499D01*
X90889168Y-83660499D01*
X90889180Y-83660499D01*
X90925204Y-83657665D01*
X91079393Y-83612869D01*
X91137369Y-83578581D01*
X91205093Y-83561398D01*
X91263612Y-83578581D01*
X91320805Y-83612404D01*
X91460000Y-83652844D01*
X91460000Y-83100408D01*
X91460001Y-83099954D01*
X91460018Y-83095305D01*
X91460500Y-83089181D01*
X91460500Y-82963546D01*
X91470417Y-82930218D01*
X91480183Y-82896961D01*
X91480361Y-82896806D01*
X91480429Y-82896579D01*
X91506834Y-82873867D01*
X91532987Y-82851206D01*
X91533247Y-82851149D01*
X91533400Y-82851018D01*
X91534666Y-82850840D01*
X91584499Y-82840000D01*
X91836000Y-82840000D01*
X91903039Y-82859685D01*
G37*
%TD.AperFunction*%
%TA.AperFunction,Conductor*%
G36*
X82994075Y-81242993D02*
G01*
X83059901Y-81357007D01*
X83152993Y-81450099D01*
X83267007Y-81515925D01*
X83330590Y-81532962D01*
X82698282Y-82165269D01*
X82698282Y-82165270D01*
X82752452Y-82204626D01*
X82752451Y-82204626D01*
X82761495Y-82209234D01*
X82812292Y-82257208D01*
X82829087Y-82325029D01*
X82806550Y-82391164D01*
X82761499Y-82430202D01*
X82752182Y-82434949D01*
X82580213Y-82559890D01*
X82580209Y-82559894D01*
X82562181Y-82577923D01*
X82500858Y-82611408D01*
X82431166Y-82606424D01*
X82375233Y-82564552D01*
X82350816Y-82499088D01*
X82350500Y-82490242D01*
X82350500Y-81857308D01*
X82370185Y-81790269D01*
X82386819Y-81769627D01*
X82977037Y-81179408D01*
X82994075Y-81242993D01*
G37*
%TD.AperFunction*%
%TA.AperFunction,Conductor*%
G36*
X95793039Y-81026685D02*
G01*
X95838794Y-81079489D01*
X95850000Y-81131000D01*
X95850000Y-81735403D01*
X95843761Y-81756648D01*
X95842182Y-81778737D01*
X95834109Y-81789520D01*
X95830315Y-81802442D01*
X95813581Y-81816941D01*
X95800310Y-81834670D01*
X95787689Y-81839377D01*
X95777511Y-81848197D01*
X95755593Y-81851348D01*
X95734846Y-81859087D01*
X95721685Y-81856224D01*
X95708353Y-81858141D01*
X95688209Y-81848941D01*
X95666573Y-81844235D01*
X95648847Y-81830966D01*
X95644797Y-81829116D01*
X95638319Y-81823084D01*
X95636818Y-81821583D01*
X95603333Y-81760260D01*
X95600499Y-81733911D01*
X95600499Y-81130998D01*
X95620184Y-81063961D01*
X95672988Y-81018206D01*
X95724499Y-81007000D01*
X95726000Y-81007000D01*
X95793039Y-81026685D01*
G37*
%TD.AperFunction*%
%TA.AperFunction,Conductor*%
G36*
X82555703Y-79516045D02*
G01*
X82562181Y-79522077D01*
X82580213Y-79540109D01*
X82752179Y-79665048D01*
X82752181Y-79665049D01*
X82752184Y-79665051D01*
X82761493Y-79669794D01*
X82812290Y-79717766D01*
X82829087Y-79785587D01*
X82806552Y-79851722D01*
X82761505Y-79890760D01*
X82752446Y-79895376D01*
X82752440Y-79895380D01*
X82698282Y-79934727D01*
X82698282Y-79934728D01*
X83330591Y-80567037D01*
X83267007Y-80584075D01*
X83152993Y-80649901D01*
X83059901Y-80742993D01*
X82994075Y-80857007D01*
X82977037Y-80920591D01*
X82386819Y-80330373D01*
X82353334Y-80269050D01*
X82350500Y-80242692D01*
X82350500Y-79609758D01*
X82370185Y-79542719D01*
X82422989Y-79496964D01*
X82492147Y-79487020D01*
X82555703Y-79516045D01*
G37*
%TD.AperFunction*%
%TA.AperFunction,Conductor*%
G36*
X102313181Y-79229627D02*
G01*
X102346666Y-79290950D01*
X102349500Y-79317308D01*
X102349500Y-79950242D01*
X102329815Y-80017281D01*
X102277011Y-80063036D01*
X102207853Y-80072980D01*
X102144297Y-80043955D01*
X102137819Y-80037923D01*
X102119786Y-80019890D01*
X101947817Y-79894949D01*
X101938504Y-79890204D01*
X101887707Y-79842230D01*
X101870912Y-79774409D01*
X101893449Y-79708274D01*
X101938507Y-79669232D01*
X101947555Y-79664622D01*
X102001716Y-79625270D01*
X102001717Y-79625270D01*
X101369408Y-78992962D01*
X101432993Y-78975925D01*
X101547007Y-78910099D01*
X101640099Y-78817007D01*
X101705925Y-78702993D01*
X101722962Y-78639408D01*
X102313181Y-79229627D01*
G37*
%TD.AperFunction*%
%TA.AperFunction,Conductor*%
G36*
X99832539Y-75120185D02*
G01*
X99878294Y-75172989D01*
X99889500Y-75224500D01*
X99889500Y-76278480D01*
X99869815Y-76345519D01*
X99853181Y-76366161D01*
X99546162Y-76673181D01*
X99484839Y-76706666D01*
X99458481Y-76709500D01*
X97731900Y-76709500D01*
X97664861Y-76689815D01*
X97619106Y-76637011D01*
X97609162Y-76567853D01*
X97617339Y-76538047D01*
X97631570Y-76503689D01*
X97631572Y-76503681D01*
X97669999Y-76310495D01*
X97670000Y-76310492D01*
X97670000Y-76162000D01*
X96970000Y-76162000D01*
X96970000Y-75662000D01*
X97670000Y-75662000D01*
X97670000Y-75513508D01*
X97669999Y-75513504D01*
X97631572Y-75320318D01*
X97631570Y-75320310D01*
X97611540Y-75271953D01*
X97604071Y-75202484D01*
X97635346Y-75140005D01*
X97695434Y-75104352D01*
X97726101Y-75100500D01*
X99765500Y-75100500D01*
X99832539Y-75120185D01*
G37*
%TD.AperFunction*%
%TD*%
M02*
