%TF.GenerationSoftware,KiCad,Pcbnew,9.0.1*%
%TF.CreationDate,2026-01-11T04:45:37+00:00*%
%TF.ProjectId,heidi-pico,68656964-692d-4706-9963-6f2e6b696361,rev?*%
%TF.SameCoordinates,Original*%
%TF.FileFunction,Soldermask,Bot*%
%TF.FilePolarity,Negative*%
%FSLAX46Y46*%
G04 Gerber Fmt 4.6, Leading zero omitted, Abs format (unit mm)*
G04 Created by KiCad (PCBNEW 9.0.1) date 2026-01-11 04:45:37*
%MOMM*%
%LPD*%
G01*
G04 APERTURE LIST*
%ADD10R,1.700000X1.700000*%
%ADD11C,1.700000*%
%ADD12C,0.650000*%
%ADD13O,1.000000X2.100000*%
%ADD14O,1.000000X1.600000*%
G04 APERTURE END LIST*
D10*
%TO.C,J3*%
X83460000Y-75970000D03*
D11*
X83460000Y-78510000D03*
X83460000Y-81050000D03*
X83460000Y-83590000D03*
X83460000Y-86130000D03*
X83460000Y-88670000D03*
X83460000Y-91210000D03*
X83460000Y-93750000D03*
X83460000Y-96290000D03*
X83460000Y-98830000D03*
X83460000Y-101370000D03*
X83460000Y-103910000D03*
X83460000Y-106450000D03*
X83460000Y-108990000D03*
X83460000Y-111530000D03*
X83460000Y-114070000D03*
X83460000Y-116610000D03*
X83460000Y-119150000D03*
X83460000Y-121690000D03*
X83460000Y-124230000D03*
%TD*%
D10*
%TO.C,J2*%
X89810000Y-123990000D03*
D11*
X92350000Y-123990000D03*
X94890000Y-123990000D03*
%TD*%
D12*
%TO.C,J1*%
X95240000Y-79562000D03*
X89460000Y-79562000D03*
D13*
X96670000Y-80092000D03*
D14*
X96670000Y-75912000D03*
D13*
X88030000Y-80092000D03*
D14*
X88030000Y-75912000D03*
%TD*%
D10*
%TO.C,J4*%
X101240000Y-75970000D03*
D11*
X101240000Y-78510000D03*
X101240000Y-81050000D03*
X101240000Y-83590000D03*
X101240000Y-86130000D03*
X101240000Y-88670000D03*
X101240000Y-91210000D03*
X101240000Y-93750000D03*
X101240000Y-96290000D03*
X101240000Y-98830000D03*
X101240000Y-101370000D03*
X101240000Y-103910000D03*
X101240000Y-106450000D03*
X101240000Y-108990000D03*
X101240000Y-111530000D03*
X101240000Y-114070000D03*
X101240000Y-116610000D03*
X101240000Y-119150000D03*
X101240000Y-121690000D03*
X101240000Y-124230000D03*
%TD*%
M02*
